<?xml version="1.0" standalone="no"?>
<!DOCTYPE svg PUBLIC "-//W3C//DTD SVG 1.1//EN" "http://www.w3.org/Graphics/SVG/1.1/DTD/svg11.dtd" >
<svg xmlns="http://www.w3.org/2000/svg" xmlns:xlink="http://www.w3.org/1999/xlink" version="1.1">
<metadata></metadata>
<defs>
<font id="barlow_condensedblack_italic" horiz-adv-x="913" >
<font-face units-per-em="2048" ascent="1638" descent="-410" />
<missing-glyph horiz-adv-x="397" />
<glyph horiz-adv-x="0" />
<glyph unicode="&#xd;" horiz-adv-x="397" />
<glyph horiz-adv-x="0" />
<glyph horiz-adv-x="0" />
<glyph unicode=" "  horiz-adv-x="397" />
<glyph unicode="&#x09;" horiz-adv-x="397" />
<glyph unicode="&#xa0;" horiz-adv-x="397" />
<glyph unicode="!" horiz-adv-x="591" d="M90 168q0 94 62.5 155.5t150.5 61.5q76 0 121 -45t45 -117q0 -94 -61.5 -158.5t-151.5 -64.5q-74 0 -120 47t-46 121zM170 539l70 864q4 31 32 31h314q29 0 24 -31l-143 -864q-2 -14 -11.5 -22.5t-23.5 -8.5h-235q-13 0 -21 8t-6 23z" />
<glyph unicode="&#x22;" horiz-adv-x="833" d="M133 971l17 430q4 33 34 33h289q16 0 22.5 -9.5t4.5 -23.5l-88 -430q-6 -29 -33 -29h-219q-27 0 -27 29zM582 971l18 430q0 33 33 33h291q14 0 20 -9.5t4 -23.5l-88 -430q-6 -29 -33 -29h-219q-26 0 -26 29z" />
<glyph unicode="#" horiz-adv-x="1259" d="M43 354l33 267q2 14 11 22t24 8h114q12 0 13 11l30 120q4 10 -6 11h-63q-14 0 -21.5 8t-5.5 22l33 269q2 14 11 22t24 8h110q10 0 15 11l55 215q6 29 35 28h313q31 0 25 -33l-56 -210q0 -10 6 -11h84q12 0 13 11l57 215q6 29 35 28h313q31 0 25 -33l-56 -210 q-4 -10 7 -11h67q14 0 21.5 -8t5.5 -22l-33 -269q-6 -30 -35 -30h-114q-10 0 -15 -11l-31 -120q0 -10 9 -11h63q12 0 19.5 -8t5.5 -22l-31 -267q-6 -31 -35 -30h-110q-10 0 -15 -11l-55 -215q-6 -29 -35 -28h-315q-29 0 -23 32l56 211q0 10 -7 11h-84q-12 0 -12 -11 l-57 -215q-6 -29 -35 -28h-313q-31 0 -25 32l55 211q4 10 -6 11h-67q-14 0 -21.5 8t-5.5 22zM612 662q-4 -10 6 -11h84q13 1 13 11l30 120q0 10 -6 11h-84q-12 0 -12 -11z" />
<glyph unicode="$" horiz-adv-x="919" d="M45 315q0 16 4 54l8 63q2 14 11.5 22.5t21.5 8.5h311q12 0 19.5 -8.5t5.5 -22.5l-4 -45q-4 -33 8 -53.5t37 -20.5q27 0 45 22.5t18 55.5q0 31 -29.5 63.5t-113.5 100.5q-82 68 -135 120t-92 129t-39 175q0 18 4 63q16 141 102 245t219 143q8 2 9 10l12 123q2 14 10 22 t23 8h213q12 0 19 -8t5 -22l-18 -117q0 -10 8 -12q119 -31 184.5 -118t65.5 -212q0 -20 -4 -62l-6 -45q-2 -14 -11.5 -22t-21.5 -8h-309q-12 0 -19.5 8t-5.5 22l6 54q2 31 -11 50t-38 19q-29 0 -47 -24.5t-18 -65.5q0 -35 28.5 -71.5t106.5 -102.5q104 -88 159.5 -142.5 t87 -119t31.5 -145.5q0 -16 -4 -58q-20 -153 -113.5 -256.5t-234.5 -136.5q-12 -4 -12 -12l-9 -95q-2 -14 -10 -22t-22 -8h-217q-14 0 -21.5 8t-5.5 22l18 107q0 8 -8 10q-104 33 -162.5 115t-58.5 192z" />
<glyph unicode="%" horiz-adv-x="1501" d="M145 1063q0 102 52.5 191t139.5 142.5t183 53.5q123 0 205 -85t82 -212q0 -104 -51 -195.5t-137.5 -144.5t-184.5 -53q-125 0 -207 87t-82 216zM219 18q0 10 6 19l885 1374q14 23 39 23h199q23 0 22 -19q0 -8 -6 -18l-887 -1374q-14 -23 -39 -23h-198q-21 0 -21 18z M336 1085q0 -57 35 -95t88 -38q63 0 110 51.5t47 122.5q0 55 -34.5 93t-85.5 38q-63 0 -111.5 -51t-48.5 -121zM791 287q0 102 52 191t139 142.5t183 53.5q123 0 205 -85t82 -212q0 -104 -51 -195.5t-137 -144.5t-183 -53q-127 0 -208.5 87t-81.5 216zM983 305q0 -55 35 -92 t86 -37q63 0 110.5 51.5t47.5 122.5q0 55 -34 93t-85 38q-63 0 -111.5 -52t-48.5 -124z" />
<glyph unicode="&#x26;" horiz-adv-x="1277" d="M37 295q0 20 4 65q16 127 76.5 216.5t156.5 156.5q10 6 5 15q-55 86 -76 140t-21 105q0 16 4 54q20 180 149.5 291.5t317.5 111.5q178 0 287 -98.5t109 -259.5q0 -150 -72 -251.5t-195 -185.5q-8 -6 -6 -12l6 -6l60 -92q8 -6 14 0q76 86 107 143q8 20 24 21q6 0 17 -7 l215 -135q14 -10 14 -22q0 -8 -6 -19q-84 -137 -189 -254q-4 -4 -2 -14l148 -221q6 -9 6 -17t-8 -14t-21 -6h-338q-23 0 -35 18l-24 35q-4 6 -14 2q-154 -76 -334 -75q-178 0 -278.5 79.5t-100.5 235.5zM420 385q0 -31 18.5 -55.5t59.5 -24.5l18 2q14 2 43 10q14 4 6 15 l-12 16q-45 66 -82 113q-2 10 -12 0q-39 -35 -39 -76zM555 1012q0 -16 7 -33.5t26 -50.5q6 -8 14 -2q70 59 70 114q0 29 -13.5 45.5t-35.5 16.5q-31 0 -49.5 -26.5t-18.5 -63.5z" />
<glyph unicode="'" horiz-adv-x="405" d="M131 971l19 430q4 33 34 33h310q16 0 22 -9.5t4 -23.5l-90 -430q-8 -29 -35 -29h-237q-27 0 -27 29z" />
<glyph unicode="(" horiz-adv-x="737" d="M37 467q0 111 14 223q61 498 350 840q18 18 39 18h308q25 0 24 -18q0 -6 -6 -17q-113 -188 -189.5 -378.5t-107.5 -444.5q-14 -117 -14 -233q0 -172 29.5 -310.5t78.5 -281.5q2 -4 2 -12q0 -23 -28 -23h-308q-20 0 -32 18q-160 270 -160 619z" />
<glyph unicode=")" horiz-adv-x="737" d="M55 -152l4 17q113 184 191 375.5t108 447.5q14 115 15 230q0 172 -29 308t-80 287q-2 4 -2 13q0 23 27 22h309q21 0 33 -18q160 -270 160 -619q0 -111 -15 -223q-61 -496 -352 -840q-14 -18 -37 -18h-309q-10 0 -16.5 5t-6.5 13z" />
<glyph unicode="*" horiz-adv-x="718" d="M117 1067q0 16 20 29l127 65q8 6 0 15l-110 63q-12 6 -13 21q0 12 6 20l93 141q20 27 41 13l96 -64q4 -4 8 -2t4 8l12 119q2 14 11.5 22.5t23.5 8.5h146q12 0 19 -8.5t5 -22.5l-16 -119q0 -12 12 -6l109 64q6 4 16 4q12 0 23 -17l57 -141q4 -8 4 -12q0 -18 -20 -29 l-123 -63q-6 -2 -6 -6.5t4 -8.5l106 -65q12 -8 12 -23q0 -8 -6 -18l-92 -142q-20 -27 -41 -12l-94 66q-4 4 -7 2t-5 -8l-13 -117q-2 -14 -10 -22.5t-22 -8.5h-146q-14 0 -21.5 8t-4.5 23l16 117q2 6 -2 9t-8 -1l-111 -62q-10 -6 -18 -6q-10 0 -21 19l-59 135q-2 4 -2 12z " />
<glyph unicode="+" horiz-adv-x="866" d="M59 514l27 225q2 14 11 22.5t24 8.5h217q12 0 12 10l27 226q6 31 35 30h219q12 0 19 -8t5 -22l-26 -226q-4 -10 8 -10h219q12 0 19.5 -8t5.5 -23l-27 -225q-2 -14 -11 -22.5t-24 -8.5h-217q-8 0 -12 -10l-27 -225q-2 -14 -11 -22.5t-24 -8.5h-217q-14 0 -21 8t-5 23 l28 225q0 10 -10 10h-217q-14 0 -21.5 8.5t-5.5 22.5z" />
<glyph unicode="," horiz-adv-x="462" d="M-14 -197l90 494q4 14 13 22.5t24 8.5h268q33 0 22 -35l-172 -494q-10 -27 -34 -26h-187q-30 -1 -24 30z" />
<glyph unicode="-" horiz-adv-x="681" d="M51 451l33 266q2 14 11 22.5t22 8.5h551q14 0 21 -8.5t5 -22.5l-32 -266q-2 -14 -11.5 -22.5t-23.5 -8.5h-549q-15 0 -22 8t-5 23z" />
<glyph unicode="." horiz-adv-x="489" d="M37 147q0 96 61 159t152 63q74 0 118.5 -45t44.5 -117q0 -94 -61 -158.5t-150 -64.5q-75 0 -120 46t-45 117z" />
<glyph unicode="/" horiz-adv-x="933" d="M-12 18l4 17l653 1374q10 25 37 25h313q23 0 23 -19l-4 -16l-654 -1374q-10 -25 -36 -25h-312q-24 0 -24 18z" />
<glyph unicode="0" horiz-adv-x="911" d="M39 350q0 23 4 72l74 590q16 133 80.5 234.5t168 156.5t228.5 55q172 0 273.5 -101.5t101.5 -273.5q0 -23 -4 -71l-72 -590q-16 -133 -82 -234.5t-169 -157t-230 -55.5q-172 0 -272.5 101.5t-100.5 273.5zM412 375q0 -33 10 -51.5t31 -18.5q24 0 40.5 25.5t22.5 68.5 l78 635l2 25q0 70 -43 69q-23 0 -39 -25.5t-22 -68.5l-78 -635z" />
<glyph unicode="1" horiz-adv-x="602" d="M113 1114l28 238q4 25 29 34l137 41q19 7 35 7h328q12 0 19 -8.5t5 -22.5l-168 -1372q-2 -14 -11 -22.5t-21 -8.5h-316q-12 0 -19 8t-5 23l127 1042q0 10 -9 10h-133q-14 0 -21 8.5t-5 22.5z" />
<glyph unicode="2" horiz-adv-x="919" d="M0 31l33 276q4 23 20 39l152 154q190 190 270 288q61 78 93 143.5t32 127.5q0 31 -11 46t-32 15q-25 0 -42 -19.5t-21 -51.5l-11 -86q-2 -14 -10 -22.5t-22 -8.5h-318q-14 0 -21.5 8t-5.5 23l13 102q33 174 170 279.5t325 105.5q168 0 266.5 -96.5t98.5 -255.5 q0 -20 -4 -66q-14 -115 -56 -204t-128 -189q-88 -102 -259 -260l-36 -37q-7 -4 -4.5 -8t8.5 -4h370q14 0 21.5 -8.5t5.5 -22.5l-33 -268q-2 -14 -11 -22.5t-24 -8.5h-802q-14 0 -21.5 8t-5.5 23z" />
<glyph unicode="3" horiz-adv-x="901" d="M29 305q0 31 2 47l12 92q2 14 10 22.5t23 8.5h313q14 0 21.5 -8t5.5 -23l-6 -55q-4 -33 8 -54.5t37 -21.5q27 0 45 20.5t22 55.5l29 232q4 33 -9.5 54t-39.5 21q-33 0 -74 -34q-14 -10 -22 -11q-8 0 -19 11l-137 169q-6 10 -6 19q0 16 12 24l250 220q4 4 3 8t-7 4h-316 q-14 0 -21 8t-5 23l33 266q2 14 10 22.5t22 8.5h750q14 0 21.5 -8.5t4.5 -22.5l-34 -275q-4 -25 -19 -38l-233 -224q-6 -4 -5 -8t7 -4q82 -6 133 -73.5t51 -166.5q0 -16 -4 -49l-25 -213q-12 -106 -75.5 -190t-162.5 -131t-218 -47q-174 0 -280.5 89t-106.5 232z" />
<glyph unicode="4" horiz-adv-x="1052" d="M23 373l26 227q2 12 10 37l336 772q10 25 37 25h336q16 0 22.5 -9.5t0.5 -25.5l-291 -697q-6 -12 6 -12h92q10 0 10 10l19 142q2 14 10 22t22 8h314q14 0 21 -8t5 -22l-18 -142q0 -10 10 -10h62q12 0 19 -8t5 -23l-35 -286q-2 -14 -10 -22.5t-22 -8.5h-62q-8 0 -12 -10 l-37 -301q-2 -14 -10 -22.5t-23 -8.5h-313q-14 0 -21.5 8t-5.5 23l37 301q0 10 -8 10h-508q-12 0 -19.5 8t-4.5 23z" />
<glyph unicode="5" horiz-adv-x="911" d="M41 332l2 55q4 31 35 31h313q31 0 27 -25v-24q2 -57 39 -58q25 0 40 18.5t19 47.5l19 135q4 29 -8.5 47.5t-37.5 18.5q-14 0 -27 -7.5t-20 -17.5q-8 -14 -16 -20.5t-20 -6.5h-318q-14 0 -21.5 8.5t-5.5 22.5l105 846q2 14 11 22.5t24 8.5h786q12 0 19.5 -8.5t5.5 -22.5 l-33 -268q-2 -14 -10 -22.5t-23 -8.5h-434q-4 0 -7 -3t-3 -7l-29 -240q-2 -6 2 -8t8 2q37 29 80 45t86 16q125 0 194.5 -79.5t69.5 -221.5q0 -49 -4 -76l-22 -182q-20 -172 -147.5 -269t-321.5 -97q-178 0 -277.5 87t-99.5 261z" />
<glyph unicode="6" d="M43 336q2 14 2 34.5t4 47.5l76 655q20 174 148 275.5t321 101.5q168 0 269.5 -86t101.5 -236q0 -18 -4 -55l-11 -80q-2 -14 -11 -22t-21 -8h-316q-12 0 -19.5 8t-4.5 22l6 54q2 29 -8.5 47t-24.5 18q-20 0 -35.5 -18.5t-17.5 -46.5l-23 -193q-2 -6 2 -8t8 2q37 29 80 45 t86 16q125 0 194.5 -79.5t69.5 -221.5q0 -49 -4 -76l-22 -182q-20 -172 -147.5 -269t-321.5 -97q-182 0 -283.5 88t-93.5 264zM416 377q-4 -29 8 -47.5t33 -18.5q20 0 36.5 18.5t20.5 47.5l23 196q4 29 -6.5 47.5t-32.5 18.5q-23 0 -38.5 -18.5t-19.5 -47.5z" />
<glyph unicode="7" horiz-adv-x="864" d="M98 1034l47 369q6 31 35 31h778q14 0 21.5 -8.5t5.5 -22.5l-35 -281q-4 -25 -10 -37l-448 -1060q-8 -25 -37 -25h-328q-16 0 -22.5 9t1.5 26l443 1057q6 12 -6 12h-125q-8 0 -12 -10l-7 -60q-2 -14 -11 -22t-21 -8h-242q-14 0 -21.5 8t-5.5 22z" />
<glyph unicode="8" horiz-adv-x="897" d="M41 350q0 49 4 74q12 109 53 186q39 78 113 121q10 6 4 14q-59 47 -84 129q-14 51 -14 115q0 20 4 62q12 102 53 178q59 109 170 172t246 63q131 0 226 -60.5t128 -174.5q14 -51 14 -121q0 -123 -59 -234q-43 -80 -115 -126q-8 -9 0 -15q63 -45 84 -123q14 -51 15 -118 q0 -23 -4 -68q-10 -94 -58 -184q-59 -117 -169.5 -186.5t-243.5 -69.5t-228.5 68.5t-126.5 187.5q-12 53 -12 110zM408 393q-4 -35 7 -57.5t34 -22.5t39 22.5t20 57.5l14 115q4 37 -7 59.5t-34 22.5t-39 -22.5t-20 -59.5zM477 961q-4 -37 6.5 -59.5t32.5 -22.5q23 0 40 22.5 t22 59.5l10 94q4 35 -6.5 57.5t-32.5 22.5q-23 0 -39 -21.5t-21 -58.5z" />
<glyph unicode="9" horiz-adv-x="905" d="M39 305q0 18 4 55l8 80q6 31 35 31h313q14 0 21.5 -8t5.5 -23l-6 -53l-2 -14q0 -23 10 -37t23 -14q20 0 34.5 18t18.5 47l24 193q0 12 -12 6q-37 -29 -80 -45.5t-86 -16.5q-125 0 -194.5 80t-69.5 221q0 49 4 76l23 182q20 172 148 269.5t323 97.5q180 0 281.5 -88 t92.5 -264q0 -39 -6 -82l-75 -656q-21 -174 -149 -275t-318 -101q-168 0 -269.5 86t-101.5 235zM465 860q-2 -29 8 -47t31 -18q22 0 38.5 18t20.5 47l23 197q4 29 -7.5 47t-33.5 18q-20 0 -36.5 -18.5t-19.5 -46.5z" />
<glyph unicode=":" horiz-adv-x="630" d="M115 163q0 96 61 159t152 63q74 0 118.5 -45t44.5 -117q0 -94 -61 -158.5t-150 -64.5q-75 0 -120 46t-45 117zM197 823q0 96 61 159t152 63q74 0 118.5 -45t44.5 -117q0 -94 -61 -158.5t-150 -64.5q-75 0 -120 46t-45 117z" />
<glyph unicode=";" horiz-adv-x="512" d="M2 -197l90 494q2 14 12.5 22.5t22.5 8.5h270q33 0 23 -35l-172 -494q-10 -27 -35 -26h-186q-31 -1 -25 30zM106 778q0 66 35 122t90.5 90t110.5 34q76 0 130 -54.5t54 -133.5q0 -98 -69.5 -169t-167.5 -71q-82 0 -132.5 52t-50.5 130z" />
<glyph unicode="&#x3c;" horiz-adv-x="866" d="M53 469l35 279q2 25 27 34l776 332l16 4q10 0 15.5 -7t3.5 -19l-37 -299q-4 -25 -29 -35l-416 -144q-12 -6 0 -12l379 -143q23 -10 19 -35l-35 -299q-4 -16 -14.5 -23.5t-24.5 0.5l-696 332q-20 10 -19 35z" />
<glyph unicode="=" horiz-adv-x="866" d="M39 338l27 225q2 14 11 22.5t24 8.5h733q14 0 21.5 -8t5.5 -23l-27 -225q-2 -14 -11 -22.5t-24 -8.5h-735q-12 0 -19.5 8.5t-5.5 22.5zM82 686l27 225q2 14 11 22.5t24 8.5h733q14 0 21.5 -8t5.5 -23l-27 -225q-2 -14 -11 -22.5t-24 -8.5h-735q-12 0 -19.5 8.5t-5.5 22.5 z" />
<glyph unicode="&#x3e;" horiz-adv-x="866" d="M12 125l35 299q4 25 29 35l416 143q12 6 2 12l-381 144q-23 10 -19 35l37 299q2 16 12.5 23t24.5 -1l696 -332q20 -10 19 -34l-35 -279q-2 -25 -27 -35l-776 -332l-16 -4q-20 0 -17 27z" />
<glyph unicode="?" horiz-adv-x="960" d="M102 999q16 133 89 236.5t188 161t254 57.5q186 0 291.5 -97t105.5 -263q0 -18 -4 -64q-12 -92 -46 -156.5t-77 -104.5t-106 -85q-63 -47 -96 -82t-39 -86v-2q-2 -14 -11.5 -22.5t-23.5 -8.5h-310q-14 0 -21 8.5t-5 22.5l4 27q10 80 44 139t74 96t103 82q68 49 99.5 84 t31.5 86q0 37 -17.5 56.5t-49.5 19.5q-43 0 -71 -28.5t-32 -76.5l-2 -8q-2 -29 -33 -28l-313 14q-12 0 -20.5 6t-6.5 16zM248 154q0 96 61.5 158.5t149.5 62.5q76 0 121 -45t45 -117q0 -94 -61.5 -158.5t-151.5 -64.5q-74 0 -119 46t-45 118z" />
<glyph unicode="@" horiz-adv-x="1509" d="M53 401q0 102 27 215q53 225 190.5 402.5t324.5 277t388 99.5q162 0 288 -65.5t195.5 -184.5t69.5 -277q0 -88 -25 -186q-51 -211 -178 -327.5t-293 -116.5q-143 0 -209 84q-6 6 -14 -3q-63 -78 -176 -77q-106 0 -150.5 60t-44.5 142q0 20 5 50q4 27 9 51t9 47 q8 29 10 43q6 27 15.5 62.5t11.5 43.5q41 139 105.5 196.5t168.5 57.5q63 0 92 -49q4 -6 8.5 -5t4.5 7v4q8 29 37 29h186q31 0 25 -33l-82 -311q-10 -35 -11 -72q0 -43 18.5 -63.5t47.5 -20.5q51 0 89 60.5t58 148.5q16 76 17 131q0 156 -92.5 246t-245.5 90 q-133 0 -255 -70.5t-212 -195.5t-129 -283q-20 -82 -21 -157q0 -115 48.5 -193t123 -115t152.5 -37q59 0 108.5 19.5t100.5 54.5q10 6 18 6q12 0 23 -16l65 -152q2 -4 2 -14q0 -16 -18 -29q-186 -111 -373 -110q-147 0 -263 64.5t-182.5 186.5t-66.5 285zM688 479 q0 -35 33 -35q16 0 29.5 14.5t19.5 37.5q4 12 29 122l26 109q4 16 4 21q0 12 -7 20t-21 8q-18 0 -32.5 -13t-18.5 -36l-31 -123l-29 -108q-2 -6 -2 -17z" />
<glyph unicode="A" horiz-adv-x="1054" d="M-4 33l450 1374q8 27 37 27h363q29 0 31 -27l112 -1374v-4q0 -29 -31 -29h-321q-29 0 -27 29l-4 155q2 4 -2 7.5t-8 3.5h-178q-10 0 -15 -11l-38 -155q-6 -29 -35 -29h-312q-31 0 -22 33zM487 500q-3 -11 7 -11h96q6 0 10 11l-8 379q0 8 -5 7t-5 -7z" />
<glyph unicode="B" horiz-adv-x="960" d="M16 31l168 1372q2 14 11.5 22.5t21.5 8.5h361q197 0 306 -83t109 -251q0 -20 -4 -70q-25 -190 -149 -282q-12 -6 -6 -13q110 -93 110 -261q0 -21 -4 -62q-22 -199 -156.5 -305.5t-322.5 -106.5h-420q-12 0 -19.5 8t-5.5 23zM428 340q-4 -10 8 -10h35q45 0 74.5 43 t29.5 123q0 47 -18 75.5t-51 28.5h-37q-10 0 -10 -10zM494 885q0 -10 8 -11h12q88 0 104 115l3 27q0 88 -78 88h-13q-10 0 -10 -10z" />
<glyph unicode="C" horiz-adv-x="946" d="M47 350q0 20 4 70l74 598q25 199 158 315.5t329 116.5q178 0 282.5 -97.5t104.5 -267.5q0 -18 -4 -67l-2 -10q-2 -14 -11 -23.5t-21 -9.5l-316 -10q-31 0 -27 28l7 51q4 35 -10.5 55.5t-41.5 20.5q-29 0 -48 -20.5t-23 -55.5l-80 -657q-4 -33 9 -53.5t42 -20.5t48.5 19.5 t23.5 54.5l6 55q2 14 11 21.5t22 7.5l313 -10q14 0 21.5 -9.5t5.5 -23.5l-2 -8q-25 -199 -159 -317.5t-331 -118.5q-178 0 -281.5 98t-103.5 268z" />
<glyph unicode="D" horiz-adv-x="960" d="M16 31l168 1372q2 14 11.5 22.5t21.5 8.5h391q182 0 290 -95.5t108 -255.5q0 -18 -5 -59l-75 -614q-14 -121 -81 -214.5t-174.5 -144.5t-238.5 -51h-391q-12 0 -19.5 8t-5.5 23zM428 340q-4 -10 8 -10l29 2q33 2 58.5 30.5t33.5 73.5l68 563l2 23q0 39 -18.5 60.5 t-49.5 21.5h-29q-10 0 -10 -10z" />
<glyph unicode="E" horiz-adv-x="882" d="M16 31l168 1372q2 14 11.5 22.5t21.5 8.5h735q14 0 21.5 -8.5t5.5 -22.5l-33 -268q-2 -15 -11 -23t-24 -8h-381q-10 0 -10 -10l-24 -201q-4 -10 8 -10h198q14 0 21.5 -8.5t5.5 -22.5l-33 -268q-6 -31 -34 -31h-199q-10 0 -10 -10l-25 -203q-4 -10 8 -10h381 q14 0 21.5 -8.5t5.5 -22.5l-33 -268q-2 -14 -11 -22.5t-24 -8.5h-735q-12 0 -19.5 8t-5.5 23z" />
<glyph unicode="F" horiz-adv-x="858" d="M16 31l168 1372q2 14 11.5 22.5t21.5 8.5h735q14 0 21.5 -8.5t5.5 -22.5l-33 -268q-2 -15 -11 -23t-24 -8h-381q-10 0 -10 -10l-24 -201q-4 -10 8 -10h198q14 0 21.5 -8.5t5.5 -22.5l-33 -268q-6 -31 -34 -31h-199q-10 0 -10 -10l-64 -512q-2 -14 -11 -22.5t-22 -8.5 h-315q-12 0 -19.5 8t-5.5 23z" />
<glyph unicode="G" horiz-adv-x="950" d="M45 338q0 18 4 63l78 633q23 190 156 303t329 113q178 0 283.5 -96.5t105.5 -259.5q0 -23 -4 -64l-8 -67q-6 -31 -35 -31h-313q-14 0 -21.5 8t-5.5 23l11 71q1 8 1 16q0 28 -12 46q-14 24 -41 24q-29 0 -49 -23.5t-24 -62.5l-78 -635q-1 -9 -1 -17q0 -27 11 -46 q14 -23 41 -23q29 0 48.5 23.5t23.5 62.5l14 103q0 10 -10 10h-17q-14 0 -21 8t-5 23l29 235q2 14 11 22.5t21 8.5h373q14 0 21.5 -8t5.5 -23l-47 -377q-23 -190 -157 -303.5t-331 -113.5q-180 0 -283.5 95t-103.5 259z" />
<glyph unicode="H" horiz-adv-x="964" d="M16 31l168 1372q2 14 11.5 22.5t21.5 8.5h315q12 0 19.5 -8.5t5.5 -22.5l-61 -510q-4 -10 8 -10h96q4 0 7 3t3 7l64 510q2 14 10 22.5t23 8.5h313q14 0 21.5 -8.5t5.5 -22.5l-168 -1372q-2 -14 -11.5 -22.5t-23.5 -8.5h-314q-14 0 -21 8t-5 23l63 512q0 10 -8 10h-96 q-10 0 -10 -10l-64 -512q-2 -14 -11 -22.5t-22 -8.5h-315q-12 0 -19.5 8t-5.5 23z" />
<glyph unicode="I" horiz-adv-x="477" d="M16 31l168 1372q2 14 11.5 22.5t21.5 8.5h315q12 0 19.5 -8.5t5.5 -22.5l-168 -1372q-2 -14 -11 -22.5t-22 -8.5h-315q-12 0 -19.5 8t-5.5 23z" />
<glyph unicode="J" horiz-adv-x="933" d="M20 332q0 20 5 61l14 119q2 14 11 22.5t22 8.5h315q12 0 19.5 -8.5t5.5 -22.5l-15 -123q-4 -33 9.5 -54.5t39.5 -21.5q27 0 47.5 21.5t22.5 54.5l125 1014q2 14 11.5 22.5t21.5 8.5h315q12 0 19.5 -8.5t5.5 -22.5l-123 -1010q-14 -121 -81 -214t-171 -144t-233 -51 q-177 0 -281.5 95t-104.5 253z" />
<glyph unicode="K" horiz-adv-x="1026" d="M16 31l168 1372q2 14 11.5 22.5t21.5 8.5h315q12 0 19.5 -8.5t5.5 -22.5l-49 -412q-2 -8 2 -8t8 6l221 420q12 25 39 25h328q25 0 24 -19q0 -8 -6 -18l-354 -606q-2 -8 -2 -13l199 -743v-8q0 -27 -29 -27h-330q-27 0 -33 25l-104 421q0 6 -4 7.5t-6 -7.5l-25 -45l-2 -12 l-45 -358q-2 -14 -11 -22.5t-22 -8.5h-315q-12 0 -19.5 8t-5.5 23z" />
<glyph unicode="L" horiz-adv-x="886" d="M16 31l168 1372q2 14 11.5 22.5t21.5 8.5h315q12 0 19.5 -8.5t5.5 -22.5l-129 -1063q-4 -10 8 -10h389q14 0 21.5 -8.5t5.5 -22.5l-33 -268q-6 -31 -35 -31h-743q-12 0 -19.5 8t-5.5 23z" />
<glyph unicode="M" horiz-adv-x="1124" d="M6 31l168 1372q2 14 11.5 22.5t21.5 8.5h311q25 0 33 -23l108 -266q4 -8 13 0l170 266q12 23 37 23h311q12 0 19.5 -8.5t4.5 -22.5l-167 -1372q-2 -14 -11.5 -22.5t-21.5 -8.5h-316q-12 0 -19 8t-5 23l102 837q2 8 -3 9.5t-9 -5.5l-139 -200l-25 -37h-2l-104 237 q-2 6 -6.5 5.5t-6.5 -9.5l-102 -837q-2 -14 -10.5 -22.5t-22.5 -8.5h-313q-14 0 -21.5 8t-5.5 23z" />
<glyph unicode="N" horiz-adv-x="1048" d="M16 31l168 1372q2 14 11.5 22.5t21.5 8.5h350q25 0 29 -27l80 -633q0 -6 4 -4t6 6l74 627q2 14 11 22.5t24 8.5h309q14 0 21.5 -8.5t4.5 -22.5l-169 -1372q-2 -14 -10.5 -22.5t-22.5 -8.5h-355q-25 0 -28 27l-78 628q0 6 -4 6.5t-4 -6.5l-74 -624q-2 -14 -11 -22.5 t-22 -8.5h-311q-12 0 -19.5 8t-5.5 23z" />
<glyph unicode="O" horiz-adv-x="960" d="M47 352q0 20 4 70l74 590q25 201 159 319.5t334 118.5q180 0 286 -99.5t106 -269.5q0 -20 -4 -69l-72 -590q-25 -201 -160 -319.5t-336 -118.5q-182 0 -286.5 99t-104.5 269zM422 383q0 -33 15.5 -51.5t41.5 -18.5q31 0 52.5 24.5t27.5 68.5l76 622q1 9 1 18q0 32 -12 50 q-14 24 -44 24q-33 0 -54.5 -24.5t-25.5 -67.5l-76 -622q-2 -8 -2 -23z" />
<glyph unicode="P" horiz-adv-x="956" d="M12 31l168 1372q2 14 11.5 22.5t21.5 8.5h449q163 0 258.5 -105.5t95.5 -279.5q0 -49 -4 -76q-16 -131 -77 -231.5t-156 -155t-210 -54.5h-112q-10 0 -11 -10l-61 -491q-2 -14 -11 -22.5t-22 -8.5h-315q-12 0 -19.5 8t-5.5 23zM485 840q-4 -10 9 -11h26q45 0 77 34 t40 102q2 12 2 34q0 51 -22.5 78t-61.5 27h-29q-10 0 -10 -10z" />
<glyph unicode="Q" horiz-adv-x="940" d="M49 369q0 23 4 71l70 553q16 135 81.5 238.5t170 161t231.5 57.5q178 0 279.5 -103.5t101.5 -279.5q0 -25 -4 -74l-70 -553q-16 -145 -92 -254.5t-194 -160.5q-6 -4 -11 -13l-18 -159q-2 -14 -11 -22.5t-24 -8.5h-313q-14 0 -21.5 8t-5.5 23l21 159q0 8 -6 13 q-90 45 -139.5 134t-49.5 210zM422 399q-4 -39 8 -62.5t37 -23.5q27 0 46 23.5t24 62.5l77 635q4 39 -8 62.5t-39 23.5t-45 -23.5t-22 -62.5z" />
<glyph unicode="R" horiz-adv-x="972" d="M16 31l168 1372q2 14 11.5 22.5t21.5 8.5h449q164 0 259 -104.5t95 -276.5q0 -49 -4 -76q-14 -113 -63.5 -202t-127.5 -144q-10 -6 -6 -15l88 -581v-8q0 -12 -8 -19.5t-20 -7.5h-324q-25 0 -29 27l-59 516q0 8 -6 8q-8 0 -8 -10l-64 -510q-2 -14 -11 -22.5t-22 -8.5h-315 q-12 0 -19.5 8t-5.5 23zM489 854q0 -10 11 -10h26q49 0 83 43t34 119q0 47 -22.5 72.5t-61.5 25.5h-29q-10 0 -10 -10z" />
<glyph unicode="S" horiz-adv-x="919" d="M45 317q0 14 4 52l8 63q2 14 11.5 22.5t21.5 8.5h311q12 0 19.5 -8.5t5.5 -22.5l-4 -45q-4 -33 8 -53.5t37 -20.5q27 0 45 22.5t18 55.5q0 31 -29.5 63.5t-113.5 100.5q-82 68 -135 120t-92 129t-39 175q0 18 4 63q23 182 152 295t321 113q176 0 277.5 -94t101.5 -254 q0 -18 -4 -60l-6 -45q-2 -14 -11.5 -22t-21.5 -8h-309q-12 0 -19.5 8t-5.5 22l6 54q2 31 -11 50t-38 19q-29 0 -47 -24.5t-18 -65.5q0 -35 28.5 -71.5t106.5 -102.5q104 -88 159.5 -142.5t87 -119t31.5 -145.5q0 -16 -4 -58q-25 -186 -155 -296.5t-320 -110.5 q-176 0 -278.5 91t-102.5 242z" />
<glyph unicode="T" horiz-adv-x="991" d="M135 1135l33 268q2 14 11 22.5t24 8.5h860q12 0 19.5 -8.5t4.5 -22.5l-32 -268q-2 -14 -10.5 -22.5t-22.5 -8.5h-238q-10 0 -10 -10l-131 -1063q-2 -14 -10 -22.5t-23 -8.5h-313q-14 0 -21.5 8t-5.5 23l131 1063q0 10 -10 10h-229q-14 0 -21.5 8t-5.5 23z" />
<glyph unicode="U" horiz-adv-x="956" d="M55 354q0 23 4 72l121 977q2 14 11.5 22.5t21.5 8.5h315q12 0 19.5 -8.5t5.5 -22.5l-123 -1014q-4 -35 8.5 -55.5t38.5 -20.5q27 0 44.5 20.5t21.5 55.5l125 1014q2 14 10 22.5t22 8.5h314q14 0 21 -8.5t5 -22.5l-120 -977q-16 -131 -82 -231.5t-170.5 -155.5t-231.5 -55 q-176 0 -278.5 100t-102.5 270z" />
<glyph unicode="V" horiz-adv-x="1034" d="M162 1401q0 33 33 33h342q29 0 26 -29v-735q-2 -6 4 -6t8 6l173 735q6 29 34 29h332q14 0 21.5 -8.5t1.5 -24.5l-451 -1374q-8 -27 -37 -27h-348q-29 0 -29 27z" />
<glyph unicode="W" horiz-adv-x="1429" d="M162 1401q0 33 33 33h323q29 0 29 -29l-10 -635q-2 -6 4 -6t6 6l151 635q6 29 37 29h242q29 0 29 -29l6 -635q0 -4 5 -5t5 5l137 635q8 29 35 29h315q35 0 23 -33l-422 -1374q-8 -27 -37 -27h-274q-29 0 -29 29l-4 667q2 6 -3 5t-7 -7l-150 -665q-8 -29 -37 -29h-274 q-29 0 -31 27z" />
<glyph unicode="X" horiz-adv-x="999" d="M-2 18l4 17l346 676q2 6 0 12l-178 676q-2 4 -2 10q0 25 31 25h317q12 0 20.5 -7.5t10.5 -19.5l45 -285q2 -6 6 -6t6 6l117 285q10 27 37 27h315q25 0 25 -19l-4 -16l-346 -676q-2 -6 0 -12l178 -676q2 -4 2 -10q0 -25 -31 -25h-313q-12 0 -20.5 7t-10.5 20l-49 282 q0 8 -4 8t-6 -8l-119 -282q-10 -27 -37 -27h-315q-25 0 -25 18z" />
<glyph unicode="Y" horiz-adv-x="1009" d="M168 1399v8q0 27 29 27h329q29 0 31 -27l25 -412q0 -6 5 -6t7 6l125 412q8 27 37 27h329q16 0 21.5 -9.5t-0.5 -25.5l-391 -879l-2 -12l-60 -473q-2 -14 -10 -22.5t-22 -8.5h-314q-14 0 -21 8t-5 23l57 473q2 4 0 12z" />
<glyph unicode="Z" horiz-adv-x="841" d="M-12 31l35 278q4 23 14 39l473 744q6 12 -6 12h-354q-14 0 -21.5 8t-5.5 23l33 268q2 14 11 22.5t23 8.5h732q12 0 19 -8.5t5 -22.5l-33 -279q-2 -14 -14 -39l-477 -743q-10 -12 6 -12h358q12 0 19.5 -8.5t5.5 -22.5l-33 -268q-2 -14 -11 -22.5t-22 -8.5h-731 q-14 0 -21 8t-5 23z" />
<glyph unicode="[" horiz-adv-x="741" d="M-18 -305l239 1950q2 14 11.5 22t23.5 8h463q12 0 19 -8t5 -22l-32 -269q-2 -14 -10.5 -22t-22.5 -8h-109q-12 0 -12 -11l-164 -1331q0 -10 10 -10h109q14 0 21.5 -8.5t5.5 -22.5l-33 -268q-6 -31 -35 -31h-463q-14 0 -21 8.5t-5 22.5z" />
<glyph unicode="\" horiz-adv-x="933" d="M182 1409q0 25 29 25h313q25 0 31 -25l315 -1374q2 -4 2 -10q0 -25 -30 -25h-312q-25 0 -30 25l-316 1374q-2 4 -2 10z" />
<glyph unicode="]" horiz-adv-x="741" d="M82 -305l33 268q2 14 11 22.5t21 8.5h111q10 0 10 10l164 1331q0 10 -8 11h-111q-12 0 -19 8t-5 22l33 269q2 14 10 22t22 8h463q14 0 21.5 -8t5.5 -22l-240 -1950q-2 -14 -11 -22.5t-22 -8.5h-462q-14 0 -21.5 8.5t-5.5 22.5z" />
<glyph unicode="^" horiz-adv-x="874" d="M83 605q-7 9 1 26l322 776q10 27 36 27h256q29 0 31 -25l137 -778v-4q0 -31 -30 -31h-248q-27 0 -31 27l-33 368q0 8 -4 8t-6 -8l-123 -368q-10 -27 -37 -27h-250q-14 0 -21 9z" />
<glyph unicode="_" horiz-adv-x="894" d="M-20 31l28 225q2 14 10.5 22.5t22.5 8.5h805q14 0 21 -8.5t5 -22.5l-28 -225q-2 -14 -11.5 -22.5t-21.5 -8.5h-805q-14 0 -21.5 8t-4.5 23z" />
<glyph unicode="`" horiz-adv-x="489" d="M172 1413q0 8 8.5 14.5t20.5 6.5h242q25 0 33 -21l86 -190q4 -13 4 -17q0 -20 -29 -20h-197q-20 0 -32 18l-129 193q-6 10 -7 16z" />
<glyph unicode="a" d="M33 248q0 49 6 100l45 369q23 182 99.5 273t217.5 91q119 0 164 -96q4 -6 8.5 -5t4.5 9l6 45q2 15 11 23t21 8h316q12 0 19 -8t5 -23l-122 -1003q-2 -14 -10.5 -22.5t-22.5 -8.5h-314q-14 0 -21 8t-5 23l6 45q0 8 -4 8t-8 -6q-70 -94 -189 -94q-123 0 -178 67.5 t-55 196.5zM416 379q-4 -31 5 -48.5t30 -17.5q20 0 34.5 18.5t18.5 47.5l37 307q4 29 -6.5 47.5t-30.5 18.5t-32.5 -18.5t-16.5 -47.5z" />
<glyph unicode="b" d="M8 31l168 1372q2 14 11.5 22.5t21.5 8.5h315q12 0 19.5 -8.5t5.5 -22.5l-49 -414v-2q0 -2 2 -2q4 0 22 19q65 77 171 77h3q119 0 176.5 -65.5t57.5 -196.5q0 -47 -6 -102l-45 -369q-20 -176 -97 -270t-221 -94q-117 0 -164 94q-4 6 -8 6t-4 -8l-6 -45q-2 -14 -11.5 -22.5 t-21.5 -8.5h-315q-12 0 -19.5 8t-5.5 23zM424 379q-4 -29 6 -47.5t31 -18.5q20 0 33.5 17.5t17.5 48.5l37 307v14q0 23 -9.5 37.5t-23.5 14.5q-20 0 -35.5 -17.5t-19.5 -48.5z" />
<glyph unicode="c" horiz-adv-x="903" d="M35 291q0 16 4 57l45 369q20 166 144 265t321 99q180 0 277.5 -84t97.5 -227q0 -16 -4 -53l-5 -45q-2 -14 -11 -23.5t-23 -9.5l-316 -10q-12 0 -20 7t-6 21l4 29l2 16q0 20 -10.5 35t-26.5 15q-20 0 -34.5 -18.5t-18.5 -47.5l-39 -307q-4 -29 7 -47.5t32 -18.5 q18 0 32.5 18.5t18.5 47.5l4 31q2 14 10 22t23 8l313 -4q14 0 21.5 -8t5.5 -22l-9 -58q-23 -174 -142.5 -269t-317.5 -95q-183 0 -281 79.5t-98 227.5z" />
<glyph unicode="d" d="M33 248q0 49 6 100l45 369q23 182 99.5 273t217.5 91q119 0 164 -96q4 -6 8.5 -5t4.5 9l51 414q2 14 11 22.5t24 8.5h313q14 0 21.5 -8.5t5.5 -22.5l-170 -1372q-2 -14 -10.5 -22.5t-22.5 -8.5h-314q-14 0 -21 8t-5 23l6 45q0 8 -4 8t-8 -6q-70 -94 -189 -94 q-123 0 -178 67.5t-55 196.5zM416 379q-4 -31 5 -48.5t30 -17.5q20 0 34.5 18.5t18.5 47.5l37 307q4 29 -6.5 47.5t-30.5 18.5t-32.5 -18.5t-16.5 -47.5z" />
<glyph unicode="e" horiz-adv-x="903" d="M35 291q0 16 4 57l45 369q20 166 144 265t321 99q180 0 277.5 -84t97.5 -227q0 -16 -4 -53l-31 -250q-2 -14 -10.5 -22.5t-22.5 -8.5h-424q-4 0 -7 -3t-3 -7l-6 -47q-4 -29 7 -47.5t32 -18.5q35 0 51 52q12 29 37 26l301 -20q31 -4 24 -33q-33 -180 -143.5 -267 t-310.5 -87q-182 0 -280.5 79.5t-98.5 227.5zM446 635q0 -10 11 -10h69q10 0 11 10l6 51l2 16q0 20 -10.5 35t-26.5 15q-21 0 -35 -18.5t-18 -47.5z" />
<glyph unicode="f" horiz-adv-x="618" d="M70 31l92 757q4 10 -8 11h-41q-14 0 -21.5 8t-5.5 22l25 205q2 14 11 22.5t23 8.5h41q10 0 11 10l8 64q20 166 118.5 231.5t282.5 65.5q53 0 82 -2q14 0 10 -31l-24 -195q-4 -31 -17 -30q-35 -4 -56 -24.5t-26 -49.5l-4 -29q-4 -10 9 -10h75q15 0 22 -8t5 -23l-27 -205 q-2 -14 -10 -22t-22 -8h-76q-10 0 -10 -11l-95 -757q-2 -14 -10 -22.5t-22 -8.5h-314q-14 0 -21 8t-5 23z" />
<glyph unicode="g" d="M33 248q0 49 6 100l45 369q23 182 99.5 273t217.5 91q119 0 164 -94q4 -6 8.5 -6t4.5 8l6 45q2 15 11 23t21 8h316q12 0 19 -8t5 -23l-116 -964q-18 -154 -74.5 -262.5t-180.5 -173t-333 -64.5q-76 0 -119 4q-31 0 -27 31l33 272q6 31 37 29q27 -1 51 -1q107 0 155 29 q60 35 79 115q2 6 -6.5 8t-12.5 -4q-69 -69 -173 -69h-3q-123 0 -178 67.5t-55 196.5zM416 379q-4 -31 5 -48.5t30 -17.5q20 0 34.5 18.5t18.5 47.5l37 307q4 29 -6.5 47.5t-30.5 18.5t-32.5 -18.5t-16.5 -47.5z" />
<glyph unicode="h" horiz-adv-x="917" d="M8 31l168 1372q2 14 11.5 22.5t21.5 8.5h315q12 0 19.5 -8.5t5.5 -22.5l-49 -402q0 -4 4 -4q8 0 20 15q67 69 161 69h3q244 0 244 -274q0 -45 -6 -94l-84 -682q-2 -14 -10.5 -22.5t-22.5 -8.5h-313q-14 0 -21.5 8t-5.5 23l80 655q2 8 2 21q0 45 -35 45q-45 0 -55 -66 l-80 -655q-2 -14 -11.5 -22.5t-21.5 -8.5h-315q-12 0 -19.5 8t-5.5 23z" />
<glyph unicode="i" horiz-adv-x="448" d="M4 31l123 1003q2 14 11 22.5t22 8.5h315q12 0 19.5 -8t5.5 -23l-123 -1003q-2 -14 -10.5 -22.5t-22.5 -8.5h-313q-15 0 -22 8t-5 23zM158 1300q0 96 61.5 159t149.5 63q76 0 121 -45t45 -117q0 -94 -61.5 -158.5t-151.5 -64.5q-74 0 -119 46t-45 117z" />
<glyph unicode="j" horiz-adv-x="452" d="M-233 -381l32 264q2 31 35 31h18q78 0 112 32q38 36 48 113l119 975q2 14 11.5 22.5t21.5 8.5h315q12 0 19.5 -8t5.5 -23l-119 -975q-23 -182 -61.5 -276t-159.5 -147q-109 -49 -320 -49q-24 0 -49 1q-32 0 -28 31zM166 1300q0 96 61.5 159t149.5 63q76 0 121 -45 t45 -117q0 -94 -61.5 -158.5t-151.5 -64.5q-74 0 -119 46t-45 117z" />
<glyph unicode="k" horiz-adv-x="952" d="M8 31l168 1372q2 14 11.5 22.5t21.5 8.5h315q12 0 19.5 -8.5t5.5 -22.5l-70 -576q-2 -8 3 -8t10 6l118 217q12 23 37 23h322q25 0 24 -16q0 -4 -8 -21l-270 -377q-4 -8 -2 -14l170 -602v-8q0 -27 -29 -27h-322q-25 0 -30 25l-56 294q0 6 -5 7.5t-9 -7.5l-18 -34l-2 -13 l-31 -241q-2 -14 -11.5 -22.5t-21.5 -8.5h-315q-13 0 -20 8t-5 23z" />
<glyph unicode="l" horiz-adv-x="452" d="M4 31l168 1372q2 14 11.5 22.5t21.5 8.5h315q12 0 19.5 -8.5t5.5 -22.5l-168 -1372q-2 -14 -10.5 -22.5t-22.5 -8.5h-313q-15 0 -22 8t-5 23z" />
<glyph unicode="m" horiz-adv-x="1378" d="M8 31l123 1003q2 14 11.5 22.5t21.5 8.5h315q12 0 19.5 -8t5.5 -21v-12q-2 -6 2 -7t8 3q76 61 174 61q158 0 215 -118q0 -4 4 -5q8 0 19 17q86 106 223 106q244 0 244 -274q0 -45 -7 -94l-83 -682q-2 -14 -10.5 -22.5t-22.5 -8.5h-314q-14 0 -21 8t-5 23l80 655q2 8 2 21 q0 45 -35 45q-45 0 -55 -66l-80 -655q-2 -14 -10.5 -22.5t-22.5 -8.5h-313q-14 0 -21.5 8t-5.5 23l80 655q2 8 2 21q0 45 -35 45q-45 0 -55 -66l-80 -655q-2 -14 -11.5 -22.5t-21.5 -8.5h-315q-12 0 -19.5 8t-5.5 23z" />
<glyph unicode="n" horiz-adv-x="917" d="M8 31l123 1003q2 14 11.5 22.5t21.5 8.5h315q12 0 19.5 -8t5.5 -23l-4 -33q0 -4 4 -4q8 0 20 15q67 69 161 69h3q244 0 244 -274q0 -45 -6 -94l-84 -682q-2 -14 -10.5 -22.5t-22.5 -8.5h-313q-14 0 -21.5 8t-5.5 23l80 655q2 8 2 21q0 45 -35 45q-45 0 -55 -66l-80 -655 q-2 -14 -11.5 -22.5t-21.5 -8.5h-315q-12 0 -19.5 8t-5.5 23z" />
<glyph unicode="o" horiz-adv-x="915" d="M35 291q0 16 4 57l45 369q20 166 145 265t324 99q182 0 280.5 -84t98.5 -227q0 -16 -4 -53l-45 -369q-23 -174 -142.5 -269t-322.5 -95q-185 0 -284 79.5t-99 227.5zM416 379q-4 -29 8 -47.5t33 -18.5q20 0 36.5 18.5t20.5 47.5l37 307q2 29 -8.5 47.5t-30.5 18.5 q-23 0 -38 -18.5t-19 -47.5z" />
<glyph unicode="p" horiz-adv-x="917" d="M-33 -338l168 1372q2 14 11.5 22.5t21.5 8.5h315q12 0 19.5 -8t5.5 -23l-4 -45v-2q0 -2 2 -2q4 0 22 19q69 77 171 77h3q123 0 178.5 -67.5t55.5 -196.5q0 -47 -6 -100l-45 -369q-23 -182 -99.5 -273t-218.5 -91q-119 0 -164 96q-4 6 -8 5t-4 -9l-51 -414 q-2 -14 -11.5 -22.5t-21.5 -8.5h-315q-12 0 -19.5 8.5t-5.5 22.5zM428 379q-4 -29 6 -47.5t31 -18.5q20 0 33.5 17.5t17.5 48.5l37 307v14q0 23 -9 37.5t-24 14.5q-20 0 -35.5 -17.5t-19.5 -48.5z" />
<glyph unicode="q" horiz-adv-x="917" d="M33 250q0 47 6 98l45 369q23 178 98.5 271t218.5 93q117 0 164 -94q4 -6 8.5 -6t4.5 8l6 45q2 15 11 23t21 8h316q12 0 19 -8t5 -23l-168 -1372q-2 -14 -10 -22.5t-22 -8.5h-314q-14 0 -21 8.5t-5 22.5l51 414q0 8 -4 9t-8 -5q-70 -96 -189 -96t-176 66.5t-57 199.5z M416 379q-4 -31 5 -48.5t30 -17.5q20 0 34.5 18.5t18.5 47.5l37 307q4 29 -6.5 47.5t-30.5 18.5t-32.5 -18.5t-16.5 -47.5z" />
<glyph unicode="r" horiz-adv-x="688" d="M8 33l123 1001q2 14 11.5 22.5t21.5 8.5h315q12 0 19.5 -8t5.5 -23l-6 -47q0 -8 3 -9t7 5q61 96 168 96q47 0 78 -20q16 -10 10 -39l-90 -322q-4 -16 -12.5 -20t-24.5 0q-18 6 -45 6q-41 0 -70 -14q-31 -14 -51 -46t-25 -65l-65 -526q-2 -14 -10.5 -22.5t-22.5 -8.5h-313 q-14 0 -21.5 8t-5.5 23z" />
<glyph unicode="s" horiz-adv-x="870" d="M20 276q0 29 3 43l2 7q2 14 10 22t22 8h299q12 0 20.5 -7t6.5 -19q-4 -31 11.5 -47.5t37.5 -16.5q20 0 31.5 12.5t11.5 30.5q0 27 -28.5 42.5t-90.5 33.5l-55 18q-90 33 -152.5 99.5t-62.5 181.5q0 33 2 49q20 160 138 254t294 94q166 0 263.5 -87t97.5 -232 q0 -16 -4 -53q-4 -20 -33 -21h-289q-14 0 -21.5 8.5t-5.5 22.5l2 12v10q0 43 -36 43q-23 0 -36.5 -19.5t-13.5 -39.5q0 -37 35 -58.5t92 -39.5q127 -41 204 -100.5t77 -174.5q0 -170 -126 -269t-325 -99q-176 0 -278.5 79.5t-102.5 212.5z" />
<glyph unicode="t" horiz-adv-x="610" d="M70 829l24 205q6 31 35 31h55q8 0 13 10l26 221q2 14 10.5 22.5t22.5 8.5h299q12 0 19.5 -8t5.5 -23l-27 -221q0 -10 8 -10h86q14 0 21.5 -8t5.5 -23l-27 -205q-2 -14 -10 -22t-23 -8h-86q-10 0 -10 -11l-49 -395q-4 -37 10.5 -50t44.5 -11h4q12 0 19.5 -8.5t5.5 -22.5 l-33 -270q-2 -14 -11 -22.5t-22 -8.5h-96q-150 0 -225.5 39t-75.5 151q0 31 2 48l68 550q4 10 -8 11h-56q-14 0 -21 8t-5 22z" />
<glyph unicode="u" horiz-adv-x="917" d="M33 233q0 20 4 62l90 739q2 14 11 22.5t22 8.5h315q12 0 19.5 -8t5.5 -23l-80 -655q-2 -8 -2 -21q0 -45 37 -45q43 0 53 66l80 655q2 15 11 23t22 8h315q12 0 19.5 -8t5.5 -23l-123 -1003q-2 -14 -10.5 -22.5t-22.5 -8.5h-313q-14 0 -21.5 8t-5.5 23l2 12q0 6 -4 8t-8 -4 q-33 -37 -76 -50t-98 -13q-106 0 -177 60t-71 189z" />
<glyph unicode="v" horiz-adv-x="942" d="M111 1030v4q0 14 8 22.5t22 8.5h344q27 0 25 -29l-14 -456q2 -2 6 -2t6 2l98 456q6 29 33 29l344 -4q14 0 19.5 -9.5t1.5 -25.5l-357 -999q-10 -27 -35 -27h-362q-25 0 -29 27z" />
<glyph unicode="w" horiz-adv-x="1296" d="M111 1032q0 33 30 33h297q29 0 29 -29l-10 -463q-2 -2 4 -2t6 2l106 463q8 29 37 29h264q29 0 27 -29l-2 -463q0 -4 4 -4t6 4l105 463q6 29 33 29l290 -4q31 0 23 -33l-332 -1001q-10 -27 -37 -27h-303q-29 0 -29 29l-4 360q2 6 -4 6t-8 -6l-88 -360q-6 -29 -35 -29h-289 q-26 0 -30 27z" />
<glyph unicode="x" horiz-adv-x="958" d="M-14 18q0 10 6 19l276 489q4 6 2 13l-155 489q-2 4 -2 12q0 25 28 25h342q25 0 31 -25l29 -141q2 -6 6 -6t6 6l66 141q10 25 36 25h342q23 0 23 -18q0 -6 -6 -19l-277 -489l-2 -13l158 -489q2 -4 2 -12q0 -25 -29 -25h-342q-25 0 -30 25l-29 149q-2 8 -6 8t-6 -8 l-66 -149q-10 -25 -37 -25h-342q-24 0 -24 18z" />
<glyph unicode="y" horiz-adv-x="911" d="M-31 -377l31 254q4 31 23 31q113 0 160.5 17.5t45.5 74.5l-123 1030v4q0 14 8.5 22.5t22.5 8.5h338q27 0 25 -29l-19 -458q2 2 5 2t6 -2l92 458q6 29 32 29l340 -4q14 0 20.5 -9.5t2.5 -25.5l-377 -1030q-63 -158 -124.5 -240t-174.5 -123t-313 -41h-13q-12 0 -8 31z" />
<glyph unicode="z" horiz-adv-x="757" d="M-20 31l36 297q2 20 17 37l284 340q2 4 0 8t-6 4h-202q-14 0 -21.5 8t-5.5 23l35 286q2 14 11 22.5t24 8.5h632q14 0 21.5 -8t5.5 -23l-37 -297q-2 -16 -16 -37l-303 -340q-4 -4 -2 -8t8 -4h254q12 0 19 -8t5 -23l-34 -286q-2 -14 -10.5 -22.5t-22.5 -8.5h-666 q-14 0 -21.5 8t-4.5 23z" />
<glyph unicode="{" horiz-adv-x="778" d="M88 553l29 242q2 27 33 30q121 18 141 181l49 403q16 123 99 194.5t212 71.5h205q12 0 19.5 -8t5.5 -22l-33 -269q-2 -14 -10.5 -22t-22.5 -8h-22q-33 0 -65 -35t-36 -80l-35 -285q-25 -201 -155 -266q-10 -6 0 -12q92 -51 92 -201q0 -18 -4 -68l-37 -290 q-4 -45 18.5 -80t55.5 -35h22q14 0 21.5 -8.5t5.5 -22.5l-35 -268q-2 -14 -10 -22.5t-23 -8.5h-205q-116 0 -181.5 61.5t-65.5 165.5q0 25 2 39l51 410q2 16 2 43q0 125 -98 139q-27 4 -25 31z" />
<glyph unicode="|" horiz-adv-x="425" d="M-31 -133l205 1659q2 14 10.5 22t22.5 8h313q14 0 21.5 -8t5.5 -22l-203 -1659q-6 -31 -35 -31h-313q-14 0 -21.5 8.5t-5.5 22.5z" />
<glyph unicode="}" horiz-adv-x="778" d="M-18 -305l32 268q6 31 35 31h23q33 0 63.5 34.5t36.5 80.5l37 290q25 205 153 269q10 6 0 12q-92 53 -92 199q0 18 4 67l35 285q6 45 -16.5 80t-54.5 35h-23q-14 0 -21.5 8t-5.5 22l33 269q2 14 11.5 22t23.5 8h205q115 0 180.5 -60.5t65.5 -162.5q0 -29 -2 -43l-50 -403 q-2 -14 -2 -41q0 -123 99 -140q29 -2 24 -30l-28 -242q-2 -27 -33 -31q-119 -18 -142 -182l-49 -410q-16 -121 -100 -193.5t-211 -72.5h-205q-14 0 -21 8.5t-5 22.5z" />
<glyph unicode="~" horiz-adv-x="1011" d="M68 541q0 6 4 18q49 111 142 184.5t192 73.5q41 0 75.5 -13t71.5 -38q12 -8 40 -26.5t48.5 -28t38.5 -9.5q55 0 104 64q12 16 25 16q6 0 16 -6l168 -112q12 -8 13 -23q0 -8 -7 -18q-63 -104 -151 -177t-180 -73q-39 0 -71 12t-65 35q-14 10 -41.5 29.5t-48 28.5t-41.5 9 q-29 0 -61.5 -18t-58.5 -47q-12 -14 -25 -14q-6 0 -16 6l-158 104q-14 8 -14 23z" />
<glyph unicode="&#xa2;" horiz-adv-x="903" d="M57 475q0 16 4 57l45 369q16 129 96.5 220t211.5 126q8 2 8 13l10 139q0 31 31 31h254q29 0 22 -31l-24 -139q0 -10 8 -13q106 -31 164.5 -106.5t58.5 -184.5q0 -18 -4 -55l-4 -45q-2 -14 -11 -23.5t-24 -9.5l-315 -10q-12 0 -19.5 8t-5.5 21l2 28l2 17q0 20 -10 34.5 t-27 14.5q-20 0 -34.5 -18.5t-18.5 -47.5l-39 -307q-4 -29 7.5 -47t31.5 -18q18 0 33.5 18.5t17.5 46.5l4 31q2 14 10.5 22.5t22.5 8.5l314 -4q14 0 21 -8.5t5 -22.5l-8 -58q-16 -135 -95 -224t-208 -122q-12 -4 -12 -12l-9 -139q-2 -31 -32 -31h-252q-31 0 -25 31l25 139 q2 8 -6 12q-109 29 -167.5 102.5t-58.5 186.5z" />
<glyph unicode="&#xa3;" horiz-adv-x="1044" d="M84 590l31 248q2 14 11 22t21 8h91q8 0 12 11l10 94q27 225 155 351t320 126q166 0 259 -98.5t106 -276.5v-4q0 -29 -29 -33l-307 -32h-4q-23 0 -27 28q-2 86 -39 86q-27 0 -38 -28.5t-19 -98.5l-14 -114q0 -10 8 -11h241q12 0 19.5 -8t5.5 -22l-31 -248 q-2 -14 -10 -22.5t-22 -8.5h-240q-8 0 -12 -10l-7 -47q-10 -98 -55 -160q-6 -12 4 -12h467q14 0 21.5 -8.5t5.5 -22.5l-33 -268q-2 -14 -11 -22.5t-22 -8.5h-837q-12 0 -19.5 8t-5.5 23l33 276q2 20 18 39q31 33 43.5 66.5t18.5 89.5l6 47q0 10 -8 10h-90q-14 0 -21.5 8 t-5.5 23z" />
<glyph unicode="&#xa5;" horiz-adv-x="1064" d="M82 236l18 145q2 14 11.5 22.5t21.5 8.5h211q8 0 12 10l4 41q4 10 -8 10h-211q-14 0 -21 8t-5 23l18 145q2 14 11.5 22.5t23.5 8.5h154q10 0 10 12l-135 707v8q0 27 26 27h330q29 0 31 -27l24 -412q2 -6 6 -6t7 6l127 412q8 27 36 27h330q14 0 19.5 -9.5t-0.5 -25.5 l-314 -707q-2 -12 8 -12h146q14 0 21 -8t5 -23l-18 -145q-2 -14 -10 -22.5t-23 -8.5h-203q-10 0 -10 -10l-6 -41q0 -10 8 -10h203q14 0 21.5 -8.5t5.5 -22.5l-19 -145q-2 -14 -10 -22.5t-23 -8.5h-202q-8 0 -13 -10l-18 -160q-2 -14 -11 -22.5t-24 -8.5h-313q-14 0 -21.5 8 t-5.5 23l21 160q0 10 -9 10h-210q-14 0 -21.5 8t-5.5 23z" />
<glyph unicode="&#xa8;" horiz-adv-x="817" d="M138 1300q0 96 61 159t152 63q74 0 118.5 -45t44.5 -117q0 -94 -61 -158.5t-150 -64.5q-75 0 -120 46t-45 117zM550 1300q0 96 61 159t152 63q74 0 118.5 -45t44.5 -117q0 -94 -61 -158.5t-150 -64.5q-75 0 -120 46t-45 117z" />
<glyph unicode="&#xa9;" horiz-adv-x="1513" d="M84 621q0 53 6 108q25 203 137.5 368t287.5 259t378 94q188 0 332.5 -80t224.5 -221t80 -320q0 -47 -6 -100q-27 -215 -140.5 -384t-289.5 -265t-381 -96q-187 0 -329 80.5t-221 225t-79 331.5zM289 647q0 -135 56 -239.5t157.5 -162t234.5 -57.5q148 0 275 69t209 192.5 t100 279.5q4 49 4 72q0 129 -57.5 229t-162 157.5t-237.5 57.5q-145 0 -271 -67.5t-207 -185.5t-97 -263q-4 -29 -4 -82zM573 549q0 23 2 35l33 268q12 98 79 155.5t165 57.5q90 0 142.5 -48t52.5 -132q0 -20 -3 -33q-2 -10 -10 -16.5t-22 -6.5l-127 -6q-33 0 -27 29v12v8 q0 12 -7 21.5t-20 9.5q-12 0 -21 -11t-13 -28l-35 -297v-10q0 -27 24 -27q31 0 37 37v13q2 14 11.5 21t23.5 7l125 -4q14 0 22.5 -6t6.5 -14q-12 -98 -80 -157.5t-166 -59.5q-90 0 -141.5 49t-51.5 133z" />
<glyph unicode="&#xab;" horiz-adv-x="894" d="M86 569q0 12 6 27l168 313q12 23 37 23h244q25 0 24 -19q0 -8 -6 -18l-176 -313l-2 -13l100 -313q2 -4 2 -10q0 -12 -8 -19.5t-20 -7.5h-246q-25 0 -31 25l-90 311q-2 4 -2 14zM424 569q0 12 6 27l168 313q12 23 37 23h244q25 0 24 -19q0 -8 -6 -18l-176 -313l-2 -13 l98 -313q2 -4 2 -12q0 -25 -26 -25h-246q-25 0 -31 25l-90 311q-2 4 -2 14z" />
<glyph unicode="&#xad;" horiz-adv-x="681" d="M51 451l33 266q2 14 11 22.5t22 8.5h551q14 0 21 -8.5t5 -22.5l-32 -266q-2 -14 -11.5 -22.5t-23.5 -8.5h-549q-15 0 -22 8t-5 23z" />
<glyph unicode="&#xae;" horiz-adv-x="858" d="M100 971q0 23 4 67q14 117 79 211t166.5 147.5t217.5 53.5q109 0 192 -46t129 -127t46 -183q0 -18 -4 -56q-14 -125 -80 -223t-167 -153.5t-220 -55.5q-162 0 -262.5 100.5t-100.5 264.5zM250 995q0 -106 64.5 -172.5t166.5 -66.5q117 0 202 78.5t99 203.5q2 12 2 35 q0 100 -65.5 163.5t-169.5 63.5q-82 0 -150.5 -40.5t-108.5 -110.5t-40 -154zM367 872l41 324q2 14 10 22.5t22 8.5h125q51 0 81 -31t30 -80q-1 -78 -58 -115q-4 -2 -7 -5t-1 -7l23 -112v-7q0 -29 -29 -28h-57q-29 0 -31 26l-16 103q0 8 -2 8t-6 -10l-11 -97q-2 -14 -11 -22 t-24 -8h-53q-14 0 -21 8t-5 22zM506 1075q-4 -10 8 -10h14q12 0 21.5 10t11.5 23v4q0 12 -7 19t-17 7h-15q-8 0 -12 -10z" />
<glyph unicode="&#xb4;" horiz-adv-x="489" d="M140 1202q0 4 8 21l133 190q14 20 39 21h242q25 0 24 -17q0 -6 -10 -20l-178 -193q-14 -18 -37 -18h-197q-24 0 -24 16z" />
<glyph unicode="&#xb8;" horiz-adv-x="342" d="M-61 -346l28 127q4 23 35 22q18 0 33.5 14.5t15.5 43.5q0 41 -51 102q-12 8 -12 21q0 16 26 16h166q25 0 35 -16q63 -78 64 -164q0 -43 -17 -88q-47 -131 -196 -131q-51 0 -111 18q-26 6 -16 35z" />
<glyph unicode="&#xbb;" horiz-adv-x="894" d="M53 238q0 6 6 18l177 313q2 6 0 13l-99 313q-2 4 -2 12q0 25 29 25h244q29 0 30 -25l92 -311q2 -4 2 -14q0 -12 -8 -27l-166 -313q-10 -23 -36 -23h-246q-23 1 -23 19zM391 238q0 6 6 18l177 313q2 6 0 13l-99 313q-2 4 -2 12q0 25 29 25h244q29 0 30 -25l92 -311 q2 -4 2 -14q0 -12 -8 -27l-166 -313q-10 -23 -36 -23h-246q-23 1 -23 19z" />
<glyph unicode="&#x2c6;" horiz-adv-x="696" d="M133 1186q0 4 8 20l146 207q14 20 39 21h340q25 0 32 -21l99 -207q4 -12 4 -14q0 -23 -27 -23h-227q-25 0 -31 23l-31 92q-2 12 -12 0l-53 -92q-12 -23 -37 -23h-225q-25 1 -25 17z" />
<glyph unicode="&#x2da;" horiz-adv-x="567" d="M148 1366q0 86 41 158.5t110.5 114.5t151.5 42q104 0 170.5 -66.5t66.5 -170.5q0 -86 -41 -158t-111.5 -114t-152.5 -42q-104 0 -169.5 67t-65.5 169zM338 1395q0 -29 19.5 -49.5t50.5 -20.5q35 0 61.5 27.5t26.5 66.5q0 31 -19.5 51.5t-48.5 20.5q-37 0 -63.5 -28.5 t-26.5 -67.5z" />
<glyph unicode="&#x2dc;" horiz-adv-x="667" d="M139 1292q0 4 4 17q35 80 91.5 120.5t119.5 40.5q66 0 127 -45q6 -4 18.5 -14t25.5 -15t30 -5q37 0 65 30q23 27 41 11l96 -76q10 -6 11 -21q0 -16 -17 -39q-43 -68 -100 -97.5t-115 -29.5q-45 0 -104 31q-14 8 -34.5 21.5t-41.5 13.5q-35 0 -61 -37q-12 -16 -27 -16 q-8 0 -16 6l-101 82q-12 10 -12 22z" />
<glyph unicode="&#x2000;" horiz-adv-x="840" />
<glyph unicode="&#x2001;" horiz-adv-x="1681" />
<glyph unicode="&#x2002;" horiz-adv-x="840" />
<glyph unicode="&#x2003;" horiz-adv-x="1681" />
<glyph unicode="&#x2004;" horiz-adv-x="560" />
<glyph unicode="&#x2005;" horiz-adv-x="420" />
<glyph unicode="&#x2006;" horiz-adv-x="280" />
<glyph unicode="&#x2007;" horiz-adv-x="280" />
<glyph unicode="&#x2008;" horiz-adv-x="210" />
<glyph unicode="&#x2009;" horiz-adv-x="336" />
<glyph unicode="&#x200a;" horiz-adv-x="93" />
<glyph unicode="&#x2010;" horiz-adv-x="681" d="M51 451l33 266q2 14 11 22.5t22 8.5h551q14 0 21 -8.5t5 -22.5l-32 -266q-2 -14 -11.5 -22.5t-23.5 -8.5h-549q-15 0 -22 8t-5 23z" />
<glyph unicode="&#x2011;" horiz-adv-x="681" d="M51 451l33 266q2 14 11 22.5t22 8.5h551q14 0 21 -8.5t5 -22.5l-32 -266q-2 -14 -11.5 -22.5t-23.5 -8.5h-549q-15 0 -22 8t-5 23z" />
<glyph unicode="&#x2012;" horiz-adv-x="681" d="M51 451l33 266q2 14 11 22.5t22 8.5h551q14 0 21 -8.5t5 -22.5l-32 -266q-2 -14 -11.5 -22.5t-23.5 -8.5h-549q-15 0 -22 8t-5 23z" />
<glyph unicode="&#x2013;" horiz-adv-x="765" d="M51 453l33 266q2 14 11 22.5t24 8.5h635q14 0 21 -8.5t5 -22.5l-32 -266q-2 -14 -11.5 -22.5t-23.5 -8.5h-635q-15 0 -22 8t-5 23z" />
<glyph unicode="&#x2014;" horiz-adv-x="1177" d="M51 453l33 266q2 14 11 22.5t24 8.5h1046q12 0 19.5 -8.5t5.5 -22.5l-33 -266q-2 -14 -10 -22.5t-23 -8.5h-1046q-15 0 -22 8t-5 23z" />
<glyph unicode="&#x2018;" horiz-adv-x="458" d="M91 951.5q-5 9.5 1 25.5l199 432q10 25 37 25h233q33 0 25 -33l-129 -430q-10 -29 -35 -29h-309q-17 0 -22 9.5z" />
<glyph unicode="&#x2019;" horiz-adv-x="458" d="M86 975l129 430q10 29 35 29h309q16 0 21.5 -9.5t-0.5 -25.5l-199 -432q-10 -25 -37 -25h-233q-33 0 -25 33z" />
<glyph unicode="&#x201a;" horiz-adv-x="1191" d="M-14 -197l90 494q4 14 13 22.5t24 8.5h268q33 0 22 -35l-172 -494q-10 -27 -34 -26h-187q-30 -1 -24 30z" />
<glyph unicode="&#x201c;" horiz-adv-x="835" d="M91 951.5q-5 9.5 1 25.5l197 432q10 25 37 25h221q33 0 24 -33l-129 -430q-10 -29 -34 -29h-295q-17 0 -22 9.5zM486.5 951.5q-5.5 9.5 0.5 25.5l193 432q10 25 37 25h223q31 0 23 -33l-125 -430q-6 -29 -35 -29h-295q-16 0 -21.5 9.5z" />
<glyph unicode="&#x201d;" horiz-adv-x="835" d="M86 975l125 430q6 29 35 29h295q16 0 21 -9.5t-1 -25.5l-192 -432q-10 -25 -37 -25h-223q-31 0 -23 33zM477 975l129 430q10 29 35 29h295q16 0 21.5 -9.5t-1.5 -25.5l-196 -432q-10 -25 -37 -25h-221q-33 0 -25 33z" />
<glyph unicode="&#x201e;" horiz-adv-x="839" d="M-57 -194l125 430q6 29 35 29h295q16 0 21 -9.5t-1 -25.5l-192 -432q-10 -25 -37 -25h-223q-31 0 -23 33zM334 -194l129 430q10 29 35 29h295q16 0 21.5 -9.5t-1.5 -25.5l-196 -432q-10 -25 -37 -25h-221q-33 0 -25 33z" />
<glyph unicode="&#x2022;" horiz-adv-x="624" d="M66 541q0 88 44 161.5t116.5 117.5t154.5 44q102 0 171 -69.5t69 -176.5q0 -86 -43 -160.5t-116 -119.5t-153 -45q-104 0 -173.5 71.5t-69.5 176.5z" />
<glyph unicode="&#x2026;" horiz-adv-x="1521" d="M37 147q0 96 61 159t152 63q74 0 118.5 -45t44.5 -117q0 -94 -61 -158.5t-150 -64.5q-75 0 -120 46t-45 117zM553 147q0 96 61 159t152 63q74 0 118.5 -45t44.5 -117q0 -94 -61 -158.5t-150 -64.5q-75 0 -120 46t-45 117zM1069 147q0 96 61 159t152 63q74 0 118.5 -45 t44.5 -117q0 -94 -61 -158.5t-150 -64.5q-75 0 -120 46t-45 117z" />
<glyph unicode="&#x202f;" horiz-adv-x="336" />
<glyph unicode="&#x2039;" horiz-adv-x="557" d="M86 569q0 12 6 27l168 313q12 23 37 23h244q25 0 24 -19q0 -8 -6 -18l-176 -313l-2 -13l100 -313q2 -4 2 -10q0 -12 -8 -19.5t-20 -7.5h-246q-25 0 -31 25l-90 311q-2 4 -2 14z" />
<glyph unicode="&#x203a;" horiz-adv-x="557" d="M53 238q0 6 6 18l177 313q2 6 0 13l-99 313q-2 4 -2 12q0 25 29 25h244q29 0 30 -25l92 -311q2 -4 2 -14q0 -12 -8 -27l-166 -313q-10 -23 -36 -23h-246q-23 1 -23 19z" />
<glyph unicode="&#x205f;" horiz-adv-x="420" />
<glyph unicode="&#x20ac;" horiz-adv-x="1013" d="M66 537l16 131q2 14 11 22t22 8h88q8 0 12 11v14q4 10 -8 10h-86q-14 0 -21.5 8.5t-5.5 22.5l17 131q2 14 10 22.5t22 8.5h88q10 0 11 10l10 82q25 199 150.5 315.5t310.5 116.5q158 0 254 -87t104 -243q0 -31 -31 -35l-313 -34h-4q-20 0 -25 26q-4 43 -26 43 q-33 0 -43 -76l-13 -108q-4 -10 9 -10h235q33 0 21 -35l-54 -131q-6 -27 -34 -27h-193q-10 0 -10 -10l-2 -14q0 -10 8 -11h174q14 0 20.5 -9t0.5 -25l-52 -132q-4 -12 -14 -19t-23 -7h-129q-8 0 -12 -10l-12 -109q-2 -10 -2 -27q0 -47 26 -47q23 0 33 37q12 29 39 27 l299 -47q29 -6 21 -35q-51 -145 -165 -228t-268 -83q-166 0 -262 97t-96 265q0 49 4 74l10 76q0 10 -8 10h-88q-14 0 -21.5 8t-4.5 23z" />
<glyph unicode="&#x2122;" horiz-adv-x="1112" d="M137 1292l13 111q6 31 34 31h437q14 0 21 -8.5t5 -22.5l-14 -111q-2 -14 -10.5 -22t-22.5 -8h-113q-8 0 -12 -11l-61 -506q-2 -14 -11.5 -22t-23.5 -8h-135q-12 0 -19.5 8t-5.5 22l62 506q0 10 -9 11h-108q-14 0 -21.5 8t-5.5 22zM612 745l80 658q2 14 11.5 22.5 t23.5 8.5h137q25 0 33 -21l47 -88q4 -10 10 0l70 88q14 21 39 21h135q12 0 19.5 -8.5t5.5 -22.5l-80 -658q-2 -14 -11.5 -22t-23.5 -8h-135q-12 0 -19.5 8t-5.5 22l47 385q0 6 -4 8.5t-8 -3.5l-43 -56q-12 -18 -25 -30h-2l-47 90q-2 6 -6 4t-6 -8l-47 -390q-2 -14 -11.5 -22 t-21.5 -8h-135q-14 0 -21.5 8t-5.5 22z" />
<glyph unicode="&#x25fc;" horiz-adv-x="1064" d="M0 0v1065h1065v-1065h-1065z" />
</font>
</defs>
</svg>
