<?xml version="1.0" standalone="no"?>
<!DOCTYPE svg PUBLIC "-//W3C//DTD SVG 1.1//EN" "http://www.w3.org/Graphics/SVG/1.1/DTD/svg11.dtd" >
<svg xmlns="http://www.w3.org/2000/svg" xmlns:xlink="http://www.w3.org/1999/xlink" version="1.1">
<metadata></metadata>
<defs>
<font id="barlow_condensedXBdIt" horiz-adv-x="868" >
<font-face units-per-em="2048" ascent="1638" descent="-410" />
<missing-glyph horiz-adv-x="397" />
<glyph horiz-adv-x="0" />
<glyph unicode="&#xd;" horiz-adv-x="397" />
<glyph horiz-adv-x="0" />
<glyph horiz-adv-x="0" />
<glyph unicode=" "  horiz-adv-x="397" />
<glyph unicode="&#x09;" horiz-adv-x="397" />
<glyph unicode="&#xa0;" horiz-adv-x="397" />
<glyph unicode="!" horiz-adv-x="575" d="M96 156q0 86 56.5 143t140.5 57q66 0 107.5 -41t41.5 -106q0 -88 -56 -147.5t-138 -59.5q-68 0 -110 43t-42 111zM180 524l72 885q4 25 27 25h282q25 0 21 -25l-142 -885q-2 -10 -9 -17t-17 -7h-213q-11 0 -17 7t-4 17z" />
<glyph unicode="&#x22;" horiz-adv-x="765" d="M133 977l25 430q0 25 24 25h264q25 0 19 -25l-82 -430q-2 -10 -10 -17.5t-19 -7.5h-198q-11 0 -17 7.5t-6 17.5zM543 977l22 430q0 25 27 25h264q25 0 18 -25l-86 -430q-2 -10 -10 -17.5t-18 -7.5h-195q-10 0 -16 7.5t-6 17.5z" />
<glyph unicode="#" horiz-adv-x="1243" d="M59 365l29 239q2 10 9 17.5t18 7.5h121q10 0 14 10l41 160q0 10 -6 10h-78q-10 0 -16.5 7t-4.5 18l29 241q2 10 9 17.5t18 7.5h120q4 0 8.5 3t4.5 7l63 246q6 23 29 22l283 -2q25 0 18 -26l-63 -240q0 -10 6 -10h120q10 0 15 10l63 246q6 23 29 22l283 -2q25 0 18 -26 l-63 -240q-4 -10 6 -10h80q10 0 16 -7.5t4 -17.5l-29 -241q-2 -11 -10 -18t-18 -7h-121q-12 0 -12 -10l-41 -160q-4 -10 6 -10h78q10 0 16 -7.5t4 -17.5l-29 -239q-2 -10 -10 -17.5t-18 -7.5h-119q-12 0 -12 -10l-64 -244q-6 -23 -29 -23h-282q-25 0 -19 27l64 240 q0 10 -6 10h-123q-12 0 -12 -10l-64 -244q-6 -23 -29 -23h-282q-25 0 -19 27l64 240q0 10 -6 10h-80q-10 0 -16.5 7t-4.5 18zM580 639q-4 -10 6 -10h121q10 0 14 10l41 160q0 10 -6 10h-123q-4 0 -8 -3t-4 -7z" />
<glyph unicode="$" horiz-adv-x="903" d="M53 309q0 18 4 56l6 63q2 10 10.5 17.5t18.5 7.5h277q23 0 22 -25l-6 -47l-2 -21q0 -39 19.5 -62.5t50.5 -23.5q39 0 66.5 32t27.5 83q0 39 -32 76t-122 110q-86 70 -137 121.5t-89 126t-38 170.5q0 164 90 283t236 158q8 2 8 10l14 131q2 10 9.5 17t17.5 7h192 q23 0 23 -24l-19 -127q0 -10 7 -12q115 -31 179 -118t64 -212q0 -16 -4 -57l-6 -50q-2 -10 -10 -17t-19 -7h-274q-23 0 -23 24l9 58q4 45 -15.5 73.5t-56.5 28.5q-39 0 -66.5 -34.5t-27.5 -88.5q0 -43 31.5 -83t115.5 -109q104 -88 156.5 -142.5t84.5 -117t32 -142.5 q0 -16 -5 -57q-20 -152 -111 -255t-229 -134q-12 -4 -12 -12l-8 -107q-2 -10 -9 -17t-18 -7h-196q-23 0 -23 24l17 115q2 8 -7 10q-104 33 -163.5 114t-59.5 193z" />
<glyph unicode="%" horiz-adv-x="1511" d="M164 1073q0 100 50 187.5t134 138.5t180 51q119 0 199 -84t80 -207q0 -100 -50 -187t-133 -139.5t-178 -52.5q-122 0 -202 84t-80 209zM233 12q0 8 7 17l893 1388q10 16 32 17h181q18 0 18 -13q0 -6 -6 -16l-893 -1389q-10 -16 -33 -16h-180q-19 0 -19 12zM336 1092 q0 -59 37 -99.5t94 -40.5q68 0 118 56.5t50 130.5q0 59 -37 99t-92 40q-68 0 -119 -55.5t-51 -130.5zM801 272q0 100 51 188.5t135 140.5t178 52q119 0 199 -84t80 -207q0 -100 -50.5 -187t-133 -139t-177.5 -52q-122 0 -202 83t-80 205zM973 295q0 -59 37 -99t94 -40 q67 0 118.5 54t51.5 130q0 59 -38 100t-93 41q-68 0 -119 -56t-51 -130z" />
<glyph unicode="&#x26;" horiz-adv-x="1239" d="M43 289q0 18 4 63q16 131 81 222.5t167 160.5q8 4 4 15q-57 94 -79.5 150t-22.5 110q0 16 4 53q20 174 142 280.5t298 106.5q166 0 268.5 -93t102.5 -249q0 -152 -75 -252t-202 -184q-8 -6 -2 -15q6 -12 23 -36l69 -109q8 -8 15 2q66 76 110 152q12 23 33 10l193 -123 q18 -12 6 -33q-96 -154 -183 -250q-8 -8 -4 -14q25 -35 50.5 -74t52.5 -80l45 -71q4 -9 4 -15t-6 -11t-17 -5h-305q-20 0 -28 14l-33 47q-2 8 -13 5q-160 -86 -335 -86q-172 0 -269.5 78.5t-97.5 230.5zM383 369q0 -45 27.5 -75t85.5 -24q37 6 90 29q10 8 4 14 q-25 33 -31 45l-92 134q-4 8 -12 2q-72 -61 -72 -125zM526 1026q0 -18 8.5 -41.5t32.5 -69.5q6 -6 15 -2q45 35 70.5 72t25.5 80q0 37 -18.5 57.5t-47.5 20.5q-39 0 -62.5 -34t-23.5 -83z" />
<glyph unicode="'" horiz-adv-x="372" d="M133 979l25 430q0 25 24 25h281q12 0 17 -6.5t3 -18.5l-88 -432q-2 -10 -10 -16.5t-18 -6.5h-209q-21 0 -25 25z" />
<glyph unicode="(" horiz-adv-x="681" d="M35 453q0 117 14 233q61 500 342 850q12 14 29 14h276q14 0 18.5 -8t-3.5 -20q-104 -176 -183 -378t-110 -458q-16 -137 -17 -244q0 -172 29 -315t76 -277q2 -4 2 -10q0 -8 -6 -13t-17 -5h-278q-21 0 -27 14q-145 266 -145 617z" />
<glyph unicode=")" horiz-adv-x="681" d="M55.5 -170q-4.5 8 3.5 20q106 180 184.5 381t108.5 455q16 141 17 244q0 174 -29 316.5t-76 275.5l-2 8q0 8 7 14t18 6h276q21 0 27 -14q147 -268 147 -621q0 -113 -14 -227q-63 -508 -344 -852q-8 -14 -29 -14h-276q-14 0 -18.5 8z" />
<glyph unicode="*" horiz-adv-x="718" d="M121 1061q0 12 14 22l148 80q10 6 0 13l-125 75q-18 14 -6 35l84 131q8 10 17 13.5t17 -3.5l115 -77q4 -4 7 -2t5 8l17 145q0 10 8 17.5t18 7.5h135q10 0 16.5 -7.5t4.5 -17.5l-18 -145q0 -12 12 -6l129 77q8 4 14 5q12 0 19 -15l51 -131q2 -4 2 -12q0 -14 -14 -23 l-144 -75q-12 -8 -2 -15l125 -78q10 -6 10 -16q0 -6 -6 -16l-84 -133q-6 -10 -15 -12.5t-20 3.5l-110 78q-4 4 -8.5 2t-4.5 -8l-18 -145q-2 -10 -9 -17.5t-18 -7.5h-135q-10 0 -16 7t-4 18l18 145q2 6 -2 9t-8 -1l-135 -74l-10 -4q-10 0 -19 15l-53 125q-2 4 -2 10z" />
<glyph unicode="+" d="M68 528l24 205q2 10 9.5 17.5t17.5 7.5h235q4 0 7.5 3t3.5 7l30 244q0 10 8.5 17t18.5 7h201q10 0 16 -7t4 -17l-31 -244q0 -10 9 -10h235q10 0 16.5 -7.5t4.5 -17.5l-25 -205q-2 -10 -9 -17t-18 -7h-235q-10 0 -10 -10l-31 -242q-2 -10 -9.5 -17.5t-17.5 -7.5h-200 q-10 0 -16.5 7.5t-4.5 17.5l31 242q0 10 -10 10h-234q-10 0 -16 7t-4 17z" />
<glyph unicode="," horiz-adv-x="442" d="M-10 -190l98 491q2 10 10 17.5t19 7.5h243q12 0 17.5 -7.5t1.5 -19.5l-170 -492q-10 -23 -29 -22h-168q-28 0 -22 25z" />
<glyph unicode="-" horiz-adv-x="669" d="M59 473l31 242q2 10 9 17t18 7h540q10 0 16.5 -7t4.5 -17l-31 -242q0 -10 -8 -17t-18 -7h-541q-10 0 -16.5 7t-4.5 17z" />
<glyph unicode="." horiz-adv-x="466" d="M41 142q0 88 57.5 145t139.5 57q70 0 110.5 -41t40.5 -110q0 -86 -57 -145.5t-137 -59.5q-70 0 -112 43t-42 111z" />
<glyph unicode="/" horiz-adv-x="882" d="M-5 7q-5 7 1 22l633 1384q10 20 28 21h279q12 0 17 -7.5t-1 -21.5l-633 -1385q-6 -20 -26 -20h-281q-12 0 -17 7z" />
<glyph unicode="0" horiz-adv-x="907" d="M51 338q0 20 4 70l76 618q25 195 151 313.5t310 118.5q166 0 262 -97t96 -263q0 -47 -4 -72l-76 -618q-25 -197 -150.5 -315t-309.5 -118q-166 0 -262.5 98.5t-96.5 264.5zM381 360q0 -41 17.5 -66.5t47.5 -25.5q35 0 59.5 33t33.5 86l79 660q2 10 3 30q0 41 -16.5 64.5 t-47.5 23.5q-37 0 -61.5 -32.5t-30.5 -85.5l-82 -660q-2 -8 -2 -27z" />
<glyph unicode="1" horiz-adv-x="583" d="M119 1128l22 218q2 20 23 26l158 55q14 7 30 7h291q10 0 16.5 -7.5t4.5 -17.5l-170 -1384q-2 -10 -9.5 -17.5t-17.5 -7.5h-283q-10 0 -16 7t-4 18l133 1079q0 10 -8 10l-150 -8q-23 0 -20 22z" />
<glyph unicode="2" horiz-adv-x="897" d="M6 25l31 249q2 10 14 31l131 139q213 223 295 330q66 88 99.5 161t33.5 140q0 84 -63 84q-33 0 -57.5 -28.5t-28.5 -73.5l-10 -88q-2 -10 -9.5 -17.5t-17.5 -7.5h-287q-10 0 -16 7t-4 18l12 102q33 170 162 274.5t309 104.5q158 0 252 -93t94 -249q0 -20 -4 -66 q-14 -111 -58 -202.5t-130 -198.5q-68 -84 -226 -246l-88 -92q-4 -4 -3 -8t7 -4h398q10 0 16 -7.5t4 -17.5l-28 -241q-2 -10 -9.5 -17.5t-17.5 -7.5h-778q-23 0 -23 25z" />
<glyph unicode="3" horiz-adv-x="884" d="M39 293q0 27 2 41q2 35 10 108q4 25 27 25h280q23 0 23 -21q0 -23 -3 -44t-3 -40q0 -41 16.5 -63.5t46.5 -22.5q33 0 56.5 24t33.5 65l19 133l4 45q6 49 6 96q0 35 -17.5 55.5t-45.5 20.5q-33 0 -72 -33q-12 -8 -19 -8q-4 0 -16 8l-125 156q-6 10 -6 16q0 8 10 18 l266 261q10 12 -2 12h-342q-10 0 -16 7t-4 17l29 240q2 10 9 17.5t17 7.5h725q10 0 16.5 -7.5t4.5 -17.5l-29 -248q-2 -14 -16 -28l-246 -256q-8 -12 2 -13q88 -6 140 -86t44 -192q0 -39 -8 -125l-20 -133q-27 -154 -145 -249t-288 -95q-166 0 -265 85t-99 224z" />
<glyph unicode="4" horiz-adv-x="1009" d="M29 377l24 205q4 20 8 28l353 803q10 20 28 21h301q12 0 16.5 -8.5t0.5 -20.5l-309 -733q-6 -12 6 -13h135q10 0 10 11l23 176q2 10 9 17t17 7h283q10 0 16 -7t4 -17l-22 -176q0 -10 10 -11h66q10 0 16 -7t4 -17l-33 -258q-2 -10 -9 -17.5t-17 -7.5h-66q-10 0 -10 -10 l-39 -317q-2 -10 -9 -17.5t-18 -7.5h-282q-10 0 -16.5 7t-4.5 18l39 317q0 10 -10 10h-504q-10 0 -16 7.5t-4 17.5z" />
<glyph unicode="5" horiz-adv-x="892" d="M53 324l4 57q4 25 27 25h283q18 0 20 -19v-12v-23q0 -78 57 -78q68 0 84 84q6 31 15 93q2 16 4 36.5t2 42.5q2 37 -14.5 59.5t-47.5 22.5q-55 0 -75 -49q-10 -23 -29 -22h-285q-10 0 -16 7t-4 17l102 844q2 10 9.5 17.5t17.5 7.5h754q10 0 16 -7.5t4 -17.5l-29 -242 q-2 -10 -9 -17t-17 -7h-439q-10 0 -10 -10l-37 -289q0 -6 4.5 -7t8.5 3q78 66 174 65q123 0 190.5 -76.5t67.5 -216.5q0 -20 -4 -61q-1 -30 -9 -100l-16 -117q-23 -164 -143.5 -257t-302.5 -93q-170 0 -263.5 85t-93.5 255z" />
<glyph unicode="6" horiz-adv-x="894" d="M57 324q0 45 6 96l78 659q18 170 141.5 270.5t305.5 100.5q158 0 254 -86t96 -231q0 -16 -4 -54l-10 -75q-2 -10 -9.5 -17.5t-17.5 -7.5h-283q-10 0 -16 7t-4 18l6 53l2 20q0 31 -15.5 52.5t-35.5 21.5q-31 0 -53.5 -25.5t-28.5 -68.5l-25 -201q0 -12 13 -4q78 59 159 59 q129 0 200 -81.5t71 -225.5q0 -37 -2 -55q-3 -26 -11 -98l-14 -113q-25 -168 -144.5 -261t-301.5 -93q-172 0 -267.5 86t-89.5 254zM385 360q-2 -41 14.5 -63.5t46.5 -22.5q31 0 51.5 24t28.5 64l17 113l10 109q2 37 -14.5 59.5t-42.5 22.5q-31 0 -52.5 -22.5t-29.5 -61.5 l-17 -107z" />
<glyph unicode="7" horiz-adv-x="837" d="M109 1063l45 346q2 10 9 17.5t17 7.5h754q10 0 17 -7.5t5 -17.5l-30 -252l-8 -29l-461 -1108q-6 -20 -27 -20h-299q-12 0 -16 8t0 21l454 1101q6 12 -6 13h-168q-8 0 -12 -10l-8 -70q-2 -10 -9.5 -17.5t-17.5 -7.5h-219q-10 0 -16.5 7.5t-3.5 17.5z" />
<glyph unicode="8" horiz-adv-x="886" d="M53 342q0 51 4 78q12 111 56 192q39 80 116 123q10 6 2 15q-63 45 -84 124q-16 59 -16 119q0 23 4 64q12 106 58 184q55 102 159.5 161.5t231.5 59.5q123 0 213 -56t121 -165q18 -55 18 -125q0 -137 -62 -239q-43 -78 -116 -125q-10 -11 0 -15q61 -43 84 -121 q16 -61 16 -127q0 -20 -4 -69q-10 -96 -57 -187q-57 -115 -163 -182t-233 -67t-217 66.5t-121 182.5q-10 43 -10 109zM379 362q0 -41 15.5 -64.5t41.5 -23.5q31 0 52.5 26t31.5 69q8 42 10 71q6 51 5 82q2 41 -13.5 64.5t-44.5 23.5q-27 0 -48 -24.5t-32 -65.5 q-12 -63 -12 -74q-6 -45 -6 -84zM453 952q0 -39 15 -61.5t42 -22.5q29 0 50.5 23.5t29.5 62.5q12 57 12 68q4 47 2 65q0 39 -14.5 61.5t-42.5 22.5q-27 0 -47.5 -23.5t-30.5 -60.5q-8 -28 -14 -63q-4 -51 -2 -72z" />
<glyph unicode="9" horiz-adv-x="886" d="M45 303q0 16 4 53l10 74q2 10 9.5 17.5t17.5 7.5h283q10 0 16 -7.5t4 -17.5l-6 -51l-2 -21q0 -33 15.5 -54t35.5 -21q31 0 53.5 26.5t28.5 69.5l23 196q2 6 -2.5 7.5t-8.5 -2.5q-74 -57 -159 -58q-127 0 -199 82t-72 225q0 37 2 56q2 31 11 100q4 37 16 111 q23 168 142.5 261t303.5 93q166 0 261.5 -82t95.5 -244q0 -49 -6 -110l-80 -658q-19 -170 -141.5 -271t-305.5 -101q-160 0 -255 86t-95 233zM430 852q-2 -39 14.5 -60.5t44.5 -21.5q31 0 51.5 21.5t28.5 60.5l15 106q6 49 12 115q4 41 -12.5 64.5t-44.5 23.5 q-31 0 -52.5 -24.5t-31.5 -65.5l-6 -51l-9 -62q-2 -12 -10 -106z" />
<glyph unicode=":" horiz-adv-x="591" d="M106 156q0 88 57.5 145t139.5 57q70 0 110.5 -41t40.5 -110q0 -86 -57 -145.5t-137 -59.5q-70 0 -112 43t-42 111zM188 820q0 88 57.5 145t139.5 57q70 0 110.5 -41t40.5 -110q0 -86 -57 -145.5t-137 -59.5q-70 0 -112 43t-42 111z" />
<glyph unicode=";" horiz-adv-x="487" d="M6 -188l92 487q2 10 10.5 17.5t18.5 7.5h244q12 0 18 -7.5t0 -19.5l-164 -487q-6 -23 -28 -23h-172q-25 0 -19 25zM113 786q0 59 31.5 111.5t83 83.5t102.5 31q68 0 117 -50.5t49 -123.5q0 -90 -63.5 -156t-151.5 -66q-74 0 -121 49.5t-47 120.5z" />
<glyph unicode="&#x3c;" d="M59 475l31 250q4 18 23 29l780 342q8 4 12 4q18 0 15 -23l-35 -272q0 -20 -21 -29l-456 -170q-12 -6 0 -12l413 -170q16 -8 15 -29l-35 -272q-2 -14 -10.5 -19.5t-18.5 0.5l-698 342q-14 8 -15 29z" />
<glyph unicode="=" d="M46 350l26 205q2 10 9.5 17.5t17.5 7.5h737q10 0 16.5 -7.5t4.5 -17.5l-25 -205q-2 -10 -10 -17t-19 -7h-735q-22 -1 -22 24zM89 712l26 205q2 10 9.5 17.5t17.5 7.5h737q10 0 16.5 -7.5t4.5 -17.5l-25 -205q-2 -10 -10 -17t-19 -7h-735q-22 -1 -22 24z" />
<glyph unicode="&#x3e;" d="M16 123l35 272q2 20 21 29l456 170q12 6 0 12l-413 170q-16 8 -15 29l35 272q2 14 10.5 19.5t18.5 -0.5l698 -342q14 -8 15 -29l-31 -250q-4 -18 -23 -29l-780 -342q-8 -4 -12 -4q-18 0 -15 23z" />
<glyph unicode="?" horiz-adv-x="917" d="M111 1010v6q16 129 84.5 228t176 154.5t238.5 55.5q174 0 273.5 -95t99.5 -255q0 -20 -4 -62q-12 -92 -46 -156.5t-76 -105.5t-103 -88t-94 -83t-39 -87l-5 -28q-2 -10 -9 -17.5t-17 -7.5h-281q-10 0 -16 7t-4 18l6 49q14 111 66.5 175t142.5 132q74 55 107.5 96 t33.5 103q0 45 -21.5 70.5t-60.5 25.5q-49 0 -81.5 -36t-41.5 -93l-2 -23q-2 -23 -26 -22l-281 12q-10 0 -16 8t-4 19zM240 145q0 88 56 145.5t138 57.5q70 0 112 -41t42 -110q0 -86 -58.5 -145.5t-138.5 -59.5q-67 0 -109 43t-42 110z" />
<glyph unicode="@" horiz-adv-x="1509" d="M61 387q0 96 29 217q53 221 187.5 395.5t318.5 272.5t381 98q162 0 284.5 -64.5t191.5 -181t69 -272.5q0 -88 -25 -190q-51 -207 -174 -322t-285 -115q-137 0 -202 82q-6 6 -15 -2q-37 -45 -84 -61.5t-88 -16.5q-102 0 -149 59.5t-47 141.5q0 16 4 45l14 66l18 79 q6 35 16.5 71t12.5 44q37 131 102.5 189.5t167.5 58.5q63 0 97 -49q10 -12 12 2l4 10q6 23 27 23h170q25 0 18 -27l-84 -336q-10 -35 -10 -72q0 -47 20.5 -69.5t55.5 -22.5q55 0 99 65.5t69 164.5q18 78 18 143q0 160 -96 253t-256 93q-135 0 -262 -72.5t-220.5 -201.5 t-134.5 -291q-20 -82 -20 -160q0 -119 49 -200.5t126 -121.5t163 -40q68 0 124 21.5t111 58.5q8 6 17 6q8 0 14 -13l62 -141q2 -4 2 -10q0 -14 -15 -23q-184 -115 -379 -114q-145 0 -260.5 63.5t-181.5 184t-66 282.5zM672 457q0 -47 43 -47q22 0 39.5 18t27.5 49l31 127 q18 84 29 115q2 8 2 22q0 43 -41 43q-25 0 -42.5 -17t-27.5 -48l-31 -127l-28 -115q-2 -8 -2 -20z" />
<glyph unicode="A" horiz-adv-x="1009" d="M-6 27l457 1384q6 23 28 23h324q25 0 24 -23l115 -1384v-7q0 -20 -22 -20h-289q-23 0 -23 23l-4 178q2 4 -2 7t-8 3h-215q-12 0 -12 -10l-45 -178q-6 -23 -29 -23h-283q-25 0 -16 27zM444 483q1 -10 7 -10h133q10 0 10 10l-14 467q0 8 -4.5 8t-8.5 -8z" />
<glyph unicode="B" horiz-adv-x="948" d="M33 25l170 1384q2 10 9 17.5t17 7.5h351q186 0 291.5 -82t105.5 -246q0 -45 -4 -70q-25 -197 -160 -288q-10 -6 -4 -13q115 -94 115 -262q0 -20 -4 -65q-21 -197 -151 -302.5t-314 -105.5h-402q-10 0 -16 7t-4 18zM397 303q-4 -10 9 -10h59q57 0 95 51t38 143 q0 59 -24.5 94t-67.5 35h-62q-10 0 -10 -10zM467 870q-4 -10 8 -10h37q63 0 99 46t36 128q0 53 -25.5 81t-74.5 28h-37q-8 0 -12 -10z" />
<glyph unicode="C" horiz-adv-x="933" d="M59 336q0 23 4 67l78 629q23 193 150 305.5t315 112.5q172 0 271.5 -93t99.5 -255q0 -20 -4 -70l-2 -18q-2 -10 -9.5 -17.5t-17.5 -7.5l-285 -12q-23 0 -20 24l8 56q1 8 1 15q0 38 -18 60q-20 28 -59 27q-39 0 -65.5 -27.5t-32.5 -74.5l-84 -682q-1 -8 -1 -15 q0 -35 16 -58q20 -28 59 -28t66.5 28t33.5 73l6 59q2 10 9.5 17.5t17.5 7.5l281 -13q23 0 22 -24l-4 -19q-23 -190 -151 -304.5t-316 -114.5q-172 0 -270.5 94t-98.5 258z" />
<glyph unicode="D" horiz-adv-x="952" d="M33 25l170 1384q2 10 9 17.5t17 7.5h379q176 0 276.5 -92.5t100.5 -251.5q0 -18 -4 -60l-78 -627q-23 -182 -150.5 -292.5t-320.5 -110.5h-379q-10 0 -16 7t-4 18zM397 301q-3 -10 9 -10l55 2q43 2 75.5 38t41.5 95l69 582q2 10 2 28q0 49 -23.5 78t-62.5 29h-53 q-8 0 -12 -10z" />
<glyph unicode="E" horiz-adv-x="876" d="M33 25l170 1384q2 10 9 17.5t17 7.5h715q23 0 23 -25l-31 -242q-2 -10 -9 -17t-18 -7h-399q-8 0 -12 -10l-31 -259q0 -10 8 -10h219q10 0 16.5 -7t4.5 -17l-31 -244q0 -10 -8 -17.5t-19 -7.5h-217q-8 0 -12 -10l-31 -260q-4 -10 9 -10h399q10 0 16 -7.5t4 -17.5l-28 -241 q-2 -10 -10.5 -17.5t-18.5 -7.5h-715q-10 0 -16 7t-4 18z" />
<glyph unicode="F" horiz-adv-x="847" d="M33 25l170 1384q2 10 9 17.5t17 7.5h715q23 0 23 -25l-31 -242q-2 -10 -9 -17t-18 -7h-399q-8 0 -12 -10l-31 -259q0 -10 8 -10h219q10 0 16.5 -7t4.5 -17l-31 -244q0 -10 -8 -17.5t-19 -7.5h-217q-8 0 -12 -10l-66 -536q-2 -10 -9 -17.5t-17 -7.5h-283q-10 0 -16 7 t-4 18z" />
<glyph unicode="G" horiz-adv-x="940" d="M57 324q0 18 4 63l82 662q20 184 147.5 292.5t315.5 108.5q172 0 272.5 -92t100.5 -250q0 -18 -4 -64l-10 -75q-2 -10 -9.5 -17.5t-17.5 -7.5h-283q-10 0 -16 7t-4 18l10 80l2 20q0 41 -20.5 65.5t-55.5 24.5q-39 0 -65.5 -30.5t-32.5 -79.5l-82 -664l-2 -23 q0 -41 20.5 -64.5t53.5 -23.5q39 0 66.5 31t33.5 80l17 131q4 10 -9 10h-51q-10 0 -16 7.5t-4 17.5l26 217q0 10 8.5 17.5t18.5 7.5h367q10 0 16 -7.5t4 -17.5l-47 -381q-20 -184 -148.5 -293.5t-316.5 -109.5q-172 0 -271.5 91t-99.5 249z" />
<glyph unicode="H" horiz-adv-x="960" d="M33 25l170 1384q2 10 9 17.5t17 7.5h283q10 0 16.5 -7.5t3.5 -17.5l-65 -535q0 -10 8 -10h143q8 0 13 10l65 535q0 10 8.5 17.5t18.5 7.5h281q23 0 22 -25l-170 -1384q-2 -10 -10 -17.5t-19 -7.5h-280q-10 0 -16.5 7t-4.5 18l66 536q0 10 -8 10h-144q-8 0 -12 -10 l-66 -536q-2 -10 -9 -17.5t-17 -7.5h-283q-10 0 -16 7t-4 18z" />
<glyph unicode="I" horiz-adv-x="466" d="M33 25l170 1384q2 10 9 17.5t17 7.5h283q10 0 16.5 -7.5t3.5 -17.5l-170 -1384q-2 -10 -9 -17.5t-17 -7.5h-283q-10 0 -16 7t-4 18z" />
<glyph unicode="J" horiz-adv-x="917" d="M25 324q0 16 4 57l16 133q2 10 9 17.5t18 7.5h282q10 0 16.5 -7.5t4.5 -17.5l-17 -137l-2 -21q0 -37 19.5 -59.5t52.5 -22.5q37 0 64.5 29t31.5 74l127 1032q2 10 9.5 17.5t17.5 7.5h283q10 0 16 -7.5t4 -17.5l-125 -1028q-23 -178 -150.5 -287.5t-314.5 -109.5 q-168 0 -267 92t-99 248z" />
<glyph unicode="K" horiz-adv-x="1003" d="M33 25l170 1384q2 10 9 17.5t17 7.5h283q10 0 16.5 -7.5t3.5 -17.5l-57 -463q0 -8 4 -8t8 6l267 471q10 18 30 19h297q14 0 18.5 -7.5t-3.5 -21.5l-361 -602q-2 -2 -4 -5t0 -7l209 -762l2 -9q0 -8 -7 -14t-17 -6h-300q-23 0 -26 18l-119 480q-2 6 -6 6t-8 -6l-45 -74 q-4 -8 -4 -12l-48 -387q-2 -10 -9 -17.5t-17 -7.5h-283q-10 0 -16 7t-4 18z" />
<glyph unicode="L" horiz-adv-x="866" d="M33 25l170 1384q2 10 9 17.5t17 7.5h283q10 0 16.5 -7.5t3.5 -17.5l-135 -1108q-4 -10 9 -10h405q10 0 16.5 -7.5t3.5 -17.5l-30 -241q0 -10 -8.5 -17.5t-18.5 -7.5h-721q-10 0 -16 7t-4 18z" />
<glyph unicode="M" horiz-adv-x="1107" d="M23 25l170 1384q2 10 9 17.5t17 7.5h279q18 0 28 -17l121 -297q6 -8 12 0l193 297q8 17 31 17h276q10 0 16.5 -7.5t4.5 -17.5l-170 -1384q-2 -10 -9.5 -17.5t-17.5 -7.5h-283q-10 0 -16 7t-4 18l108 878q2 8 -3 9t-9 -5l-170 -250q-8 -16 -12 -16q-6 0 -12 16l-109 250 q-4 6 -7 6t-5 -8l-109 -880q-2 -10 -9 -17.5t-17 -7.5h-283q-10 0 -16.5 7t-3.5 18z" />
<glyph unicode="N" horiz-adv-x="1036" d="M33 25l170 1384q2 10 9 17.5t17 7.5h312q23 0 26 -21l111 -717q0 -6 5 -6t7 8l84 711q2 10 9.5 17.5t17.5 7.5h278q10 0 16.5 -7.5t4.5 -17.5l-170 -1384q0 -10 -8.5 -17.5t-18.5 -7.5h-315q-20 0 -25 20l-110 713q0 6 -5.5 7t-5.5 -7l-84 -708q-2 -10 -9 -17.5t-17 -7.5 h-279q-10 0 -16 7t-4 18z" />
<glyph unicode="O" horiz-adv-x="950" d="M59 340q0 23 4 68l76 618q25 195 153 309.5t320 114.5q174 0 275.5 -96.5t101.5 -261.5q0 -20 -4 -66l-78 -618q-23 -195 -152.5 -309.5t-322.5 -114.5q-174 0 -273.5 95t-99.5 261zM389 371q0 -45 20.5 -71t59.5 -26q43 0 71.5 32t37.5 87l77 647q2 10 2 27 q0 43 -20.5 67.5t-58.5 24.5q-43 0 -72 -32.5t-35 -86.5l-80 -647z" />
<glyph unicode="P" horiz-adv-x="940" d="M29 25l170 1384q2 10 9 17.5t17 7.5h430q156 0 248 -101.5t92 -271.5q0 -49 -4 -76q-25 -195 -142.5 -312.5t-285.5 -117.5h-129q-8 0 -12 -10l-64 -520q-2 -10 -9 -17.5t-17 -7.5h-283q-10 0 -16 7t-4 18zM457 827q0 -10 8 -10h57q62 0 101 52.5t39 146.5q0 61 -27 94 t-74 33h-55q-10 0 -10 -10z" />
<glyph unicode="Q" horiz-adv-x="927" d="M61 354q0 20 5 70l71 586q25 199 152 319.5t313 120.5q168 0 265.5 -99.5t97.5 -267.5q0 -49 -4 -73l-72 -586q-18 -145 -95 -251.5t-196 -154.5q-6 -4 -10 -12l-21 -170q-2 -10 -9 -17t-17 -7h-283q-10 0 -16 7t-4 17l20 170q4 6 -6 12q-90 41 -140.5 129.5t-50.5 206.5 zM389 365q0 -41 18.5 -66t49.5 -25q39 0 65.5 32t32.5 81l80 660l2 22q0 41 -19.5 65.5t-52.5 24.5q-35 0 -61.5 -31.5t-30.5 -80.5l-82 -660z" />
<glyph unicode="R" horiz-adv-x="956" d="M33 25l170 1384q2 10 9 17.5t17 7.5h428q158 0 249 -100.5t91 -268.5q0 -49 -4 -76q-14 -115 -66.5 -206t-131.5 -146q-4 -2 -6.5 -5t-0.5 -7l97 -596v-4q0 -25 -23 -25h-291q-22 0 -24 20l-68 543q-2 8 -10 8h-29q-8 0 -12 -10l-66 -536q-2 -10 -9 -17.5t-17 -7.5h-283 q-10 0 -16 7t-4 18zM463 842q0 -10 8 -11h55q61 0 100.5 50.5t39.5 138.5q0 59 -27 91t-74 32h-55q-8 0 -12 -10z" />
<glyph unicode="S" horiz-adv-x="903" d="M53 309q0 18 4 56l6 63q2 10 10.5 17.5t18.5 7.5h277q23 0 22 -25l-6 -47l-2 -21q0 -39 19.5 -62.5t50.5 -23.5q39 0 66.5 32t27.5 83q0 39 -32 76t-122 110q-86 70 -137 121.5t-89 126t-38 170.5q0 133 59.5 237.5t164 162t235.5 57.5q166 0 264 -93t98 -249 q0 -18 -4 -59l-6 -50q-2 -10 -10 -17t-19 -7h-274q-23 0 -23 24l9 58q1 8 1 15q0 34 -16 58q-20 28 -57 29q-39 0 -66.5 -34.5t-27.5 -88.5q0 -43 31.5 -83t115.5 -109q104 -88 156.5 -142.5t84.5 -117t32 -142.5q0 -16 -5 -57q-23 -184 -148.5 -292.5t-307.5 -108.5 q-168 0 -265.5 89t-97.5 236z" />
<glyph unicode="T" horiz-adv-x="962" d="M145 1167l29 242q2 10 10.5 17.5t18.5 7.5h831q10 0 16.5 -7.5t4.5 -17.5l-29 -242q-2 -10 -9 -17t-18 -7h-247q-10 0 -11 -10l-137 -1108q0 -10 -8 -17.5t-18 -7.5h-281q-23 0 -23 25l138 1108q0 10 -9 10h-237q-10 0 -16.5 7t-4.5 17z" />
<glyph unicode="U" horiz-adv-x="954" d="M72 346q0 47 4 72l121 991q2 10 9 17.5t17 7.5h283q10 0 16 -7.5t4 -17.5l-125 -1024l-2 -23q0 -41 19.5 -64.5t52.5 -23.5q39 0 64.5 31t31.5 80l127 1024q0 10 8.5 17.5t18.5 7.5h280q23 0 23 -25l-123 -991q-25 -197 -152.5 -315.5t-314.5 -118.5q-168 0 -265 98 t-97 264z" />
<glyph unicode="V" horiz-adv-x="1003" d="M170 1407q0 27 25 27h307q23 0 22 -23l15 -817q0 -8 5 -7t5 7l207 817q6 23 28 23h299q25 0 17 -27l-453 -1384q-6 -23 -29 -23h-313q-10 0 -16 6t-6 17z" />
<glyph unicode="W" horiz-adv-x="1402" d="M168 1407q0 27 25 27h290q25 0 25 -23l6 -674q0 -6 5 -6t7 6l172 674q6 23 29 23h231q23 0 23 -23l16 -674q2 -6 6.5 -6t4.5 6l166 674q2 23 24 23h287q25 0 18 -27l-426 -1384q-6 -23 -28 -23h-254q-23 0 -23 23l-14 700q0 6 -5 6t-8 -6l-172 -700q-6 -23 -26 -23h-254 q-25 0 -25 23z" />
<glyph unicode="X" horiz-adv-x="972" d="M5 8q-3 8 3 21l350 682q2 6 0 12l-182 682l-2 8q0 8 7 14.5t18 6.5h286q18 0 25 -21l65 -338q0 -8 5.5 -8t7.5 8l145 338q10 20 29 21h287q14 0 17 -8.5t-3 -20.5l-350 -682l-2 -12l182 -682l2 -9q0 -20 -23 -20h-284q-18 0 -23 20l-67 336q0 8 -4.5 7t-6.5 -7l-151 -336 q-6 -20 -29 -20h-284q-15 0 -18 8z" />
<glyph unicode="Y" horiz-adv-x="976" d="M174 1405v8q0 20 23 21h297q18 0 22 -23l45 -450q0 -8 5 -8.5t7 8.5l154 450q10 23 29 23h299q12 0 16 -8.5t-2 -20.5l-389 -860l-2 -13l-64 -503q0 -10 -8 -17.5t-18 -7.5h-281q-22 0 -22 25l63 503l-2 13z" />
<glyph unicode="Z" horiz-adv-x="831" d="M-4 25l31 249q0 8 4 17.5t6 13.5l504 825q2 6 0 9.5t-6 3.5h-379q-10 0 -16.5 7t-4.5 17l31 242q0 10 8 17.5t19 7.5h714q10 0 16.5 -7.5t4.5 -17.5l-31 -250q-2 -14 -12 -31l-506 -825q-6 -12 6 -12h381q23 0 22 -25l-30 -241q-2 -10 -9.5 -17.5t-17.5 -7.5h-715 q-10 0 -16 7t-4 18z" />
<glyph unicode="[" horiz-adv-x="714" d="M-18 -295l237 1929q2 10 9.5 17.5t17.5 7.5h442q10 0 16.5 -7t4.5 -18l-29 -243q-2 -10 -9 -17.5t-18 -7.5h-129q-4 0 -7 -3t-3 -7l-168 -1372q-4 -10 8 -11h127q10 0 16.5 -7t4.5 -17l-29 -244q-2 -10 -9 -17t-18 -7h-444q-10 0 -16 7t-4 17z" />
<glyph unicode="\" horiz-adv-x="882" d="M197 1405v6q0 10 6 16.5t16 6.5h281q18 0 22 -21l293 -1384v-9q0 -20 -22 -20h-281q-18 0 -23 20z" />
<glyph unicode="]" horiz-adv-x="714" d="M90 -295l31 244q2 10 9 17t17 7h127q8 0 13 11l168 1372q0 10 -9 10h-127q-23 0 -22 25l31 243q2 10 9 17.5t17 7.5h443q10 0 17 -7t5 -18l-237 -1929q-2 -10 -9.5 -17t-17.5 -7h-442q-23 0 -23 24z" />
<glyph unicode="^" horiz-adv-x="858" d="M88 610q-4 8 0 21l330 782q10 20 28 21h232q20 0 24 -21l144 -782v-8q0 -20 -23 -21h-227q-23 0 -25 21l-47 419q-2 6 -6 6.5t-6 -6.5l-152 -419q-8 -20 -30 -21h-226q-12 0 -16 8z" />
<glyph unicode="_" d="M-14 25l24 204q2 10 9.5 17.5t17.5 7.5h776q23 0 23 -25l-27 -204q-2 -10 -9 -17.5t-18 -7.5h-776q-10 0 -16 7t-4 18z" />
<glyph unicode="`" horiz-adv-x="464" d="M172 1415q0 8 7.5 13.5t17.5 5.5h221q20 0 27 -17l92 -205q2 -4 2 -10q0 -18 -25 -18h-180q-16 0 -29 14l-129 205q-4 8 -4 12z" />
<glyph unicode="a" horiz-adv-x="899" d="M43 248q0 45 6 90l47 383q45 354 316 354q123 0 170 -98q2 -8 6 -7t6 9l6 55q2 10 9 17.5t18 7.5h282q10 0 16.5 -7.5t4.5 -17.5l-125 -1009q-2 -10 -9.5 -17.5t-17.5 -7.5h-282q-10 0 -16.5 7t-4.5 18l8 53q0 8 -4 8t-8 -6q-70 -96 -192 -96q-236 0 -236 264zM383 365 q-1 -9 -1 -17q0 -29 12 -49q14 -25 42 -25q33 0 55.5 25t26.5 66l39 329q2 6 2 21q0 31 -16.5 50t-42.5 19q-29 0 -50.5 -24.5t-25.5 -65.5z" />
<glyph unicode="b" horiz-adv-x="899" d="M20 25l170 1384q2 10 9.5 17.5t17.5 7.5h283q10 0 16 -7.5t4 -17.5l-51 -422q0 -4 2 -4q6 0 25 18q74 74 176 74q235 0 235 -264q0 -41 -6 -90l-47 -383q-43 -354 -315 -354q-115 0 -170 86q-4 4 -8.5 3t-4.5 -7l-6 -41q-2 -10 -9 -17.5t-17 -7.5h-283q-10 0 -16.5 7 t-4.5 18zM391 344q0 -31 16.5 -50.5t43.5 -19.5q31 0 51 25t26 66l39 329q2 9 2 21q0 33 -15 51t-40 18q-33 0 -54.5 -24.5t-27.5 -65.5l-39 -329q-2 -6 -2 -21z" />
<glyph unicode="c" horiz-adv-x="884" d="M45 283q0 18 4 55l47 383q20 160 138 257t305 97q170 0 264 -81t94 -216q0 -14 -4 -51l-4 -45q-2 -10 -9.5 -17.5t-17.5 -7.5l-284 -12q-23 0 -21 25l4 30q4 35 -12.5 59.5t-44.5 24.5q-31 0 -53.5 -25.5t-26.5 -64.5l-41 -329q-1 -8 -1 -16q0 -30 12 -50q16 -25 46 -25 q31 0 52.5 25t25.5 61l4 31q2 10 9.5 17.5t17.5 7.5l282 -2q10 0 16.5 -7.5t4.5 -17.5l-6 -55q-20 -164 -136 -257t-304 -93q-173 0 -267 78.5t-94 220.5z" />
<glyph unicode="d" horiz-adv-x="899" d="M43 248q0 45 6 90l47 383q45 354 316 354q117 0 170 -90q4 -6 8 -5t4 7l51 422q2 10 9.5 17.5t17.5 7.5h282q10 0 16.5 -7.5t4.5 -17.5l-170 -1384q-2 -10 -9.5 -17.5t-17.5 -7.5h-282q-10 0 -16.5 7t-4.5 18l6 41q0 6 -4 7t-8 -3q-74 -86 -190 -86q-236 0 -236 264z M383 365q-1 -9 -1 -17q0 -29 12 -49q14 -25 42 -25q33 0 55.5 25t26.5 66l39 329q2 6 2 21q0 31 -16.5 50t-42.5 19q-29 0 -50.5 -24.5t-25.5 -65.5z" />
<glyph unicode="e" horiz-adv-x="886" d="M45 283q0 18 4 55l47 383q20 160 138 257t305 97q170 0 264 -81t94 -220q0 -16 -4 -53l-33 -260q0 -10 -8 -17.5t-18 -7.5h-433q-8 0 -12 -10l-6 -61q-1 -8 -1 -16q0 -30 12 -50q16 -25 46 -25q51 0 80 72q6 23 29 23l270 -17q10 0 16.5 -7t4.5 -19q-31 -172 -138.5 -257 t-295.5 -85q-172 0 -266.5 78.5t-94.5 220.5zM416 631q-4 -10 8 -10h117q8 0 12 10l6 63q2 6 2 21q0 31 -15.5 50t-41.5 19q-31 0 -53.5 -25.5t-26.5 -64.5z" />
<glyph unicode="f" horiz-adv-x="606" d="M80 25l98 788q0 10 -10 10h-53q-10 0 -16.5 7.5t-4.5 17.5l23 186q2 10 9 17.5t17 7.5h54q12 0 12 10l8 61q20 170 115.5 239t273.5 69l62 -2q10 0 15 -7.5t3 -17.5l-22 -186q-4 -25 -23 -25q-43 -2 -69.5 -28.5t-30.5 -69.5l-4 -33q0 -10 8 -10h96q10 0 16.5 -7.5 t4.5 -17.5l-23 -186q-2 -10 -9 -17.5t-18 -7.5h-96q-10 0 -10 -10l-98 -788q-2 -10 -9.5 -17.5t-17.5 -7.5h-281q-10 0 -16 7t-4 18z" />
<glyph unicode="g" horiz-adv-x="897" d="M43 254q0 43 6 88l47 379q45 354 316 354q121 0 170 -92q2 -6 6 -5t6 7l6 49q2 10 9 17.5t18 7.5h282q10 0 16.5 -7.5t4.5 -17.5l-119 -973q-29 -233 -152.5 -361t-410.5 -128q-33 0 -107 4q-25 2 -20 27l29 243q2 12 10 18.5t18 4.5l47 -2q135 0 187.5 48t68.5 151 q0 8 -4 9t-10 -5q-74 -82 -188 -82q-236 0 -236 266zM383 369q-1 -9 -1 -17q0 -29 12 -48q14 -23 44 -23q31 0 53.5 24.5t26.5 63.5l39 325q2 6 2 21q0 31 -16.5 50t-42.5 19q-29 0 -50.5 -24.5t-25.5 -65.5z" />
<glyph unicode="h" horiz-adv-x="903" d="M20 25l170 1384q2 10 9.5 17.5t17.5 7.5h283q10 0 16 -7.5t4 -17.5l-51 -416q0 -4 4 -4q6 0 19 12q70 74 174 74q120 0 179.5 -70.5t59.5 -201.5q0 -41 -6 -88l-86 -690q-2 -10 -9 -17.5t-18 -7.5h-282q-10 0 -16.5 7t-4.5 18l82 667q2 10 2 27q0 65 -51 65h-2 q-33 0 -54.5 -24.5t-27.5 -69.5l-82 -665q-2 -10 -9 -17.5t-17 -7.5h-283q-10 0 -16.5 7t-4.5 18z" />
<glyph unicode="i" horiz-adv-x="442" d="M20 25l125 1009q2 10 9.5 17.5t17.5 7.5h283q10 0 16 -7.5t4 -17.5l-125 -1009q-2 -10 -9 -17.5t-17 -7.5h-283q-10 0 -16.5 7t-4.5 18zM170 1307q0 88 56.5 145t138.5 57q68 0 109.5 -41t41.5 -108q0 -88 -56.5 -147.5t-140.5 -59.5q-67 0 -108 43t-41 111z" />
<glyph unicode="j" horiz-adv-x="442" d="M-219 -389l31 239q2 14 11 18.5t27 4.5q86 0 124 40t49 118l122 1003q2 10 9.5 17.5t17.5 7.5h283q10 0 16 -7.5t4 -17.5l-123 -1003q-20 -170 -59 -260t-151 -139q-105 -46 -308 -46h-33q-10 0 -16 7.5t-4 17.5zM172 1307q0 88 57.5 145t139.5 57q68 0 109.5 -41 t41.5 -108q0 -88 -56 -147.5t-140 -59.5q-68 0 -110 43t-42 111z" />
<glyph unicode="k" horiz-adv-x="923" d="M20 25l170 1384q2 10 9.5 17.5t17.5 7.5h283q10 0 16 -7.5t4 -17.5l-76 -627q-2 -8 2.5 -9t8.5 5l166 262q12 18 30 19h289q18 0 18 -12q0 -6 -6 -17l-264 -366q-6 -6 -4 -15l166 -620l2 -9q0 -8 -7 -14t-18 -6h-288q-18 0 -25 20l-65 351q0 8 -5.5 8t-9.5 -6l-45 -72 q-2 -2 -4 -5t-2 -7l-33 -264q-2 -10 -9 -17.5t-17 -7.5h-283q-10 0 -16.5 7t-4.5 18z" />
<glyph unicode="l" horiz-adv-x="436" d="M16 25l170 1384q2 10 9.5 17.5t17.5 7.5h283q10 0 16 -7.5t4 -17.5l-170 -1384q-2 -10 -9 -17.5t-18 -7.5h-282q-10 0 -16.5 7t-4.5 18z" />
<glyph unicode="m" horiz-adv-x="1361" d="M20 25l125 1009q2 10 9.5 17.5t17.5 7.5h283q10 0 16 -7.5t4 -17.5l-2 -20q-2 -6 2 -8t8 2q79 67 178 67h3q158 0 210 -121q0 -2 5 -2q8 0 16 13q87 110 226 110h3q240 0 240 -274q0 -41 -6 -88l-86 -688q-2 -10 -9.5 -17.5t-17.5 -7.5h-282q-10 0 -16.5 7t-4.5 18 l82 663q2 8 2 25q0 35 -14.5 53t-38.5 18q-68 0 -80 -94l-82 -665q-2 -10 -9 -17.5t-18 -7.5h-282q-10 0 -16.5 7t-4.5 18l82 663q2 8 2 25q0 35 -14 53t-39 18q-33 0 -53.5 -24.5t-26.5 -69.5l-82 -665q-2 -10 -9 -17.5t-17 -7.5h-283q-10 0 -16.5 7t-4.5 18z" />
<glyph unicode="n" horiz-adv-x="903" d="M20 25l125 1009q2 10 9.5 17.5t17.5 7.5h283q10 0 16 -7.5t4 -17.5l-6 -41q0 -4 4 -4q6 0 19 12q70 74 174 74q120 0 179.5 -70.5t59.5 -201.5q0 -41 -6 -88l-86 -690q-2 -10 -9 -17.5t-18 -7.5h-282q-10 0 -16.5 7t-4.5 18l82 667q2 10 2 27q0 65 -51 65h-2 q-33 0 -54.5 -24.5t-27.5 -69.5l-82 -665q-2 -10 -9 -17.5t-17 -7.5h-283q-10 0 -16.5 7t-4.5 18z" />
<glyph unicode="o" horiz-adv-x="899" d="M45 283q0 18 4 55l47 383q20 162 138 258t307 96q172 0 267 -81t95 -220q0 -16 -4 -53l-47 -383q-20 -166 -137 -260t-307 -94q-172 0 -267.5 78.5t-95.5 220.5zM383 367q-1 -8 -1 -15q0 -30 14 -51q16 -25 46 -25q33 0 55.5 25t28.5 66l39 327l2 19q0 33 -16 52t-45 19 q-33 0 -55.5 -24.5t-26.5 -65.5z" />
<glyph unicode="p" horiz-adv-x="905" d="M-18 -350l170 1384q2 10 9 17.5t17 7.5h281q10 0 17 -7.5t5 -17.5l-6 -41q0 -4 4 -4q6 0 23 17q71 69 173 69h3q235 0 235 -264q0 -43 -6 -90l-47 -383q-45 -354 -315 -354q-117 0 -170 90q-4 6 -8.5 5t-4.5 -7l-51 -422q-2 -10 -9 -17.5t-17 -7.5h-283q-10 0 -16 7.5 t-4 17.5zM397 344q0 -31 16.5 -50.5t43.5 -19.5q29 0 50 25t25 66l41 329q1 11 1 20q0 27 -10 46q-15 24 -44 24q-33 0 -55.5 -24.5t-26.5 -65.5l-39 -329q-2 -6 -2 -21z" />
<glyph unicode="q" horiz-adv-x="905" d="M43 248q0 41 6 90l47 383q43 354 316 354q115 0 170 -86q4 -4 8 -3t4 7l6 41q2 10 9 17.5t18 7.5h282q10 0 16.5 -7.5t4.5 -17.5l-170 -1384q-2 -10 -9.5 -17.5t-17.5 -7.5h-282q-10 0 -16.5 7.5t-4.5 17.5l51 422q2 6 -2 7t-10 -5q-74 -90 -190 -90q-236 0 -236 264z M383 365q-1 -9 -1 -17q0 -29 12 -49q14 -25 42 -25q33 0 55.5 25t26.5 66l39 329q2 6 2 21q0 31 -16.5 50t-42.5 19q-29 0 -50.5 -24.5t-25.5 -65.5z" />
<glyph unicode="r" horiz-adv-x="667" d="M20 27l125 1007q2 10 9.5 17.5t17.5 7.5h283q10 0 16 -7.5t4 -17.5l-8 -65q-2 -8 1 -9.5t7 5.5q65 108 174 108h2h4q45 0 78 -22q12 -12 8 -31l-82 -289q-6 -23 -28 -16q-29 8 -49 8q-35 0 -66 -12q-37 -12 -64.5 -51t-33.5 -87l-68 -546q-2 -10 -9 -17.5t-17 -7.5h-283 q-10 0 -16.5 7t-4.5 18z" />
<glyph unicode="s" horiz-adv-x="845" d="M31 266q0 27 2 41l2 12q2 10 9 17.5t17 7.5h267q10 0 16 -7t4 -18v-4q-4 -37 17.5 -58t52.5 -21t49 19t18 50q0 33 -32.5 52.5t-98.5 41.5l-39 13q-92 33 -155.5 99.5t-63.5 180.5q0 31 2 47q20 156 133 246t281 90q158 0 249 -82t91 -219q0 -16 -4 -53q-4 -23 -27 -23 h-258q-10 0 -16 7.5t-4 17.5v16q4 33 -11.5 52.5t-44.5 19.5q-35 0 -54 -25.5t-19 -56.5q0 -39 37.5 -63.5t99.5 -44.5q121 -41 194.5 -101.5t73.5 -175.5q0 -164 -119.5 -262t-310.5 -98q-166 0 -262 76.5t-96 205.5z" />
<glyph unicode="t" horiz-adv-x="593" d="M80 848l22 186q2 10 9.5 17.5t17.5 7.5h66q4 0 7 3t3 7l28 227q0 10 8.5 17.5t18.5 7.5h268q10 0 16.5 -7t4.5 -18l-29 -227q0 -10 8 -10h103q10 0 16 -7.5t4 -17.5l-22 -186q-2 -10 -9.5 -17.5t-17.5 -7.5h-102q-10 0 -11 -10l-53 -438l-2 -23q0 -35 17.5 -48t50.5 -11 h8q23 0 22 -25l-30 -243q-2 -10 -9.5 -17.5t-17.5 -7.5h-90q-141 0 -214 40t-73 150q0 16 4 50l72 573q0 10 -10 10h-64q-10 0 -16 7.5t-4 17.5z" />
<glyph unicode="u" horiz-adv-x="903" d="M45 236q0 16 4 57l92 741q2 10 9.5 17.5t17.5 7.5h283q10 0 16 -7.5t4 -17.5l-82 -665q-2 -10 -2 -27q0 -66 53 -66q70 0 82 95l82 663q2 10 9.5 17.5t17.5 7.5h282q10 0 16.5 -7.5t4.5 -17.5l-125 -1009q-2 -10 -9 -17.5t-18 -7.5h-282q-10 0 -16.5 7t-4.5 18l4 26 q0 14 -12 2q-35 -39 -79 -54t-101 -15q-106 0 -176 61t-70 191z" />
<glyph unicode="v" horiz-adv-x="905" d="M115 1034v4q0 23 24 23h310q20 0 20 -23l4 -510q-2 -6 4 -6t6 6l129 510q6 23 27 23l309 -4q27 0 19 -27l-363 -1010q-8 -20 -31 -20h-319q-23 0 -25 20z" />
<glyph unicode="w" horiz-adv-x="1259" d="M115 1034v4q0 23 24 23h269q23 0 22 -23l2 -512q0 -6 5 -6t7 6l131 512q2 23 27 23h240q23 0 22 -23l8 -512q2 -8 7.5 -7t5.5 7l129 512q6 23 26 23l265 -4q25 0 16 -27l-336 -1007q-6 -23 -29 -23h-274q-25 0 -25 23l-10 438q-2 8 -6 8t-6 -8l-115 -438q-6 -23 -28 -23 h-263q-24 0 -24 23z" />
<glyph unicode="x" horiz-adv-x="917" d="M-10 7q-4 7 4 22l282 495q4 6 3 13l-162 493q-2 4 -2 10q0 18 22 19h307q23 0 25 -19l49 -188q4 -14 12 0l95 188q10 18 30 19h306q14 0 18 -7.5t-4 -21.5l-283 -493q-4 -6 -2 -13l162 -495q2 -4 2 -11q0 -18 -25 -18h-305q-20 0 -24 18l-49 195q0 6 -4.5 6t-6.5 -6 l-96 -195q-8 -18 -31 -18h-305q-14 0 -18 7z" />
<glyph unicode="y" horiz-adv-x="878" d="M-27 -383l27 229q4 25 23 25q104 0 153 24.5t57 98.5v12l-124 1028v4q0 23 26 23h303q20 0 21 -23l-2 -538q-2 -6 4 -5t8 7l125 536q6 23 27 23l303 -4q27 0 18 -27l-385 -1050q-59 -154 -117.5 -233t-161 -117t-284.5 -38h-12q-13 0 -9 25z" />
<glyph unicode="z" horiz-adv-x="749" d="M-10 25l33 266q0 10 12 31l323 417q4 4 3 8.5t-7 4.5h-239q-10 0 -16.5 7t-4.5 17l31 258q2 10 9 17.5t18 7.5h624q10 0 16.5 -7.5t4.5 -17.5l-33 -266q-2 -16 -14 -31l-340 -418q-4 -4 -3 -8t7 -4h284q23 0 23 -24l-33 -258q-2 -10 -9 -17.5t-17 -7.5h-652q-10 0 -16 7 t-4 18z" />
<glyph unicode="{" horiz-adv-x="735" d="M88 565l27 217q0 23 26 27q119 12 142 180l49 410q16 121 94 190.5t201 69.5h188q10 0 16.5 -7t4.5 -18l-29 -243q-2 -10 -9 -17.5t-18 -7.5h-30q-37 0 -69 -35t-38 -86l-37 -305q-25 -199 -149 -260q-10 -6 0 -12q88 -49 88 -193q0 -18 -4 -67l-39 -314q-6 -51 16.5 -86 t61.5 -35h28q10 0 16.5 -7t4.5 -17l-29 -244q-2 -10 -9 -17t-18 -7h-190q-111 0 -171 56t-60 159q0 29 2 45l51 415q4 33 4 47q0 125 -100 136q-25 2 -21 26z" />
<glyph unicode="|" horiz-adv-x="399" d="M-23 -139l205 1671q2 10 9.5 17t17.5 7h283q10 0 16 -7t4 -17l-205 -1671q-2 -10 -9 -17.5t-17 -7.5h-283q-10 0 -16.5 7t-4.5 18z" />
<glyph unicode="}" horiz-adv-x="735" d="M-18 -295l30 244q2 10 9.5 17t17.5 7h31q39 0 69.5 35t36.5 86l39 314q25 199 147 260q10 6 0 12q-86 49 -86 192q0 18 5 68l36 305q6 51 -16 86t-59 35h-33q-10 0 -16.5 7t-4.5 18l31 243q2 10 9.5 17.5t17.5 7.5h190q109 0 170.5 -57.5t61.5 -157.5q0 -29 -2 -45 l-50 -410q-4 -33 -4 -47q0 -123 99 -133q25 -2 20 -27l-26 -217q-4 -25 -27 -26q-117 -12 -139 -183l-52 -415q-16 -121 -94 -190.5t-200 -69.5h-191q-10 0 -16 7t-4 17z" />
<glyph unicode="~" horiz-adv-x="993" d="M76 557q45 104 134 174t185 70q43 0 77 -13.5t71 -39.5q10 -6 37.5 -26t51 -29t46.5 -9q55 0 113 72q14 20 32 8l150 -105q16 -14 6 -32q-59 -100 -143 -168t-172 -68q-41 0 -73 13.5t-71 37.5q-10 8 -37.5 27.5t-49 29t-42.5 9.5q-70 0 -133 -72q-16 -20 -33 -8l-141 96 q-16 12 -8 33z" />
<glyph unicode="&#xa2;" horiz-adv-x="884" d="M68 465q0 16 4 57l47 383q16 127 95 216t208 122q10 4 10 12l10 146q4 25 25 24h229q23 0 19 -24l-27 -146q0 -8 8 -12q109 -29 166.5 -102.5t57.5 -177.5q0 -14 -5 -52l-4 -45q-2 -10 -9 -17t-17 -7l-285 -13q-23 0 -20 25l4 31q4 35 -12.5 59.5t-45.5 24.5 q-31 0 -53 -25.5t-27 -64.5l-40 -330q-4 -41 11 -65.5t46 -24.5t52.5 24.5t25.5 61.5l4 30q2 10 9 17.5t17 7.5l283 -2q10 0 16.5 -7t3.5 -18l-6 -55q-16 -131 -95 -218t-206 -118q-10 -4 -10 -12l-10 -141q-2 -25 -27 -25h-227q-20 0 -19 25l23 143q4 8 -6 12 q-109 29 -166 100.5t-57 180.5z" />
<glyph unicode="&#xa3;" horiz-adv-x="1036" d="M102 25l31 247q4 20 14 31q35 35 50.5 75t21.5 101l10 84q4 10 -8 10h-96q-23 0 -23 25l29 223q2 10 9 17.5t18 7.5h96q12 0 12 10l17 131q27 219 148.5 341t305.5 122q158 0 247 -94t101 -269q0 -23 -22 -26l-277 -31h-4q-16 0 -20 23q-6 106 -64 106q-35 -2 -54 -39 t-30 -114l-18 -150q0 -10 8 -10h252q23 0 23 -25l-29 -223q-2 -10 -9 -17.5t-18 -7.5h-252q-8 0 -12 -10l-10 -84q-14 -117 -64 -176q-5 -12 7 -12h485q10 0 16 -7.5t4 -17.5l-28 -241q-2 -10 -9.5 -17.5t-17.5 -7.5h-819q-10 0 -16.5 7t-4.5 18z" />
<glyph unicode="&#xa5;" horiz-adv-x="1060" d="M98 260l17 135q2 10 9 17.5t17 7.5h221q12 0 13 10l6 57q4 10 -8 11h-223q-10 0 -16.5 7t-4.5 17l18 137q0 10 8.5 17.5t18.5 7.5h172q10 0 10 12l-141 709l-2 8q0 20 23 21h299q18 0 22 -23l43 -450q2 -8 6 -8.5t6 8.5l158 450q6 23 29 23h295q26 0 14 -29l-320 -709 q-2 -12 7 -12h172q10 0 16 -7t4 -18l-16 -137q-2 -10 -9.5 -17t-17.5 -7h-221q-8 0 -12 -11l-6 -57q0 -10 8 -10h221q10 0 16 -7t4 -18l-16 -135q-2 -10 -9 -17t-18 -7h-221q-10 0 -10 -11l-25 -196q-2 -10 -9 -17.5t-17 -7.5h-283q-10 0 -16 7t-4 18l24 196q0 10 -10 11 h-221q-10 0 -16.5 7t-4.5 17z" />
<glyph unicode="&#xa8;" horiz-adv-x="778" d="M141 1307q0 88 57.5 145t139.5 57q70 0 110.5 -41t40.5 -110q0 -86 -57 -145.5t-137 -59.5q-70 0 -112 43t-42 111zM532 1307q0 88 57.5 145t139.5 57q70 0 110.5 -41t40.5 -110q0 -86 -57 -145.5t-137 -59.5q-70 0 -112 43t-42 111z" />
<glyph unicode="&#xa9;" horiz-adv-x="1540" d="M96 623q0 53 6 104q25 203 138.5 369t289 260t377.5 94q186 0 331.5 -81t225.5 -223t80 -323q0 -47 -6 -96q-27 -213 -140.5 -382t-289.5 -265t-381 -96q-186 0 -329.5 80.5t-222.5 226t-79 332.5zM279 643q0 -139 59 -246.5t165.5 -168t246.5 -60.5q153 0 284 71.5 t216 199.5t104 288q4 27 4 76q0 133 -59.5 238.5t-167 165t-246.5 59.5q-152 0 -283 -71t-215 -193.5t-102 -274.5q-6 -43 -6 -84zM596 541q0 23 2 34l33 283q12 94 75.5 149.5t157.5 55.5q86 0 136.5 -46t50.5 -126q0 -20 -2 -33q-2 -10 -9.5 -17t-17.5 -7l-119 -5 q-25 0 -22 23l2 18v9q0 16 -9.5 26t-27.5 10t-30.5 -13t-14.5 -32l-39 -309v-10q0 -35 35 -35q20 0 33.5 12.5t15.5 32.5l2 17q2 10 9 17t17 7l119 -6q23 0 21 -21q-10 -94 -76 -151t-160 -57q-84 0 -133 47t-49 127z" />
<glyph unicode="&#xab;" horiz-adv-x="901" d="M100 571q0 12 6 21l185 321q10 18 31 19h225q14 0 18 -7t-4 -22l-192 -321q-2 -6 0 -13l112 -321q2 -4 2 -10q0 -18 -22 -19h-228q-18 0 -24 19l-107 321zM430 571q0 12 6 21l185 321q10 18 30 19h226q14 0 18 -7t-4 -22l-193 -321q-2 -6 0 -13l113 -321q2 -4 2 -10 q0 -18 -22 -19h-228q-18 0 -24 19l-107 321z" />
<glyph unicode="&#xad;" horiz-adv-x="669" d="M59 473l31 242q2 10 9 17t18 7h540q10 0 16.5 -7t4.5 -17l-31 -242q0 -10 -8 -17t-18 -7h-541q-10 0 -16.5 7t-4.5 17z" />
<glyph unicode="&#xae;" horiz-adv-x="860" d="M106 981q0 18 5 63q14 115 78.5 208.5t164 146.5t215.5 53q107 0 189 -46t127 -126t45 -182q0 -35 -2 -54q-14 -123 -80 -220t-165 -152.5t-216 -55.5q-162 0 -261.5 101.5t-99.5 263.5zM244 1001q0 -113 65.5 -181t173.5 -68q119 0 207 81.5t105 210.5q2 12 2 35 q0 104 -67.5 171t-176.5 67q-86 0 -156.5 -42t-111.5 -115t-41 -159zM373 872l41 334q2 10 9 17.5t17 7.5h127q49 0 78 -28.5t29 -76.5q-1 -73 -60 -118q-8 -2 -8 -13l27 -118v-7q0 -23 -23 -22h-61q-18 0 -23 20l-20 113q0 2 -2 5t-4 3q-4 0 -7.5 -3t-3.5 -7l-12 -107 q-2 -10 -9 -17t-17 -7h-58q-10 0 -16 7t-4 17zM502 1077q0 -10 8 -10h20q14 0 25.5 11.5t13.5 25.5v4q0 14 -8 23.5t-22 9.5h-19q-8 0 -12 -11z" />
<glyph unicode="&#xb4;" horiz-adv-x="464" d="M142 1196q0 8 6 16l141 205q10 16 31 17h221q18 0 18 -13q0 -10 -8 -18l-180 -205q-12 -14 -31 -14h-178q-20 0 -20 12z" />
<glyph unicode="&#xb8;" horiz-adv-x="321" d="M-68 -348l29 115q6 23 31 18q45 -4 61 43q4 16 4 22q0 53 -61 119q-8 8 -8 17q0 14 22 14h156q16 0 29 -12q66 -80 65 -170q0 -43 -14 -84q-49 -129 -195 -129q-55 0 -104 16q-17 8 -15 31z" />
<glyph unicode="&#xbb;" horiz-adv-x="901" d="M70 226q-4 7 4 22l190 321q4 6 2 13l-112 321l-2 8q0 20 24 21h225q18 0 25 -19l106 -321v-8q0 -8 -4 -25l-184 -321q-10 -18 -31 -19h-225q-14 0 -18 7zM400 226q-4 7 4 22l190 321q4 6 2 13l-112 321l-2 8q0 20 24 21h225q18 0 25 -19l106 -321v-8q0 -8 -4 -25 l-184 -321q-10 -18 -31 -19h-225q-14 0 -18 7z" />
<glyph unicode="&#x2c6;" horiz-adv-x="651" d="M137 1184q0 8 6 16l152 217q10 16 30 17h306q18 0 26 -17l105 -217q2 -4 2 -10q0 -18 -23 -19h-209q-18 0 -24 19l-39 104q-6 10 -13 0l-63 -104q-12 -18 -31 -19h-207q-18 1 -18 13z" />
<glyph unicode="&#x2da;" horiz-adv-x="557" d="M154 1368q0 82 40 151.5t107.5 110.5t145.5 41q98 0 161.5 -64.5t63.5 -162.5q0 -84 -39 -153.5t-106.5 -109.5t-145.5 -40q-100 0 -163.5 64.5t-63.5 162.5zM324 1395q0 -35 22.5 -57.5t55.5 -22.5q39 0 69.5 31.5t30.5 74.5q0 35 -21.5 57.5t-56.5 22.5 q-41 0 -70.5 -30.5t-29.5 -75.5z" />
<glyph unicode="&#x2dc;" horiz-adv-x="657" d="M148 1309q33 78 88 116.5t114 38.5t125 -47q6 -4 19.5 -14t27 -15.5t27.5 -5.5q43 0 74 37q14 23 32 11l91 -72q8 -8 8 -17q0 -12 -13 -30q-43 -68 -98 -97.5t-110 -29.5q-46 0 -105 33q-14 8 -28.5 18t-24.5 14t-25 4q-39 0 -69 -43q-8 -10 -17.5 -13t-17.5 5l-92 74 q-14 12 -6 33z" />
<glyph unicode="&#x2000;" horiz-adv-x="835" />
<glyph unicode="&#x2001;" horiz-adv-x="1671" />
<glyph unicode="&#x2002;" horiz-adv-x="835" />
<glyph unicode="&#x2003;" horiz-adv-x="1671" />
<glyph unicode="&#x2004;" horiz-adv-x="557" />
<glyph unicode="&#x2005;" horiz-adv-x="417" />
<glyph unicode="&#x2006;" horiz-adv-x="278" />
<glyph unicode="&#x2007;" horiz-adv-x="278" />
<glyph unicode="&#x2008;" horiz-adv-x="208" />
<glyph unicode="&#x2009;" horiz-adv-x="334" />
<glyph unicode="&#x200a;" horiz-adv-x="92" />
<glyph unicode="&#x2010;" horiz-adv-x="669" d="M59 473l31 242q2 10 9 17t18 7h540q10 0 16.5 -7t4.5 -17l-31 -242q0 -10 -8 -17t-18 -7h-541q-10 0 -16.5 7t-4.5 17z" />
<glyph unicode="&#x2011;" horiz-adv-x="669" d="M59 473l31 242q2 10 9 17t18 7h540q10 0 16.5 -7t4.5 -17l-31 -242q0 -10 -8 -17t-18 -7h-541q-10 0 -16.5 7t-4.5 17z" />
<glyph unicode="&#x2012;" horiz-adv-x="669" d="M59 473l31 242q2 10 9 17t18 7h540q10 0 16.5 -7t4.5 -17l-31 -242q0 -10 -8 -17t-18 -7h-541q-10 0 -16.5 7t-4.5 17z" />
<glyph unicode="&#x2013;" horiz-adv-x="761" d="M59 465l29 240q2 10 9 17t18 7h633q10 0 16 -7t4 -17l-29 -240q-2 -10 -10 -17.5t-18 -7.5h-631q-10 0 -16.5 7.5t-4.5 17.5z" />
<glyph unicode="&#x2014;" horiz-adv-x="1177" d="M59 465l29 240q2 10 9 17t18 7h1048q10 0 16.5 -7t4.5 -17l-31 -240q-2 -10 -9 -17.5t-18 -7.5h-1046q-10 0 -16.5 7.5t-4.5 17.5z" />
<glyph unicode="&#x2018;" horiz-adv-x="417" d="M89 963.5q-5 7.5 3 21.5l195 428q10 20 28 21h215q25 0 17 -27l-133 -428q-6 -23 -29 -23h-279q-12 0 -17 7.5z" />
<glyph unicode="&#x2019;" horiz-adv-x="417" d="M84 983l133 428q6 23 29 23h282q13 0 17 -8.5t-2 -20.5l-197 -428q-10 -20 -29 -21h-213q-25 0 -20 27z" />
<glyph unicode="&#x201a;" horiz-adv-x="1191" d="M-10 -190l98 491q2 10 10 17.5t19 7.5h243q12 0 17.5 -7.5t1.5 -19.5l-170 -492q-10 -23 -29 -22h-168q-28 0 -22 25z" />
<glyph unicode="&#x201c;" horiz-adv-x="772" d="M89 963.5q-5 7.5 3 21.5l195 428q10 20 28 21h205q25 0 17 -27l-136 -428q-6 -23 -28 -23h-267q-12 0 -17 7.5zM459 985l192 428q6 20 27 21h205q25 0 18 -27l-131 -428q-6 -23 -29 -23h-268q-26 0 -14 29z" />
<glyph unicode="&#x201d;" horiz-adv-x="772" d="M84 983l133 428q6 23 29 23h268q26 0 14 -29l-192 -428q-6 -20 -29 -21h-203q-25 0 -20 27zM451 983l133 428q6 23 28 23h269q26 0 14 -29l-195 -428q-10 -20 -28 -21h-205q-25 0 -16 27z" />
<glyph unicode="&#x201e;" horiz-adv-x="772" d="M-59 -186l133 428q6 23 29 23h268q26 0 14 -29l-192 -428q-6 -20 -29 -21h-203q-25 0 -20 27zM308 -186l133 428q6 23 28 23h269q26 0 14 -29l-195 -428q-10 -20 -28 -21h-205q-25 0 -16 27z" />
<glyph unicode="&#x2022;" horiz-adv-x="616" d="M70 539q0 84 43 154.5t112.5 112.5t149.5 42q100 0 166.5 -68.5t66.5 -171.5q0 -82 -42 -153.5t-111.5 -114.5t-147.5 -43q-102 0 -169.5 69.5t-67.5 172.5z" />
<glyph unicode="&#x2026;" horiz-adv-x="1468" d="M41 142q0 88 57.5 145t139.5 57q70 0 110.5 -41t40.5 -110q0 -86 -57 -145.5t-137 -59.5q-70 0 -112 43t-42 111zM541 142q0 88 57.5 145t139.5 57q70 0 110.5 -41t40.5 -110q0 -86 -57 -145.5t-137 -59.5q-70 0 -112 43t-42 111zM1042 142q0 88 57.5 145t139.5 57 q70 0 110.5 -41t40.5 -110q0 -86 -57 -145.5t-137 -59.5q-70 0 -112 43t-42 111z" />
<glyph unicode="&#x202f;" horiz-adv-x="334" />
<glyph unicode="&#x2039;" horiz-adv-x="567" d="M96 559v8q0 8 4 25l185 321q10 18 30 19h226q14 0 18 -7t-4 -22l-190 -321q-2 -6 0 -13l110 -321q2 -4 2 -10q0 -18 -22 -19h-228q-18 0 -24 19z" />
<glyph unicode="&#x203a;" horiz-adv-x="575" d="M70 226q-4 7 4 22l190 321q4 6 2 13l-112 321l-2 8q0 20 24 21h225q18 0 25 -19l106 -321v-8q0 -8 -4 -25l-184 -321q-10 -18 -31 -19h-225q-14 0 -18 7z" />
<glyph unicode="&#x205f;" horiz-adv-x="417" />
<glyph unicode="&#x20ac;" horiz-adv-x="1003" d="M80 539l16 125q0 10 8.5 17t18.5 7h94q8 0 12 10l4 35q0 10 -8 10h-96q-10 0 -16.5 7.5t-3.5 17.5l14 123q2 10 9 17t18 7h96q10 0 10 11l14 106q23 193 141.5 305.5t297.5 112.5q156 0 247 -87t95 -241v-4q0 -18 -23 -22l-285 -35h-4q-18 0 -18 24q0 35 -12.5 54.5 t-36.5 19.5q-27 0 -45.5 -27.5t-24.5 -74.5l-16 -131q0 -10 10 -11h258q25 0 16 -26l-49 -125q-10 -20 -30 -21h-218q-10 0 -10 -10l-4 -35q-4 -10 8 -10h197q12 0 16 -8t0 -21l-51 -124q-10 -20 -29 -21h-153q-12 0 -12 -10l-17 -129q-4 -45 7.5 -73t37.5 -28q48 0 68 70 q6 25 28 21l271 -41q23 -4 16 -29q-47 -145 -157.5 -228t-260.5 -83q-158 0 -249 93t-91 255q0 23 5 71l12 101q0 10 -8 10h-97q-10 0 -16 7t-4 18z" />
<glyph unicode="&#x2122;" horiz-adv-x="1095" d="M139 1303l15 106q2 10 9 17.5t17 7.5h430q23 0 23 -25l-15 -106q-2 -10 -9 -17.5t-17 -7.5h-119q-8 0 -12 -10l-64 -529q-2 -10 -9 -17t-17 -7h-127q-10 0 -17.5 7t-5.5 17l66 529q0 10 -8 10h-117q-23 0 -23 25zM606 739l82 670q2 10 9.5 17.5t17.5 7.5h131q18 0 24 -17 l56 -114q2 -6 6 -6.5t6 6.5l82 114q11 17 31 17h127q10 0 16 -7.5t4 -17.5l-82 -670q-2 -10 -9 -17t-17 -7h-127q-23 0 -23 24l51 414q2 8 -2 9t-8 -5l-68 -92q-8 -12 -14 -16h-2l-51 112q-2 6 -6 5t-6 -9l-52 -418q-2 -10 -9 -17t-17 -7h-129q-10 0 -16.5 7t-4.5 17z" />
<glyph unicode="&#x25fc;" horiz-adv-x="1054" d="M0 0v1055h1055v-1055h-1055z" />
</font>
</defs>
</svg>
