<?xml version="1.0" standalone="no"?>
<!DOCTYPE svg PUBLIC "-//W3C//DTD SVG 1.1//EN" "http://www.w3.org/Graphics/SVG/1.1/DTD/svg11.dtd" >
<svg xmlns="http://www.w3.org/2000/svg" xmlns:xlink="http://www.w3.org/1999/xlink" version="1.1">
<metadata></metadata>
<defs>
<font id="barlow_condenseditalic" horiz-adv-x="839" >
<font-face units-per-em="2048" ascent="1638" descent="-410" />
<missing-glyph horiz-adv-x="397" />
<glyph horiz-adv-x="0" />
<glyph unicode="&#xd;" horiz-adv-x="397" />
<glyph horiz-adv-x="0" />
<glyph horiz-adv-x="0" />
<glyph unicode=" "  horiz-adv-x="397" />
<glyph unicode="&#x09;" horiz-adv-x="397" />
<glyph unicode="&#xa0;" horiz-adv-x="397" />
<glyph unicode="!" horiz-adv-x="499" d="M113 104q0 57 36.5 94.5t90.5 37.5q43 0 70.5 -27t27.5 -72q0 -55 -37 -92t-90 -37q-45 0 -71.5 26.5t-26.5 69.5zM213 487l102 926q0 8 6.5 14.5t16.5 6.5h100q20 0 17 -21l-127 -926q-2 -20 -23 -20h-76q-18 0 -16 20z" />
<glyph unicode="&#x22;" horiz-adv-x="466" d="M145 1020l31 381q4 20 23 20h98q10 0 15 -6t3 -14l-63 -381q-2 -20 -23 -21h-67q-19 1 -17 21zM379 1020l33 381q4 20 22 20h101q20 0 16 -20l-62 -381q-2 -20 -22 -21h-70q-20 1 -18 21z" />
<glyph unicode="#" horiz-adv-x="1169" d="M123 430l10 86q4 20 23 21h131q10 0 10 8l86 325q0 8 -4 9h-117q-8 0 -13 6t-3 14l10 88q4 20 23 21h135q10 0 10 8l94 350q2 18 21 18l102 -4q8 0 12 -7t2 -15l-90 -342q0 -8 6 -8h289q10 0 12 8l93 350q6 18 22 18l100 -4q8 0 13.5 -6t1.5 -16l-90 -342q0 -8 6 -8h106 q18 0 19 -21l-13 -88q0 -8 -6 -14t-14 -6h-127q-2 0 -6 -2.5t-4 -6.5l-86 -325q0 -8 6 -8h108q18 0 19 -21l-12 -86q0 -8 -6.5 -14t-16.5 -6h-129q-10 0 -10 -9l-92 -350q-6 -18 -23 -18l-100 4q-8 0 -13.5 6t-3.5 16l91 342q0 8 -5 9h-290q-10 0 -11 -9l-92 -350 q-6 -18 -22 -18l-101 4q-10 0 -14 7t-2 15l90 342q0 8 -6 9h-113q-20 0 -16 20zM440 545q0 -8 4 -8h289q10 0 10 8l86 325q2 2 0 5.5t-4 3.5h-288q-10 0 -11 -9z" />
<glyph unicode="$" horiz-adv-x="827" d="M82 287q0 18 4 59l6 47q4 20 23 21h96q10 0 15 -6.5t3 -14.5l-6 -41q-2 -14 -2 -41q0 -92 45 -146t121 -54q84 0 146.5 63.5t76.5 167.5q2 14 2 39q0 55 -23.5 99t-58 79t-118.5 107q-82 68 -129 116.5t-78 113.5t-31 148q0 170 90 278t232 126q8 0 8 8l16 152 q2 8 8.5 14t14.5 6h69q10 0 15.5 -6t3.5 -14l-21 -156q-2 -6 4 -10q102 -20 159.5 -98t57.5 -199q0 -20 -4 -66l-6 -51q-4 -20 -22 -20h-99q-18 0 -18 20l6 53q4 33 4 47q0 90 -45 142.5t-121 52.5q-82 0 -139 -58.5t-72 -164.5q-2 -14 -2 -41q0 -74 41 -128t150 -147 q96 -82 146 -132t78 -107.5t28 -132.5q0 -16 -4 -58q-19 -145 -102 -242.5t-204 -119.5q-6 -2 -10 -10l-16 -144q-4 -20 -23 -20h-69q-18 0 -19 20l21 139q0 8 -6 9q-113 16 -177.5 96t-64.5 205z" />
<glyph unicode="%" horiz-adv-x="1552" d="M244 1122q0 88 44 164t116.5 121t154.5 45q104 0 174 -72.5t70 -181.5q0 -88 -44 -164t-117 -120t-155 -44q-106 0 -174.5 72t-68.5 180zM317.5 7q-4.5 7 4.5 18l899 1394q8 14 26 15h64q12 0 16 -7.5t-4 -17.5l-901 -1395q-6 -14 -25 -14h-63q-12 0 -16.5 7zM332 1133 q0 -76 47 -126.5t121 -50.5q55 0 105 33t80 86t30 115q0 76 -46 126t-120 50q-57 0 -107.5 -31.5t-80 -86t-29.5 -115.5zM848 236q0 86 44 161.5t116.5 120.5t154.5 45q104 0 174 -72.5t70 -181.5q0 -88 -44 -163.5t-116.5 -119.5t-154.5 -44q-107 0 -175.5 72.5 t-68.5 181.5zM936 246q0 -78 47 -128t121 -50q55 0 105.5 31.5t80 86t29.5 117.5q0 74 -47 124t-119 50q-88 0 -152.5 -68.5t-64.5 -162.5z" />
<glyph unicode="&#x26;" horiz-adv-x="1077" d="M78 256q0 18 4 63q16 137 92 238.5t199 198.5q6 2 2 10q-70 133 -94.5 196.5t-24.5 118.5q0 16 4 54q18 143 108.5 229t219.5 86q117 0 187.5 -72.5t70.5 -191.5q0 -33 -2 -49q-16 -125 -89 -214t-200 -190q-4 -2 -4 -10q55 -96 96 -174l101 -180q2 -2 6 -2t6 2 q39 49 117 166q4 8 12 10t16 -2l70 -45q8 -6 8 -13q0 -6 -6 -16q-82 -131 -156 -215q-2 -6 0 -12l119 -217l4 -11q0 -14 -18 -14h-107q-18 0 -22 12l-68 123q0 4 -4 4t-8 -2q-82 -82 -166 -118.5t-180 -36.5q-137 0 -215 71.5t-78 202.5zM221 285q0 -80 47 -128t133 -48 q66 0 128.5 33.5t127.5 103.5q4 8 2 12l-77 141l-136 240q-4 6 -10 0q-104 -84 -159.5 -165t-55.5 -189zM397 1087q0 -39 18.5 -88t67.5 -147q4 -8 11 -2q102 82 156.5 153.5t54.5 163.5q0 68 -36 109t-94 41q-75 0 -126.5 -63.5t-51.5 -166.5z" />
<glyph unicode="'" horiz-adv-x="235" d="M145 1030l31 379q2 8 8 14.5t15 6.5h106q20 0 17 -21l-62 -379q-2 -20 -22 -20h-74q-19 0 -19 20z" />
<glyph unicode="(" horiz-adv-x="440" d="M18 369q0 143 19 297q31 258 108.5 491.5t178.5 390.5q8 14 24 15h98q10 0 14.5 -7.5t-1.5 -15.5q-88 -164 -160 -394.5t-102 -477.5q-18 -160 -19 -308q0 -160 18.5 -301t51.5 -247v-7q0 -8 -6 -13t-15 -5h-100q-17 0 -23 14q-39 109 -62.5 255.5t-23.5 312.5z" />
<glyph unicode=")" horiz-adv-x="440" d="M67.5 -207q-4.5 6 0.5 17q86 164 158.5 394t103.5 476q18 137 18 311q0 311 -67 549l-2 6q0 16 20 17h100q15 -1 21 -15q41 -109 64.5 -255t23.5 -314q0 -141 -19 -295q-31 -258 -109.5 -492.5t-176.5 -390.5q-12 -14 -27 -14h-94q-10 0 -14.5 6z" />
<glyph unicode="*" horiz-adv-x="716" d="M135 1018q0 10 12 18l218 125q4 2 4 6t-2 7l-187 124q-8 4 -8 12.5t4 16.5l31 49q14 20 29 8l182 -127q10 -4 12 7l27 243q4 20 22 21h51q10 0 15.5 -6t3.5 -15l-31 -243q0 -4 4 -6.5t6 -0.5l211 127q8 4 13 5q12 0 14 -13l20 -49q2 -2 2 -8q0 -14 -12 -21l-217 -124 q-2 -2 -3 -6.5t1 -6.5l186 -125q16 -12 5 -28l-33 -50q-4 -8 -12.5 -10t-16.5 2l-180 129q-2 2 -6 0t-4 -6l-31 -246q-4 -20 -23 -20h-51q-18 0 -18 20l33 246q2 6 -1.5 7t-7.5 -1l-215 -125l-10 -4q-12 0 -16 13l-19 45q-2 4 -2 10z" />
<glyph unicode="+" horiz-adv-x="876" d="M100 616l9 72q4 20 22 21h291q4 0 7 2t3 6l37 301q4 20 23 20h71q20 0 17 -20l-37 -301q0 -4 2 -6t4 -2h293q18 -1 18 -21l-10 -72q0 -8 -6 -14t-17 -6h-290q-6 0 -11 -8l-37 -301q0 -8 -6 -14.5t-16 -6.5h-72q-8 0 -13 6.5t-3 14.5l37 301q0 8 -6 8h-293q-20 0 -17 20z " />
<glyph unicode="," horiz-adv-x="352" d="M20 -139l115 438q6 18 23 18h90q20 0 14 -22l-143 -438q-2 -18 -23 -19h-61q-8 0 -12.5 7.5t-2.5 15.5z" />
<glyph unicode="-" horiz-adv-x="622" d="M96 594l10 86q2 8 8.5 14t14.5 6h455q10 0 15 -6t3 -14l-10 -86q-4 -20 -23 -21h-454q-19 1 -19 21z" />
<glyph unicode="." horiz-adv-x="376" d="M51 102q0 57 37 94t90 37q43 0 71 -26.5t28 -71.5q0 -55 -37 -93t-90 -38q-45 0 -72 27.5t-27 70.5z" />
<glyph unicode="/" horiz-adv-x="663" d="M12 23l531 1392q8 18 24 19h101q10 0 14 -6.5t0 -16.5l-530 -1393q-8 -18 -25 -18h-98q-11 0 -16 6t-1 17z" />
<glyph unicode="0" horiz-adv-x="882" d="M102 285q0 20 4 61l91 741q20 164 124.5 265.5t256.5 101.5q137 0 218 -83t81 -224q0 -18 -5 -60l-90 -741q-23 -164 -128 -265t-257 -101q-137 0 -216 82.5t-79 222.5zM244 297q0 -88 45 -139.5t123 -51.5q92 0 153.5 63.5t73.5 168.5l94 758q2 14 2 41q0 88 -46 139 t-126 51q-88 0 -149.5 -63.5t-73.5 -167.5l-94 -758q-2 -14 -2 -41z" />
<glyph unicode="1" horiz-adv-x="507" d="M139 1221v75q0 14 17 25l219 106q12 7 26 7h107q20 0 16 -21l-170 -1393q-4 -20 -22 -20h-101q-10 0 -15 6t-3 14l152 1242q2 4 -1.5 6t-7.5 0l-194 -64l-6 -2q-12 0 -17 19z" />
<glyph unicode="2" horiz-adv-x="798" d="M43 20l10 93q4 18 10 26q289 387 418 578q176 254 176 424q0 84 -38.5 133t-108.5 49q-76 0 -130 -63.5t-65 -163.5l-10 -78q0 -8 -6 -14.5t-16 -6.5h-103q-18 0 -18 21l10 82q23 158 122 254t238 96q123 0 196 -81t73 -216q0 -18 -4 -63q-25 -195 -195 -435 q-61 -88 -278 -387l-97 -131q-6 -10 4 -10h467q10 0 15.5 -6t3.5 -15l-10 -86q-4 -20 -23 -20h-625q-20 0 -16 20z" />
<glyph unicode="3" horiz-adv-x="811" d="M78 254q-4 72 6 158q4 20 22 20h103q8 0 13 -6t3 -14q-6 -49 -6 -88q0 -104 37 -158.5t109 -54.5q125 0 182 151q23 76 39 184q8 59 8 125q0 51 -6 91q-10 66 -46 99.5t-93 33.5q-18 0 -48 -13q-20 -10 -26 2l-45 56q-4 8 -4 14t6 14l315 428q4 2 2 6.5t-6 4.5h-420 q-8 0 -13 6t-3 14l10 86q4 20 23 21h579q18 0 19 -21l-13 -92q0 -6 -10 -27l-295 -397q-2 -2 -2 -6t4 -4q80 -8 130 -66.5t65 -152.5q10 -62 10 -125q0 -49 -6 -109q-12 -111 -47 -198q-88 -252 -324 -252q-125 0 -196.5 71.5t-75.5 198.5z" />
<glyph unicode="4" horiz-adv-x="825" d="M55 414l8 78q4 16 9 24l407 901q10 16 27 17h108q25 0 15 -23l-396 -876q-2 -4 0.5 -7.5t6.5 -3.5h327q8 0 8 8l39 314q4 20 23 20h100q10 0 15.5 -6t3.5 -14l-39 -314q0 -4 2 -6t4 -2h63q9 0 14 -6t3 -14l-10 -90q-4 -20 -23 -21h-61q-4 0 -7.5 -2t-3.5 -6l-45 -365 q0 -8 -6 -14t-16 -6h-101q-20 0 -16 20l43 365q2 2 0 5t-6 3h-479q-20 0 -17 21z" />
<glyph unicode="5" horiz-adv-x="813" d="M106 270l3 62q0 20 20 20h100q20 0 21 -20v-49q8 -172 145 -172q129 0 183 163q20 61 34 164q8 82 9 113q0 27 -5 63q-8 70 -44.5 107t-96.5 37q-137 0 -188 -142q-8 -18 -25 -18h-102q-10 0 -15.5 6t-3.5 14l99 795q0 8 6 14.5t16 6.5h561q18 0 19 -21l-13 -86 q0 -8 -6 -14t-14 -6h-434q-8 0 -8 -9l-66 -507q0 -4 3 -6.5t7 1.5q39 49 94.5 75t120.5 26q106 0 165 -65.5t67 -188.5q4 -41 4 -70q0 -33 -8 -127q-12 -98 -33 -170q-37 -137 -125 -209.5t-217 -72.5q-127 0 -197.5 71.5t-75.5 214.5z" />
<glyph unicode="6" horiz-adv-x="813" d="M113 315q0 57 8 113l80 672q20 160 118.5 255t241.5 95q117 0 188.5 -79t71.5 -212q0 -18 -4 -59l-4 -33q-4 -20 -22 -20h-103q-20 0 -16 20l4 29q2 14 2 43q0 80 -38 130t-95 50q-78 0 -133.5 -61.5t-67.5 -161.5l-35 -275q0 -4 3 -5t7 3q33 41 79 62.5t100 21.5 q121 0 190.5 -75.5t73.5 -209.5q2 -16 2 -55q0 -63 -8 -127q-14 -100 -27 -151q-35 -147 -125 -224t-223 -77q-123 0 -193.5 71.5t-72.5 210.5q-2 16 -2 49zM254 287q12 -176 143 -176q66 0 114 47t75 139q20 83 28 149q8 74 9 109q0 23 -5 68q-16 154 -139 153 q-129 0 -182 -162q-20 -63 -33 -168q-12 -90 -10 -159z" />
<glyph unicode="7" horiz-adv-x="727" d="M156 1214l24 199q0 8 6.5 14.5t16.5 6.5h606q10 0 15 -6.5t3 -14.5l-12 -94q0 -6 -2 -12.5t-4 -12.5l-496 -1276q-2 -8 -8 -13t-14 -5h-111q-24 0 -14 23l496 1275q2 2 -0.5 5.5t-6.5 3.5h-364q-8 0 -8 -9l-11 -84q-4 -20 -22 -20h-78q-20 0 -16 20z" />
<glyph unicode="8" d="M106 305q0 47 7 96q14 127 65 222q43 86 127 131q8 6 2 12q-61 35 -92 111q-23 61 -22 139q0 20 4 69q16 125 69 209q45 76 121 118t168 42q94 0 158.5 -40t93.5 -116q27 -63 27 -139q0 -35 -7 -76q-12 -121 -65 -202q-49 -74 -121 -115q-10 -6 -2 -12q68 -39 90 -117 q20 -59 21 -145q0 -43 -7 -93q-12 -109 -51 -194q-47 -104 -130 -162.5t-187 -58.5q-100 0 -168 57t-90 162q-10 51 -11 102zM248 328q0 -25 4 -70q8 -70 45 -108.5t94 -38.5q61 0 107.5 39.5t74.5 113.5q25 70 33 144q4 29 4 79q0 63 -10 97q-29 119 -137 118 q-109 0 -166 -127q-33 -74 -45 -167q-4 -57 -4 -80zM332 1022q0 -68 16 -102q29 -100 129 -101q55 0 97 29t69 80q37 63 45 147q4 41 4 58q0 55 -18 98q-33 96 -133 96q-51 0 -91 -26.5t-67 -75.5q-51 -88 -51 -203z" />
<glyph unicode="9" horiz-adv-x="800" d="M76 274q0 18 4 60l4 33q4 20 22 20h103q20 0 16 -20l-2 -29q-2 -14 -2 -43q0 -80 37 -130t94 -50q78 0 134.5 61.5t68.5 161.5l33 274q0 10 -8 2q-72 -84 -181 -84q-121 0 -190.5 76t-73.5 209q-4 96 6 182q14 100 27 152q35 147 125 224t223 77q123 0 193.5 -71.5 t72.5 -211.5q2 -16 2 -49q0 -57 -8 -112l-80 -672q-20 -160 -118.5 -255t-241.5 -95q-117 0 -188.5 78.5t-71.5 211.5zM274 879q0 -23 5 -68q8 -76 43.5 -115t95.5 -39q129 0 184 162q18 66 31 168q12 90 10 160q-12 176 -143 176q-66 0 -114 -47t-75 -139q-20 -84 -28 -150 q-8 -74 -9 -108z" />
<glyph unicode=":" horiz-adv-x="419" d="M73 106q0 57 37 94t90 37q43 0 71 -26.5t28 -71.5q0 -55 -37 -93t-90 -38q-45 0 -72 27.5t-27 70.5zM157 795q0 57 37 94t90 37q43 0 71 -26.5t28 -71.5q0 -55 -37 -93t-90 -38q-45 0 -72 27.5t-27 70.5z" />
<glyph unicode=";" horiz-adv-x="382" d="M33 -133l94 424q6 18 25 18h88q8 0 13 -6t1 -16l-119 -422q-6 -18 -24 -19h-60q-10 0 -15 6.5t-3 14.5zM143 815q0 55 39 96t88 41q39 0 67 -29.5t28 -74.5q0 -55 -38 -96t-87 -41q-43 0 -70 29.5t-27 74.5z" />
<glyph unicode="&#x3c;" horiz-adv-x="876" d="M88 516l10 98q4 16 19 25l757 360l11 5q6 0 9 -5.5t1 -13.5l-12 -100q0 -14 -17 -25l-626 -289q-10 -6 -2 -12l557 -289q12 -10 10 -24l-12 -101q-2 -10 -9.5 -15t-15.5 1l-670 361q-14 8 -10 24z" />
<glyph unicode="=" horiz-adv-x="876" d="M75 428l11 72q0 8 6 14.5t16 6.5h711q20 0 16 -21l-8 -72q-4 -20 -23 -20h-710q-19 0 -19 20zM127 850l11 72q0 8 6 14.5t16 6.5h711q20 0 16 -21l-8 -72q-4 -20 -23 -20h-710q-19 0 -19 20z" />
<glyph unicode="&#x3e;" horiz-adv-x="876" d="M41 145l12 101q4 16 19 24l626 289q8 6 2 12l-557 289q-12 10 -10 25l12 100q2 10 9.5 15.5t15.5 -1.5l670 -360q12 -10 10 -25l-12 -98q0 -14 -17 -24l-758 -361l-10 -4q-6 0 -10 5t-2 13z" />
<glyph unicode="?" horiz-adv-x="733" d="M143 1032l7 58q20 162 119.5 262t240.5 100q125 0 194.5 -79t69.5 -216q0 -20 -4 -65q-12 -90 -43 -156t-66.5 -107t-93.5 -94q-59 -51 -91 -93t-38 -99l-14 -113q-4 -20 -23 -20h-102q-18 0 -18 20l16 121q10 88 50 144.5t114 123.5q76 70 115.5 126t50.5 147q2 16 2 47 q0 84 -37 132t-100 48q-78 0 -133.5 -63.5t-67.5 -165.5l-8 -64q-4 -20 -23 -20l-100 6q-20 0 -17 20zM203 102q0 55 36.5 93t90.5 38q43 0 70.5 -26.5t27.5 -71.5q0 -55 -36 -93t-89 -38q-45 0 -72.5 27.5t-27.5 70.5z" />
<glyph unicode="@" horiz-adv-x="1511" d="M104 324q0 102 27 215q51 211 176 375.5t295 256t352 91.5q234 0 372 -131.5t138 -354.5q0 -98 -26 -198q-49 -193 -154.5 -300.5t-245.5 -107.5q-131 0 -178 92q-4 6 -10 0q-35 -49 -83 -72.5t-97 -23.5q-80 0 -129 45t-49 123q0 27 6 53l39 160q16 76 36 145 q27 102 91.5 161.5t156.5 59.5q76 0 119 -57q2 -4 5 -2t5 6l4 25q6 18 23 18h63q10 0 14.5 -7t2.5 -15l-103 -418q-8 -33 -8 -66q0 -59 31 -94t88 -35q88 0 157.5 82t106.5 228q23 88 23 176q0 190 -113 299.5t-309 109.5q-152 0 -295 -79.5t-249.5 -224t-152.5 -327.5 q-23 -90 -22 -182q0 -131 52 -228t143.5 -147.5t207.5 -50.5q96 0 180.5 28t141.5 66q4 4 12 5q8 0 15 -9l26 -47q2 -4 2 -10q0 -8 -10 -18q-74 -49 -177.5 -82t-219.5 -33q-143 0 -252 60.5t-168.5 173t-59.5 266.5zM598 358q0 -45 23.5 -71.5t66.5 -26.5q51 0 91 37t57 96 l14 53l33 134l24 108q4 14 4 41q0 43 -22.5 67.5t-65.5 24.5q-51 0 -92 -36.5t-57 -96.5l-17 -67l-18 -82q-23 -98 -37 -146q-4 -25 -4 -35z" />
<glyph unicode="A" horiz-adv-x="813" d="M-10 6q-4 6 0 17l469 1392q4 18 22 19h121q18 0 19 -19l131 -1392q0 -23 -21 -23h-102q-21 0 -21 18l-18 254q0 8 -8 9h-361q-4 0 -7 -2.5t-3 -6.5l-82 -254q-6 -18 -25 -18h-100q-10 0 -14 6zM252 408q0 -9 6 -9h313q6 0 7 9l-60 804q0 6 -2 6.5t-6 -6.5z" />
<glyph unicode="B" horiz-adv-x="890" d="M106 20l170 1393q4 20 23 21h287q154 0 238.5 -80t84.5 -230q0 -20 -4 -65q-27 -229 -205 -314q-4 -2 -4 -4t2 -4q137 -90 138 -280q0 -18 -5 -68q-22 -184 -131.5 -286.5t-271.5 -102.5h-305q-20 0 -17 20zM262 132q2 -3 6 -3h164q107 0 175.5 72.5t84.5 204.5 q4 41 4 57q0 106 -50 164.5t-144 58.5h-166q-8 0 -8 -8l-66 -541q-2 -2 0 -5zM344 800q2 -3 6 -3h158q119 0 189.5 80.5t70.5 222.5q0 98 -52 152.5t-147 54.5h-155q-4 0 -7.5 -2t-3.5 -7l-59 -493q-2 -2 0 -5z" />
<glyph unicode="C" horiz-adv-x="884" d="M106 281q0 16 5 57l94 760q20 160 123.5 256t257.5 96q139 0 220 -80t81 -217q0 -18 -4 -55l-6 -35q0 -8 -6.5 -14.5t-14.5 -6.5l-104 -6q-18 0 -19 21l6 51q2 12 2 37q0 82 -46 130t-126 48q-88 0 -149.5 -59.5t-73.5 -155.5l-96 -782q-2 -12 -2 -33q0 -82 46 -132 t126 -50q90 0 151.5 59t71.5 156l6 51q2 8 8.5 14t14.5 6l102 -6q10 0 15.5 -6t3.5 -14l-5 -33q-20 -162 -124.5 -258t-257.5 -96q-138 0 -219 79.5t-81 217.5z" />
<glyph unicode="D" horiz-adv-x="923" d="M106 20l170 1393q4 20 23 21h305q137 0 216 -83t79 -229q0 -20 -4 -69l-84 -672q-20 -174 -124.5 -277.5t-256.5 -103.5h-307q-21 0 -17 20zM260 135q0 -8 8 -8l174 2q88 0 149.5 68.5t78.5 189.5l80 660q4 41 4 57q0 96 -44 149.5t-122 53.5h-174q-4 0 -7.5 -2t-3.5 -7z " />
<glyph unicode="E" horiz-adv-x="851" d="M106 20l170 1393q4 20 23 21h590q18 0 18 -21l-12 -86q0 -8 -6 -14t-15 -6h-460q-4 0 -7.5 -2t-3.5 -7l-61 -507q-2 -2 0 -5.5t6 -3.5h291q20 0 16 -20l-10 -88q-4 -20 -22 -21h-291q-8 0 -8 -8l-64 -510q0 -8 8 -8h461q20 0 16 -21l-10 -86q-4 -20 -22 -20h-590 q-20 0 -17 20z" />
<glyph unicode="F" horiz-adv-x="802" d="M106 20l170 1393q4 20 23 21h586q18 0 18 -21l-10 -86q-2 -8 -8 -14t-15 -6h-456q-4 0 -7.5 -2t-3.5 -7l-61 -507q-2 -2 0 -5.5t6 -3.5h289q20 0 16 -20l-10 -88q-4 -20 -22 -21h-289q-8 0 -8 -8l-76 -625q-2 -8 -8.5 -14t-14.5 -6h-102q-20 0 -17 20z" />
<glyph unicode="G" horiz-adv-x="894" d="M106 272q0 16 5 54l96 782q20 156 123.5 249t255.5 93q137 0 218 -77t81 -210q0 -16 -4 -57l-11 -88q-4 -20 -22 -21h-103q-8 0 -13 6.5t-3 14.5l10 92q2 12 2 37q0 80 -46 128t-126 48q-88 0 -149.5 -58.5t-73.5 -154.5l-96 -786q-2 -12 -2 -33q0 -82 46 -131t126 -49 q90 0 151.5 58t71.5 155l33 262q0 8 -6 8h-172q-20 0 -17 20l11 86q4 20 22 21h299q18 0 18 -21l-47 -374q-18 -156 -122.5 -249t-255.5 -93q-138 0 -219 77.5t-81 210.5z" />
<glyph unicode="H" horiz-adv-x="937" d="M106 20l170 1393q4 20 23 21h102q8 0 13.5 -6.5t3.5 -14.5l-76 -622q-2 -2 0 -5.5t6 -3.5h354q8 0 9 9l75 622q2 8 8.5 14.5t14.5 6.5h102q20 0 17 -21l-170 -1393q-4 -20 -23 -20h-102q-8 0 -13.5 6t-3.5 14l76 625q2 2 0 5t-6 3h-354q-8 0 -8 -8l-76 -625 q-2 -8 -8.5 -14t-14.5 -6h-102q-20 0 -17 20z" />
<glyph unicode="I" horiz-adv-x="425" d="M106 20l170 1393q4 20 23 21h102q8 0 13.5 -6.5t3.5 -14.5l-170 -1393q-2 -8 -8.5 -14t-14.5 -6h-102q-21 0 -17 20z" />
<glyph unicode="J" horiz-adv-x="845" d="M41 272q0 16 4 58l21 172q4 20 22 20h100q10 0 15.5 -6t3.5 -14l-23 -174q-2 -12 -2 -35q0 -84 44 -133t122 -49q84 0 143.5 60t71.5 157l133 1085q4 20 23 21h100q18 0 19 -21l-133 -1083q-20 -156 -123 -251t-250 -95q-133 0 -212 77.5t-79 210.5z" />
<glyph unicode="K" horiz-adv-x="899" d="M106 20l170 1393q4 20 23 21h102q8 0 13.5 -6.5t3.5 -14.5l-82 -663q0 -6 3 -8.5t7 3.5l465 674q14 14 27 15h110q12 0 15.5 -7.5t-2.5 -17.5l-379 -555q-4 -8 -4 -12l241 -817l2 -7q0 -18 -20 -18h-113q-18 0 -20 16l-201 697q-2 8 -10 0l-148 -197q-2 -2 -2 -10 l-59 -486q-2 -8 -8.5 -14t-14.5 -6h-102q-21 0 -17 20z" />
<glyph unicode="L" horiz-adv-x="786" d="M106 20l170 1393q4 20 23 21h102q8 0 13.5 -6.5t3.5 -14.5l-158 -1278q0 -8 8 -8h455q20 0 16 -21l-10 -86q0 -8 -6 -14t-16 -6h-584q-21 0 -17 20z" />
<glyph unicode="M" horiz-adv-x="1034" d="M102 20l170 1393q4 20 23 21h104q18 0 21 -15l170 -473q0 -4 4 -4t6 4l283 473q8 15 26 15h103q10 0 15 -6.5t3 -14.5l-172 -1393q0 -8 -6 -14t-16 -6h-101q-18 0 -18 20l135 1098q2 6 -1 6t-7 -4l-262 -442q-6 -14 -21 -14q-18 0 -20 14l-154 440q-2 4 -5 4t-5 -6 l-133 -1096q-2 -8 -8.5 -14t-14.5 -6h-102q-20 0 -17 20z" />
<glyph unicode="N" horiz-adv-x="980" d="M106 20l170 1393q4 20 23 21h115q18 0 20 -17l260 -1061q0 -6 4 -5t7 7l129 1055q0 8 6 14.5t16 6.5h98q18 0 19 -21l-172 -1393q-4 -20 -23 -20h-116q-14 0 -21 16l-256 1059q-2 6 -6 5t-4 -7l-127 -1053q-2 -8 -8.5 -14t-14.5 -6h-102q-20 0 -17 20z" />
<glyph unicode="O" horiz-adv-x="905" d="M106 289q0 16 5 53l92 750q20 160 127.5 259t259.5 99q139 0 222 -82t83 -219q0 -16 -4 -57l-92 -750q-20 -162 -128 -260t-261 -98q-140 0 -222 83t-82 222zM250 297q0 -84 47 -135t127 -51q92 0 156.5 62.5t76.5 160.5l95 764q2 12 2 32q0 86 -49.5 139.5t-131.5 53.5 q-88 0 -151.5 -62.5t-75.5 -162.5l-94 -764q-2 -12 -2 -37z" />
<glyph unicode="P" horiz-adv-x="878" d="M104 20l170 1395q4 20 23 21h328q129 0 204.5 -88t75.5 -238q0 -23 -4 -72q-23 -176 -123 -283.5t-243 -107.5h-205q-8 0 -8 -8l-76 -619q-2 -8 -8.5 -14t-14.5 -6h-102q-20 0 -17 20zM338 774q0 -8 6 -8h180q92 0 156.5 73.5t79.5 196.5q4 37 4 56q0 100 -47 158.5 t-125 58.5h-180q-6 0 -11 -9z" />
<glyph unicode="Q" horiz-adv-x="880" d="M109 289q0 18 4 59l90 737q20 162 124.5 263.5t252.5 101.5q133 0 210.5 -83t77.5 -220q0 -20 -4 -62l-90 -737q-16 -139 -97 -235.5t-200 -120.5q-8 -2 -8 -10l-25 -197q-4 -20 -22 -21h-100q-10 0 -15.5 6.5t-3.5 14.5l25 197q0 6 -6 10q-100 23 -156.5 101.5 t-56.5 195.5zM250 295q0 -84 45 -134t121 -50q84 0 143 62.5t72 160.5l94 766q2 14 2 39q0 84 -44 134t-120 50q-84 0 -144.5 -62.5t-72.5 -160.5l-94 -766q-2 -14 -2 -39z" />
<glyph unicode="R" horiz-adv-x="880" d="M106 20l170 1393q4 20 23 21h328q129 0 204.5 -88.5t75.5 -235.5q0 -23 -4 -72q-16 -133 -83.5 -229t-168.5 -135q-8 -2 -8 -10l139 -641v-5q0 -18 -20 -18h-103q-16 0 -22 16l-125 633q0 6 -6 6h-174q-2 0 -5 -2t-3 -6l-76 -627q-2 -8 -8.5 -14t-14.5 -6h-102 q-20 0 -17 20zM340 780q0 -4 2 -6t4 -2h180q90 0 156 73t80 193q2 18 2 52q0 100 -46 158.5t-126 58.5h-178q-4 0 -7.5 -2t-3.5 -7z" />
<glyph unicode="S" horiz-adv-x="827" d="M82 287q0 18 4 59l6 47q4 20 23 21h96q10 0 15 -6.5t3 -14.5l-6 -41q-2 -14 -2 -41q0 -92 45 -146t121 -54q84 0 146.5 63.5t76.5 167.5q2 14 2 39q0 55 -23.5 99t-58 79t-118.5 107q-82 68 -129 116.5t-78 113.5t-31 148q0 18 4 60q20 160 119.5 253t243.5 93 q135 0 212.5 -83t77.5 -222q0 -20 -4 -66l-6 -51q-4 -20 -22 -20h-99q-18 0 -18 20l6 53q4 33 4 47q0 90 -45 142.5t-121 52.5q-82 0 -139 -58.5t-72 -164.5q-2 -14 -2 -41q0 -74 41 -128t150 -147q96 -82 146 -132t78 -107.5t28 -132.5q0 -16 -4 -58q-20 -168 -127 -269 t-254 -101q-131 0 -210 81.5t-79 221.5z" />
<glyph unicode="T" d="M190 1327l11 86q4 20 22 21h666q18 -1 18 -21l-12 -86q0 -8 -6 -14t-15 -6h-262q-4 0 -7 -2t-3 -7l-156 -1278q-2 -8 -8 -14t-14 -6h-102q-20 0 -17 20l156 1278q2 2 0 5.5t-6 3.5h-246q-10 0 -15.5 6t-3.5 14z" />
<glyph unicode="U" horiz-adv-x="946" d="M133 311q0 18 4 68l127 1034q4 20 23 21h102q20 0 17 -21l-130 -1051q-2 -16 -2 -47q0 -92 45.5 -148t124.5 -56q90 0 155 69.5t79 181.5l129 1051q4 20 22 21h103q8 0 13 -6.5t3 -14.5l-127 -1034q-20 -178 -128.5 -286.5t-262.5 -108.5q-137 0 -217 88t-80 239z" />
<glyph unicode="V" horiz-adv-x="872" d="M203 1411q0 23 20 23h113q18 0 18 -19l74 -1145q2 -4 4 -4t4 4l355 1145q4 18 22 19h109q20 0 14 -23l-459 -1393q-6 -18 -24 -18h-113q-17 0 -21 18z" />
<glyph unicode="W" horiz-adv-x="1236" d="M190 1411q0 10 6.5 16.5t14.5 6.5h106q18 0 19 -19l55 -1077q2 -4 4 -4t4 4l293 1077q6 18 23 19h90q18 0 18 -19l37 -1077q2 -8 8 0l303 1077q4 18 23 19h104q10 0 14.5 -6.5t0.5 -16.5l-416 -1393q-6 -18 -25 -18h-98q-16 0 -16 18l-35 1082q-2 4 -4 4t-4 -4 l-295 -1082q-6 -18 -23 -18h-96q-18 0 -18 18z" />
<glyph unicode="X" horiz-adv-x="862" d="M37 7q-4 7 2 18l362 686q2 4 2 12l-194 686l-2 6q0 18 20 19h107q16 0 18 -17l140 -545q2 -6 6 -6t6 6l274 545q8 16 23 17h106q10 0 14.5 -7.5t-1.5 -17.5l-365 -688q-2 -4 -2 -12l197 -684l2 -7q0 -18 -21 -18h-104q-18 0 -21 16l-139 543q-2 6 -6 6t-6 -6l-275 -543 q-6 -16 -22 -16h-107q-10 0 -14 7z" />
<glyph unicode="Y" horiz-adv-x="841" d="M207 1409v6q0 18 18 19h109q6 0 12 -4.5t8 -12.5l121 -600q2 -4 6 -4t6 4l269 600q10 16 26 17h107q10 0 13 -7.5t-1 -17.5l-366 -764q-4 -4 -5 -10l-73 -612q-2 -8 -8.5 -14.5t-14.5 -6.5h-102q-21 1 -17 21l74 612q0 2 1 5t-1 5z" />
<glyph unicode="Z" horiz-adv-x="784" d="M29 20l10 95q4 12 10 24l625 1157q2 4 1 7.5t-5 3.5h-463q-10 0 -15.5 6t-3.5 14l11 86q4 20 22 21h602q18 0 19 -21l-13 -94q0 -4 -8 -25l-624 -1157q-2 -4 0 -7t6 -3h461q20 0 16 -21l-10 -86q-4 -20 -23 -20h-602q-20 0 -16 20z" />
<glyph unicode="[" horiz-adv-x="600" d="M-16 -227l221 1792q0 8 6 14t16 6h308q20 0 16 -20l-10 -86q-4 -20 -23 -21h-178q-8 0 -8 -8l-193 -1563q0 -8 6 -8h183q8 0 13 -6t3 -14l-10 -86q-4 -20 -23 -21h-309q-10 0 -15 6t-3 15z" />
<glyph unicode="\" horiz-adv-x="663" d="M248 1411v4q0 18 22 19h99q16 0 20 -19l189 -1392v-5q0 -8 -6.5 -13t-14.5 -5h-100q-18 0 -19 18z" />
<glyph unicode="]" horiz-adv-x="600" d="M131 -227l10 86q4 20 23 20h182q6 0 10 8l191 1563q2 2 0 5t-6 3h-181q-10 0 -15 6t-3 15l10 86q4 20 23 20h311q8 0 13.5 -6t2.5 -14l-219 -1792q-4 -21 -22 -21h-314q-8 0 -13 6t-3 15z" />
<glyph unicode="^" horiz-adv-x="786" d="M113 651l346 766q6 16 24 17h90q16 0 23 -17l160 -766v-4q0 -18 -19 -18h-82q-16 0 -22 16l-119 621q0 4 -4 4t-6 -4l-273 -621q-6 -16 -24 -16h-82q-22 -1 -12 22z" />
<glyph unicode="_" horiz-adv-x="747" d="M6 20l10 76q0 8 6.5 14.5t16.5 6.5h618q18 0 19 -21l-10 -76q-4 -20 -23 -20h-618q-11 0 -16 6t-3 14z" />
<glyph unicode="`" horiz-adv-x="358" d="M193 1421q0 12 16 13h84q12 0 23 -15l92 -223q2 -4 2 -10q0 -14 -18 -15h-64q-12 0 -22 15l-111 223q-2 4 -2 12z" />
<glyph unicode="a" d="M92 238q0 18 4 59l54 442q18 143 100 228.5t207 85.5q63 0 112 -29t74 -86q2 -6 6 -5t4 7l11 76q4 20 22 20h100q18 0 19 -20l-123 -996q-4 -20 -23 -20h-100q-10 0 -15 6t-3 14l10 76q0 6 -4 7t-6 -5q-41 -57 -96.5 -85.5t-118.5 -28.5q-113 0 -173.5 68.5t-60.5 185.5z M236 274q0 -74 40.5 -118.5t108.5 -44.5q76 0 128 54t62 142l54 422q2 12 2 33q0 74 -40 119t-106 45q-76 0 -130 -54.5t-64 -142.5l-53 -422q-2 -12 -2 -33z" />
<glyph unicode="b" d="M84 20l170 1393q2 8 8 14.5t14 6.5h103q20 0 16 -21l-53 -442q-2 -4 2 -6t8 4q43 41 95.5 62.5t105.5 21.5q113 0 178.5 -71t65.5 -189q0 -16 -4 -54l-56 -442q-16 -139 -102 -226t-213 -87q-53 0 -101.5 21.5t-78.5 64.5q-4 4 -7.5 2t-3.5 -6l-6 -46q-4 -20 -22 -20 h-103q-8 0 -13 6t-3 14zM258 270q0 -72 39 -115.5t104 -43.5q76 0 131.5 54t65.5 140l51 424q2 13 2 33q0 74 -40 119t-109 45q-74 0 -127 -54.5t-64 -142.5l-51 -424q-2 -12 -2 -35z" />
<glyph unicode="c" horiz-adv-x="798" d="M94 248q0 33 2 49l54 442q16 139 112 226.5t238 87.5q129 0 204.5 -72t75.5 -178q0 -23 -2 -35l-4 -20q0 -8 -6 -14.5t-14 -6.5l-103 -4q-18 0 -18 20l2 15q2 8 2 22q0 61 -42 103.5t-112 42.5q-76 0 -129 -54.5t-63 -142.5l-53 -422q-2 -12 -2 -33q0 -74 40.5 -118.5 t106.5 -44.5q74 0 129 50t66 118v14q4 20 22 20l102 -2q8 0 13.5 -6t3.5 -14l-2 -23q-16 -123 -112.5 -203.5t-237.5 -80.5q-127 0 -200 71.5t-73 192.5z" />
<glyph unicode="d" d="M92 242q0 18 4 55l54 442q18 143 104 228.5t213 85.5q55 0 102 -21.5t78 -66.5q2 -4 6 -2t4 6l56 444q0 8 6 14.5t16 6.5h101q20 0 16 -21l-170 -1393q-4 -20 -23 -20h-100q-10 0 -15 6t-3 14l6 46q0 4 -3 6t-7 -2q-41 -43 -93.5 -64.5t-107.5 -21.5q-115 0 -179.5 70.5 t-64.5 187.5zM233 274q0 -74 42 -118.5t110 -44.5q76 0 128 54t62 140l54 424q2 12 2 33q0 74 -40 119t-106 45q-76 0 -131 -54.5t-65 -142.5l-53 -424q-2 -10 -3 -31z" />
<glyph unicode="e" horiz-adv-x="808" d="M94 248q0 33 2 49l54 442q16 139 112 226.5t238 87.5q129 0 202.5 -72t73.5 -193q0 -16 -4 -49l-31 -256q-4 -20 -22 -20h-453q-4 0 -7 -2t-3 -6l-18 -150q-2 -10 -2 -33q0 -72 40.5 -116.5t106.5 -44.5q63 0 112.5 39.5t71.5 103.5q10 18 25 18l98 -4q8 0 13.5 -6 t1.5 -16q-29 -121 -118 -191.5t-220 -70.5q-127 0 -200 71.5t-73 192.5zM272 592q0 -8 9 -8h325q8 0 8 8l19 137q2 12 2 33q0 74 -41 119t-111 45q-75 0 -128.5 -54.5t-63.5 -142.5z" />
<glyph unicode="f" horiz-adv-x="550" d="M125 20l111 900q2 2 -0.5 5t-6.5 3h-79q-20 0 -17 20l8 68q0 8 6.5 14t16.5 6h78q4 0 7 2t3 6l8 66q23 178 95.5 258t222.5 80h26q10 0 15.5 -6t3.5 -15l-13 -84q-2 -20 -22 -20h-25q-76 0 -113.5 -52t-52.5 -163l-6 -64q-2 -2 0 -5t6 -3h154q20 0 16 -20l-8 -68 q-4 -20 -22 -20h-152q-4 0 -7 -2t-3 -6l-111 -900q0 -8 -6 -14t-16 -6h-99q-18 0 -18 20z" />
<glyph unicode="g" horiz-adv-x="821" d="M94 246q0 20 4 61l52 432q18 143 101 228.5t208 85.5q61 0 110 -26t76 -77q6 -12 10 2l9 64q4 20 22 20h100q18 0 19 -20l-123 -996q-27 -219 -138 -332q-103 -105 -306 -105q-18 0 -37 1q-20 4 -17 23l11 88q4 20 22 20h15q147 0 216 75q74 79 95 243l8 61q0 4 -3 6 t-7 -2q-41 -51 -96.5 -77.5t-114.5 -26.5q-113 0 -174.5 68.5t-61.5 183.5zM238 283q0 -72 40.5 -117t108.5 -45q74 0 127 54t64 140l51 414q2 12 2 33q0 74 -40 119t-106 45q-76 0 -130 -54.5t-64 -142.5l-51 -414q-2 -10 -2 -32z" />
<glyph unicode="h" horiz-adv-x="841" d="M84 20l170 1393q2 8 8 14.5t14 6.5h103q20 0 16 -21l-55 -463q-2 -4 2 -6t8 4q41 51 97.5 77t119.5 26q107 0 163 -65.5t56 -188.5q0 -23 -4 -72l-86 -705q-4 -20 -22 -20h-103q-8 0 -13 6t-3 14l84 693q4 33 4 47q0 78 -36 121t-103 43q-78 0 -130 -59.5t-65 -162.5 l-84 -682q-4 -20 -22 -20h-103q-8 0 -13 6t-3 14z" />
<glyph unicode="i" horiz-adv-x="411" d="M100 20l121 996q2 8 8.5 14t14.5 6h102q20 0 16 -20l-120 -996q-4 -20 -23 -20h-102q-21 0 -17 20zM219 1339q8 51 43 83t84 32q43 0 69.5 -26.5t26.5 -69.5q0 -57 -35.5 -95t-89.5 -38q-49 1 -75 33q-23 28 -24 68q0 7 1 13z" />
<glyph unicode="j" horiz-adv-x="397" d="M-150 -406l11 87q4 20 22 20q164 6 187 209l137 1106q0 8 6 14t16 6h101q18 0 18 -20l-137 -1106q-20 -168 -94 -252t-248 -84q-10 0 -15.5 6t-3.5 14zM203 1323q0 55 38 93t89 38q45 0 71.5 -26.5t26.5 -69.5q0 -57 -37 -95t-90 -38q-43 0 -70.5 27.5t-27.5 70.5z" />
<glyph unicode="k" horiz-adv-x="804" d="M84 20l170 1393q2 8 8 14.5t14 6.5h103q20 0 16 -21l-100 -823q0 -4 3 -6t7 2l350 438q10 12 27 12h102q12 0 15.5 -7t-4.5 -17l-234 -291q-4 -4 -4 -12l152 -686v-5q0 -18 -19 -18h-106q-16 0 -21 16l-108 570q0 6 -4.5 6t-6.5 -4l-172 -213l-6 -10l-41 -345 q-4 -20 -22 -20h-103q-8 0 -13 6t-3 14z" />
<glyph unicode="l" horiz-adv-x="360" d="M72 20l172 1393q0 8 6 14.5t16 6.5h101q18 0 18 -21l-172 -1393q-4 -20 -23 -20h-100q-10 0 -15 6t-3 14z" />
<glyph unicode="m" horiz-adv-x="1286" d="M84 20l123 996q0 8 6 14t16 6h99q18 0 18 -20l-8 -64q-2 -4 1 -5t7 3q45 51 100.5 76t112.5 25q74 0 125 -38t74 -108q0 -4 4 -4t6 6q45 74 111.5 109t136.5 35q102 0 157.5 -69t55.5 -191q0 -37 -6 -80l-84 -691q-4 -20 -23 -20h-98q-10 0 -15.5 6t-3.5 14l84 678 q2 16 2 50q0 82 -34.5 129t-94.5 47q-76 0 -127 -59.5t-63 -162.5l-84 -682q-4 -20 -23 -20h-100q-10 0 -15 6t-3 14l84 678q2 16 2 50q0 82 -34 129t-93 47q-78 0 -129.5 -59.5t-63.5 -162.5l-84 -682q-4 -20 -22 -20h-101q-8 0 -13 6t-3 14z" />
<glyph unicode="n" horiz-adv-x="841" d="M84 20l123 996q0 8 6 14t16 6h101q18 0 18 -20l-8 -66q-2 -4 2 -6t8 4q41 51 97.5 77t119.5 26q107 0 163 -65.5t56 -188.5q0 -23 -4 -72l-86 -705q-4 -20 -22 -20h-103q-8 0 -13 6t-3 14l84 693q4 33 4 47q0 78 -36 121t-103 43q-78 0 -130 -59.5t-65 -162.5l-84 -682 q-4 -20 -22 -20h-103q-8 0 -13 6t-3 14z" />
<glyph unicode="o" horiz-adv-x="823" d="M94 248q0 33 2 49l54 440q16 139 112 227.5t240 88.5q129 0 202.5 -73t73.5 -194q0 -33 -2 -49l-55 -440q-16 -141 -112.5 -227t-239.5 -86q-129 0 -202 71.5t-73 192.5zM236 274q0 -74 40.5 -117.5t108.5 -43.5q78 0 132 53t65 141l51 422q2 12 2 33q0 74 -41 119 t-109 45q-76 0 -130 -54.5t-64 -142.5l-53 -422q-2 -12 -2 -33z" />
<glyph unicode="p" horiz-adv-x="849" d="M45 -377l172 1393q0 8 6 14t15 6h102q20 0 16 -20l-4 -47q-2 -4 2 -5t8 3q41 43 94.5 64.5t108.5 21.5q113 0 177.5 -71t64.5 -189q0 -16 -4 -54l-55 -442q-16 -143 -102.5 -228t-213.5 -85q-53 0 -101 21.5t-79 66.5q-4 4 -7 2t-3 -6l-56 -445q-4 -20 -22 -20h-103 q-8 0 -13 6t-3 14zM268 272q0 -74 39 -117.5t107 -43.5q76 0 131 54t65 142l52 422q2 13 2 33q0 74 -41 119t-111 45q-74 0 -127 -54.5t-63 -142.5l-52 -422q-2 -12 -2 -35z" />
<glyph unicode="q" horiz-adv-x="849" d="M92 240q0 16 4 57l54 442q16 139 103 226.5t214 87.5q55 0 102 -21.5t78 -64.5q4 -4 7 -2t3 6l7 45q4 20 22 20h100q18 0 19 -20l-172 -1393q-4 -20 -23 -20h-100q-18 0 -18 20l55 445q0 12 -10 4q-41 -45 -93.5 -66.5t-107.5 -21.5q-113 0 -178.5 68.5t-65.5 187.5z M233 274q0 -74 42 -118.5t110 -44.5q76 0 128 54t62 142l54 422q2 12 2 33q0 74 -40 119t-106 45q-76 0 -131 -54.5t-65 -142.5l-53 -422q-2 -10 -3 -33z" />
<glyph unicode="r" horiz-adv-x="581" d="M84 20l123 996q0 8 6 14t16 6h101q18 0 18 -20l-16 -123q0 -6 3 -6t5 4q80 156 209 156q47 0 84 -23q12 -10 6 -27l-37 -106q-6 -18 -24 -12q-23 12 -58 12q-18 0 -26 -2q-70 -4 -125.5 -77t-67.5 -177l-76 -615q-4 -20 -22 -20h-103q-8 0 -13 6t-3 14z" />
<glyph unicode="s" horiz-adv-x="743" d="M72 217q0 27 2 39l2 14q0 8 6 14.5t16 6.5h95q18 0 18 -21l-2 -12q-1 -11 -1 -21q0 -52 34 -90q41 -45 116 -45q78 0 129.5 52.5t51.5 130.5q0 45 -25 76.5t-55.5 49t-100.5 50.5q-66 29 -109.5 57.5t-75.5 77.5t-32 123q0 29 2 45q16 131 104.5 207t221.5 76 q123 0 191.5 -66t68.5 -176q0 -29 -2 -43v-6q-4 -20 -22 -21h-93q-20 0 -16 21v12q2 8 2 25q0 59 -39 97t-104 38q-70 0 -118 -46t-58 -114q-1 -11 -1 -21q0 -36 16 -62q21 -34 56 -56.5t101 -50.5q72 -33 116.5 -63t78.5 -80t34 -124q0 -145 -94 -233t-244 -88 q-127 0 -198.5 61.5t-71.5 165.5z" />
<glyph unicode="t" horiz-adv-x="530" d="M129 948l8 68q0 8 6.5 14t16.5 6h76q4 0 7 2t3 6l28 230q0 8 6.5 14t16.5 6h98q18 0 19 -20l-29 -230q0 -8 6 -8h152q20 0 16 -20l-8 -68q0 -8 -6 -14t-17 -6h-149q-6 0 -10 -8l-76 -627q-4 -37 -4 -51q-1 -66 27 -90q25 -23 77 -23h8h21q8 0 13 -6t3 -14l-10 -89 q-4 -20 -22 -20h-50q-104 0 -158.5 40t-54.5 148q0 16 4 62l82 670q2 2 0 5t-6 3h-78q-20 0 -16 20z" />
<glyph unicode="u" horiz-adv-x="841" d="M102 225q0 16 4 62l91 729q4 20 22 20h100q18 0 19 -20l-86 -697q-4 -37 -4 -49q0 -157 135 -157h2q80 0 132 59t65 162l84 682q0 8 6 14t16 6h100q18 0 19 -20l-123 -996q-4 -20 -22 -20h-101q-10 0 -15 6t-3 14l8 70q2 6 -1 6t-7 -4q-76 -106 -213 -106q-106 0 -167 59 t-61 180z" />
<glyph unicode="v" horiz-adv-x="751" d="M135 1014v4q0 18 19 18h114q16 0 21 -18l73 -776q2 -6 4.5 -6t4.5 6l264 776q6 18 24 18l115 -2q10 0 14.5 -6t-0.5 -16l-366 -994q-6 -18 -25 -18h-118q-21 0 -21 18z" />
<glyph unicode="w" horiz-adv-x="1101" d="M133 1014q0 23 21 22h96q20 0 20 -18l47 -782q0 -4 3.5 -4.5t5.5 4.5l241 782q6 18 25 18h90q18 0 18 -18l52 -782q2 -4 4 -4.5t4 4.5l244 782q4 18 24 18l94 -2q20 0 15 -22l-332 -994q-6 -18 -25 -18h-100q-20 0 -21 18l-55 750q0 6 -2 6t-6 -6l-231 -750 q-6 -18 -25 -18h-100q-19 0 -19 18z" />
<glyph unicode="x" horiz-adv-x="745" d="M7 7q-3 7 1 18l303 487q2 4 2 12l-182 488l-2 8q0 16 18 16h111q20 0 23 -14l127 -365q2 -4 6 -4t6 4l219 365q6 14 25 14h110q10 0 13.5 -7t-1.5 -17l-303 -488q-2 -4 -2 -12l183 -487l2 -9q0 -16 -19 -16h-110q-20 0 -23 14l-127 367q-2 4 -6 4t-6 -4l-217 -367 q-8 -14 -27 -14h-111q-10 0 -13 7z" />
<glyph unicode="y" horiz-adv-x="731" d="M-12 -389l10 82q4 20 22 20q61 2 98.5 24.5t67 80t66.5 176.5q2 2 1 6t1 6l-129 1008v4q0 18 20 18h107q20 0 20 -18l76 -805q0 -6 3 -6t5 6l271 805q6 18 24 18l111 -2q10 0 14 -6t0 -16l-411 -1102q-53 -137 -96.5 -202.5t-101.5 -91.5t-159 -26h-10q-4 0 -8 6.5 t-2 14.5z" />
<glyph unicode="z" horiz-adv-x="716" d="M29 20l12 99q0 10 8 26l500 748q2 4 1 7t-3 3h-383q-8 0 -13.5 6t-3.5 15l11 92q4 20 22 20h537q18 0 18 -20l-12 -98q-4 -20 -10 -27l-502 -748q-4 -4 -2 -7t6 -3h395q20 0 17 -20l-11 -93q-4 -20 -22 -20h-549q-20 0 -16 20z" />
<glyph unicode="{" horiz-adv-x="542" d="M90 635l10 82q2 18 21 20q53 10 82.5 54.5t40.5 128.5l53 434q16 119 71.5 175t155.5 56h103q8 0 13 -6t3 -14l-10 -86q-4 -20 -23 -21h-51q-109 0 -127 -151l-49 -398q-10 -92 -41 -147t-82 -82q-4 -2 -4 -4t4 -4q70 -45 70 -162q0 -45 -4 -70l-50 -407q-2 -16 -2 -43 q0 -57 21.5 -84t69.5 -27h51q18 0 18 -20l-10 -86q-2 -8 -8 -14.5t-15 -6.5h-102q-90 0 -132 43t-42 133q0 16 4 58l55 444q4 41 4 55q0 111 -84 129q-16 4 -14 21z" />
<glyph unicode="|" horiz-adv-x="284" d="M14 -143l207 1679q0 8 6 14t17 6h100q20 0 16 -20l-204 -1679q-4 -20 -23 -21h-102q-8 0 -13.5 6t-3.5 15z" />
<glyph unicode="}" horiz-adv-x="542" d="M-16 -227l10 86q4 20 22 20h52q109 0 127 154l51 407q20 176 123 232q4 2 4 4t-4 4q-70 45 -70 160q0 45 4 69l47 398q4 33 4 45q0 106 -92 106h-51q-18 0 -18 21l12 86q0 8 6 14t16 6h101q174 0 174 -172q0 -18 -4 -59l-54 -434q-4 -41 -4 -54q0 -111 84 -129 q16 -4 15 -20l-11 -82q0 -16 -20 -21q-53 -10 -83 -54t-40 -130l-55 -444q-14 -119 -69.5 -176.5t-158.5 -57.5h-100q-10 0 -15 6t-3 15z" />
<glyph unicode="~" horiz-adv-x="915" d="M100 567q41 72 104.5 116t137.5 44q47 0 81 -14.5t73 -40.5q49 -35 83.5 -51.5t84.5 -16.5q39 0 68.5 20.5t62.5 61.5q16 16 28 6l54 -39q14 -10 4 -26q-106 -152 -228 -152q-55 0 -93 17.5t-89 52.5q-43 27 -70.5 40t-62.5 13q-90 0 -154 -84q-14 -20 -28 -8l-50 33 q-16 10 -6 28z" />
<glyph unicode="&#xa2;" horiz-adv-x="798" d="M115 432q0 16 4 49l53 443q16 121 92 203.5t191 103.5q8 2 10 10l12 141q4 20 23 21h84q20 0 16 -21l-20 -141q0 -8 6 -10q100 -18 158.5 -86t58.5 -158q0 -23 -2 -35l-2 -20q-2 -8 -8.5 -14.5t-14.5 -6.5l-102 -4q-18 0 -19 21l2 14q2 8 2 23q0 61 -42 103t-111 42 q-76 0 -129 -54.5t-64 -142.5l-53 -421q-2 -12 -2 -33q0 -74 41 -119t107 -45q76 0 130 49t64 119v14q2 8 8 14.5t15 6.5l102 -2q20 0 16 -21l-2 -22q-14 -106 -91 -183t-191 -96q-8 -2 -11 -10l-12 -141q-4 -20 -22 -21h-84q-20 0 -17 21l21 141q0 8 -6 10 q-100 16 -155.5 85t-55.5 173z" />
<glyph unicode="&#xa3;" horiz-adv-x="999" d="M160 20l10 91q4 16 16 24q41 33 69 97.5t38 150.5l31 240q0 8 -9 8h-114q-18 0 -19 20l11 80q4 20 22 21h115q4 0 7 2t3 6l35 289q23 188 124 294.5t255 106.5q117 0 182 -70.5t82 -208.5q0 -20 -19 -24l-98 -14h-4q-16 0 -16 18q-10 88 -47 130t-101 42 q-90 0 -147.5 -69.5t-73.5 -198.5l-35 -295q0 -8 6 -8h287q20 0 16 -21l-8 -80q-2 -8 -8 -14t-14 -6h-287q-8 0 -8 -8l-31 -236q-8 -82 -33.5 -147.5t-60.5 -102.5q-6 -10 4 -10h549q10 0 15 -6t3 -15l-10 -86q-4 -20 -23 -20h-698q-8 0 -13 6t-3 14z" />
<glyph unicode="&#xa5;" horiz-adv-x="1040" d="M162 385l6 47q4 20 22 21h261q6 0 10 8l16 139q0 8 -8 8h-260q-8 0 -13.5 6.5t-2.5 14.5l6 47q4 20 22 20h238q8 0 8 11l-166 702l-2 6q0 18 20 19h105q8 0 14 -4.5t8 -12.5l123 -600q2 -4 6.5 -4t6.5 4l268 600q2 8 10 12.5t14 4.5h107q10 0 13 -7.5t-1 -17.5l-338 -702 q-2 -4 -1 -7.5t5 -3.5h248q10 0 15.5 -6t3.5 -14l-6 -47q-5 -21 -23 -21h-270q-8 0 -9 -8l-18 -139q0 -8 8 -8h271q20 0 16 -21l-6 -47q0 -8 -6 -14t-17 -6h-268q-4 0 -7 -2.5t-3 -6.5l-41 -333q-4 -20 -23 -21h-100q-18 0 -18 21l40 333q2 2 0 5.5t-6 3.5h-260 q-18 0 -18 20z" />
<glyph unicode="&#xa8;" horiz-adv-x="608" d="M165 1323q0 57 37 94t90 37q43 0 71 -26.5t28 -71.5q0 -55 -37 -93t-90 -38q-45 0 -72 27.5t-27 70.5zM464 1323q0 57 37 94t90 37q43 0 71 -26.5t28 -71.5q0 -55 -37 -93t-90 -38q-45 0 -72 27.5t-27 70.5z" />
<glyph unicode="&#xa9;" horiz-adv-x="1658" d="M152 618q0 49 6 99q25 203 140.5 370.5t291.5 265t377 97.5q186 0 330.5 -82t224.5 -227.5t80 -325.5q0 -49 -7 -98q-25 -203 -139.5 -371t-290.5 -265t-379 -97q-184 0 -329.5 81.5t-225 227t-79.5 325.5zM244 629q0 -158 70.5 -285t196.5 -198.5t288 -71.5 q176 0 329.5 85t254 232.5t122.5 325.5q4 29 4 84q0 158 -69.5 285.5t-195.5 200.5t-288 73q-176 0 -330.5 -85t-255 -232.5t-120.5 -325.5q-6 -43 -6 -88zM684 512q0 16 2 25l43 350q8 76 60.5 120t130.5 44q72 0 113.5 -38t41.5 -102l-2 -24l-2 -13q-4 -20 -22 -20l-45 -2 q-10 0 -15.5 6t-3.5 14l2 21q4 35 -17.5 57.5t-60.5 22.5t-65.5 -22.5t-30.5 -57.5l-45 -363q-4 -37 17.5 -58t60.5 -21t66.5 21.5t31.5 57.5l2 21q4 20 23 20l45 -2q20 0 16 -20v-12q-8 -76 -62.5 -121t-131.5 -45q-70 0 -111 37.5t-41 103.5z" />
<glyph unicode="&#xab;" horiz-adv-x="937" d="M172 573q0 10 6 17l250 330q12 12 27 12h88q12 0 15 -7t-3 -18l-250 -325q-2 -6 0 -13l168 -325q2 -2 2 -8t-5 -11.5t-13 -5.5h-90q-12 0 -23 12l-170 330q-2 4 -2 12zM467 573q0 10 6 17l250 328q10 14 25 14h92q12 0 15 -7t-5 -18l-250 -325q-4 -8 -2 -13l170 -325 q4 -9 4 -11q0 -14 -20 -14h-90q-14 0 -23 14l-168 328q-4 8 -4 12z" />
<glyph unicode="&#xad;" horiz-adv-x="622" d="M96 594l10 86q2 8 8.5 14t14.5 6h455q10 0 15 -6t3 -14l-10 -86q-4 -20 -23 -21h-454q-19 1 -19 21z" />
<glyph unicode="&#xae;" horiz-adv-x="870" d="M131 1012q0 119 61.5 223t164 165.5t218.5 61.5q99 0 177.5 -45t123 -125t44.5 -178q0 -121 -61.5 -224.5t-163 -164.5t-218.5 -61q-98 0 -177 45t-124 124.5t-45 178.5zM209 1022q0 -123 78 -203t198 -80q95 0 177.5 50.5t132 134.5t49.5 182q0 121 -79 200.5t-200 79.5 q-94 0 -176 -50t-131 -133t-49 -181zM401 899l41 326q4 20 23 20h104q41 0 67 -25.5t26 -66.5q0 -39 -17.5 -67.5t-46.5 -41.5q-10 -6 -8 -12l35 -129l2 -6q0 -18 -21 -18h-24q-18 0 -21 16l-35 131q0 6 -6 6h-33q-8 0 -8 -8l-14 -125q-2 -8 -8 -14t-15 -6h-22q-18 0 -19 20 zM487 1090q0 -8 7 -9h49q25 0 40 17.5t15 46.5q0 20 -11.5 32.5t-31.5 12.5h-47q-8 0 -8 -8z" />
<glyph unicode="&#xb4;" horiz-adv-x="358" d="M162 1178.5q-4 7.5 4 17.5l152 223q10 14 24 15h82q12 0 14.5 -7.5t-5.5 -17.5l-166 -223q-14 -14 -27 -15h-63q-11 0 -15 7.5z" />
<glyph unicode="&#xb8;" horiz-adv-x="239" d="M-75 -364.5q-3 6.5 1 16.5l11 43q6 16 22 16q2 -2 8 -2q45 -6 78 21.5t33 97.5q0 72 -62 147q-6 6 -6 13q0 12 19 12h53q12 0 18 -6q6 -4 6 -8q70 -72 70 -170q0 -33 -10 -74q-20 -66 -67.5 -93.5t-102.5 -27.5q-35 0 -59 6q-9 2 -12 8.5z" />
<glyph unicode="&#xbb;" horiz-adv-x="937" d="M144 226q-3 7 6 18l247 325q4 8 2 13l-168 325q-4 8 -4 11q0 14 21 14h90q14 0 20 -12l170 -330q4 -8 4 -12q0 -10 -6 -17l-252 -330q-8 -12 -24 -12h-90q-13 0 -16 7zM439 226q-3 7 6 18l247 325q4 8 2 13l-168 325q-4 8 -4 11q0 14 21 14h90q14 0 20 -12l170 -330 q4 -8 4 -12q0 -10 -6 -17l-252 -330q-8 -12 -24 -12h-90q-13 0 -16 7z" />
<glyph unicode="&#x2c6;" horiz-adv-x="460" d="M161 1191q-3 7 5 17l156 211q10 14 24 15h121q12 0 21 -15l108 -211q2 -4 2 -10q0 -14 -18 -14h-86q-16 0 -23 14l-67 150q-2 4 -6.5 3t-6.5 -3l-104 -150q-14 -14 -27 -14h-86q-10 0 -13 7z" />
<glyph unicode="&#x2da;" horiz-adv-x="509" d="M175 1378q0 66 33.5 123.5t89 92t116.5 34.5q80 0 133.5 -55t53.5 -137q0 -68 -33 -125.5t-88.5 -91t-118.5 -33.5q-82 0 -134 54t-52 138zM261 1386q0 -49 31.5 -80.5t78.5 -31.5q57 0 100 45t43 108q0 49 -31.5 82t-78.5 33q-57 0 -100 -46t-43 -110z" />
<glyph unicode="&#x2dc;" horiz-adv-x="616" d="M174 1327q66 106 164 107q51 0 110 -48q29 -25 44.5 -34t39.5 -9q51 0 92 58q4 8 12.5 10t16.5 -2l33 -25q6 -6 6 -12q0 -8 -10 -29q-35 -51 -80 -74.5t-82 -23.5q-29 0 -49.5 11.5t-53.5 33.5q-6 4 -22.5 17.5t-30.5 18.5t-29 5q-29 0 -51 -11t-45 -42q-16 -18 -28 -6 l-33 26q-14 14 -4 29z" />
<glyph unicode="&#x2000;" horiz-adv-x="814" />
<glyph unicode="&#x2001;" horiz-adv-x="1628" />
<glyph unicode="&#x2002;" horiz-adv-x="814" />
<glyph unicode="&#x2003;" horiz-adv-x="1628" />
<glyph unicode="&#x2004;" horiz-adv-x="542" />
<glyph unicode="&#x2005;" horiz-adv-x="407" />
<glyph unicode="&#x2006;" horiz-adv-x="271" />
<glyph unicode="&#x2007;" horiz-adv-x="271" />
<glyph unicode="&#x2008;" horiz-adv-x="203" />
<glyph unicode="&#x2009;" horiz-adv-x="325" />
<glyph unicode="&#x200a;" horiz-adv-x="90" />
<glyph unicode="&#x2010;" horiz-adv-x="622" d="M96 594l10 86q2 8 8.5 14t14.5 6h455q10 0 15 -6t3 -14l-10 -86q-4 -20 -23 -21h-454q-19 1 -19 21z" />
<glyph unicode="&#x2011;" horiz-adv-x="622" d="M96 594l10 86q2 8 8.5 14t14.5 6h455q10 0 15 -6t3 -14l-10 -86q-4 -20 -23 -21h-454q-19 1 -19 21z" />
<glyph unicode="&#x2012;" horiz-adv-x="622" d="M96 594l10 86q2 8 8.5 14t14.5 6h455q10 0 15 -6t3 -14l-10 -86q-4 -20 -23 -21h-454q-19 1 -19 21z" />
<glyph unicode="&#x2013;" horiz-adv-x="739" d="M90 537l10 86q4 20 23 20h571q18 0 19 -20l-11 -86q-2 -8 -8 -14.5t-14 -6.5h-574q-20 1 -16 21z" />
<glyph unicode="&#x2014;" horiz-adv-x="1177" d="M90 537l10 86q4 20 23 20h1010q8 0 13 -6t3 -14l-10 -86q-4 -20 -23 -21h-1010q-20 1 -16 21z" />
<glyph unicode="&#x2018;" horiz-adv-x="243" d="M96 1036l164 381q6 16 25 17h73q20 0 15 -23l-137 -379q-2 -18 -25 -18h-102q-23 -1 -13 22z" />
<glyph unicode="&#x2019;" horiz-adv-x="243" d="M94 1036l135 379q6 18 25 19h102q21 0 15 -23l-164 -381q-10 -16 -27 -16h-74q-23 0 -12 22z" />
<glyph unicode="&#x201a;" horiz-adv-x="1191" d="M20 -139l115 438q6 18 23 18h90q20 0 14 -22l-143 -438q-2 -18 -23 -19h-61q-8 0 -12.5 7.5t-2.5 15.5z" />
<glyph unicode="&#x201c;" horiz-adv-x="497" d="M96 1036l174 381q6 16 25 17h70q25 0 14 -23l-148 -379q-2 -8 -8 -13t-14 -5h-100q-23 -1 -13 22zM341 1020q-3 6 1 16l172 381q2 8 10 12.5t15 4.5h69q10 0 15.5 -6.5t1.5 -16.5l-146 -379q-8 -18 -24 -18h-101q-10 0 -13 6z" />
<glyph unicode="&#x201d;" horiz-adv-x="497" d="M94 1036l146 379q2 8 9 13.5t15 5.5h101q20 0 14 -23l-174 -381q-10 -16 -27 -16h-69q-25 0 -15 22zM338 1020q-4 6 0 16l147 379q8 18 25 19h98q25 0 15 -23l-174 -381q-10 -16 -27 -16h-70q-10 0 -14 6z" />
<glyph unicode="&#x201e;" horiz-adv-x="473" d="M-49 -135l146 379q2 8 9 13.5t15 5.5h101q20 0 14 -23l-174 -381q-10 -16 -27 -16h-69q-25 0 -15 22zM195 -135l147 379q8 18 25 19h98q25 0 15 -23l-174 -381q-10 -16 -27 -16h-70q-10 0 -14 6t0 16z" />
<glyph unicode="&#x2022;" horiz-adv-x="585" d="M88 520q0 70 37 130.5t97.5 96t127.5 35.5q86 0 143.5 -58t57.5 -146q0 -70 -36 -131.5t-96.5 -99.5t-125.5 -38q-88 0 -146.5 61.5t-58.5 149.5z" />
<glyph unicode="&#x2026;" horiz-adv-x="1241" d="M51 102q0 57 37 94t90 37q43 0 71 -26.5t28 -71.5q0 -55 -37 -93t-90 -38q-45 0 -72 27.5t-27 70.5zM483 102q0 57 37 94t90 37q43 0 71 -26.5t28 -71.5q0 -55 -37 -93t-90 -38q-45 0 -72 27.5t-27 70.5zM915 102q0 57 37 94t90 37q43 0 71 -26.5t28 -71.5q0 -55 -37 -93 t-90 -38q-45 0 -72 27.5t-27 70.5z" />
<glyph unicode="&#x202f;" horiz-adv-x="325" />
<glyph unicode="&#x2039;" horiz-adv-x="614" d="M143 571q0 10 7 19l251 330q10 12 25 12h90q12 0 15.5 -7t-5.5 -18l-250 -325q-4 -8 -2 -13l170 -325l2 -8q0 -16 -18 -17h-90q-14 0 -21 12l-172 330q-2 2 -2 10z" />
<glyph unicode="&#x203a;" horiz-adv-x="649" d="M144 226q-3 7 6 18l247 325q4 8 2 13l-168 325q-4 8 -4 11q0 14 21 14h90q14 0 20 -12l170 -330q4 -8 4 -12q0 -10 -6 -17l-252 -330q-8 -12 -24 -12h-90q-13 0 -16 7z" />
<glyph unicode="&#x205f;" horiz-adv-x="407" />
<glyph unicode="&#x20ac;" horiz-adv-x="964" d="M139 573l6 48q4 20 23 20h108q4 0 7.5 2t3.5 6l16 129q0 8 -8 8h-109q-18 0 -18 21l6 47q4 20 23 20h108q4 0 7 2.5t3 6.5l27 215q20 162 116.5 257t235.5 95q129 0 203 -80t70 -219q0 -18 -23 -23l-102 -14h-4q-14 0 -15 21q6 86 -32.5 137t-110.5 51q-76 0 -130 -59.5 t-67 -155.5l-26 -225q-2 -2 0 -5.5t6 -3.5h340q23 0 12 -22l-20 -49q-10 -16 -27 -17h-315q-6 0 -11 -8l-14 -129q-2 -2 0 -5t6 -3h279q10 0 13 -7t-1 -18l-23 -47q-8 -16 -24 -16h-254q-6 0 -10 -8l-27 -219q-2 -12 -2 -39q0 -80 39 -128t106 -48q70 0 121 51t68 135 q2 10 9 16t15 4l101 -16q20 -4 14 -22q-33 -137 -124 -216t-220 -79q-125 0 -197.5 78.5t-72.5 211.5q0 18 4 64l26 207q0 8 -8 8h-108q-18 0 -19 20z" />
<glyph unicode="&#x2122;" horiz-adv-x="1021" d="M162 1374l6 39q4 20 22 21h359q10 0 15 -6.5t3 -14.5l-6 -39q0 -8 -6 -14t-14 -6h-131q-4 0 -7.5 -2t-3.5 -6l-73 -611q-2 -8 -8.5 -14t-14.5 -6h-51q-8 0 -13.5 6t-2.5 14l73 611q2 2 0 5t-6 3h-123q-18 0 -18 20zM586 735l82 678q4 20 22 21h51q20 0 23 -15l80 -225 q2 -4 6 -4t6 4l137 225q7 15 25 15h49q10 0 15 -6.5t3 -14.5l-84 -678q0 -8 -6 -14t-16 -6h-47q-20 0 -17 20l64 525q2 6 -2 6t-8 -4l-117 -195q-2 -6 -8 -10t-10 -4q-2 0 -6.5 4t-6.5 10l-71 199q-4 4 -7.5 3t-3.5 -7l-65 -527q0 -8 -6 -14t-17 -6h-49q-20 0 -16 20z" />
<glyph unicode="&#x25fc;" horiz-adv-x="1034" d="M0 0v1034h1034v-1034h-1034z" />
</font>
</defs>
</svg>
