<?xml version="1.0" standalone="no"?>
<!DOCTYPE svg PUBLIC "-//W3C//DTD SVG 1.1//EN" "http://www.w3.org/Graphics/SVG/1.1/DTD/svg11.dtd" >
<svg xmlns="http://www.w3.org/2000/svg" xmlns:xlink="http://www.w3.org/1999/xlink" version="1.1">
<metadata></metadata>
<defs>
<font id="barlow_condensedextralight" horiz-adv-x="907" >
<font-face units-per-em="2048" ascent="1638" descent="-410" />
<missing-glyph horiz-adv-x="409" />
<glyph horiz-adv-x="0" />
<glyph unicode="&#xd;" horiz-adv-x="409" />
<glyph horiz-adv-x="0" />
<glyph horiz-adv-x="0" />
<glyph unicode=" "  horiz-adv-x="409" />
<glyph unicode="&#x09;" horiz-adv-x="409" />
<glyph unicode="&#xa0;" horiz-adv-x="409" />
<glyph unicode="!" horiz-adv-x="489" d="M152 102q0 41 26.5 68t65.5 27q41 0 67.5 -27t26.5 -68t-26.5 -67.5t-67.5 -26.5q-39 0 -65.5 26.5t-26.5 67.5zM207 1413q0 20 20 21h39q20 0 21 -21l-4 -936q0 -20 -21 -20h-29q-20 0 -20 20z" />
<glyph unicode="&#x22;" horiz-adv-x="376" d="M53 1399q0 20 21 20h43q20 0 20 -20l-10 -363q0 -20 -21 -20h-22q-21 0 -21 20zM238 1399q0 20 20 20h41q20 0 20 -20l-10 -363q0 -20 -20 -20h-25q-20 0 -20 20z" />
<glyph unicode="#" horiz-adv-x="1181" d="M133 453v30q0 20 21 21h135q10 0 10 8l55 383q0 8 -6 8h-131q-20 0 -20 21v30q0 20 20 21h141q10 0 11 8l57 383q2 18 20 18l39 -2q10 0 15.5 -6t3.5 -14l-53 -379q0 -8 6 -8h354q10 0 10 8l58 383q2 18 20 18l41 -2q8 0 14.5 -6t3.5 -16l-55 -377q0 -8 6 -8h119 q20 0 21 -21v-30q-1 -21 -21 -21h-129q-10 0 -10 -8l-55 -383q0 -8 6 -8h123q20 0 20 -21v-30q0 -20 -20 -21h-134q-10 0 -10 -8l-57 -381q-2 -18 -21 -18l-39 2q-10 0 -15 6t-3 14l53 377q0 8 -6 8h-356q-10 0 -10 -8l-56 -381q-2 -18 -20 -18l-39 2q-10 0 -15.5 6t-3.5 14 l54 377q0 8 -6 8h-125q-20 0 -21 21zM381 512q0 -8 6 -8h354q11 0 11 8l55 383q0 8 -6 8h-357q-10 0 -10 -8z" />
<glyph unicode="$" horiz-adv-x="827" d="M96 340v39q0 20 21 20h37q20 0 20 -20v-37q0 -129 65.5 -209t170.5 -80q102 0 170.5 77t68.5 202q0 82 -31.5 140t-81 101t-153.5 121t-160.5 131.5t-91.5 125t-35 169.5q0 150 80 237t207 93q8 0 8 8l-2 160q0 20 21 20h24q20 0 21 -20v-164q0 -8 8 -10 q117 -20 185.5 -115.5t68.5 -238.5v-52q0 -20 -21 -20h-39q-20 0 -20 20v52q0 131 -65.5 210.5t-172.5 79.5q-98 0 -161.5 -69.5t-63.5 -194.5q0 -74 26.5 -128t77 -101t150.5 -121q121 -90 179.5 -144.5t90 -119t31.5 -156.5q0 -145 -70.5 -240.5t-187.5 -115.5 q-8 -2 -8 -10l2 -154q0 -20 -21 -21h-24q-20 0 -21 21v149q0 8 -8 9q-133 8 -214 105t-81 251z" />
<glyph unicode="%" horiz-adv-x="1613" d="M172 1178q0 76 37 139t99.5 100t135.5 37q74 0 135.5 -38t98.5 -101.5t37 -136.5q0 -76 -36 -139.5t-98.5 -101.5t-136.5 -38q-73 0 -135.5 38t-99.5 101.5t-37 139.5zM233 1178q0 -92 61.5 -156t149.5 -64t148.5 64.5t60.5 155.5q0 90 -60.5 153.5t-148.5 63.5 t-149.5 -63.5t-61.5 -153.5zM396 7q-5 7 1 18l752 1394q6 14 25 15h24q12 0 17.5 -7.5t-1.5 -17.5l-751 -1395q-6 -14 -25 -14h-24q-13 0 -18 7zM899 258q0 76 37 139.5t99.5 100.5t135.5 37q74 0 135.5 -38t98.5 -101.5t37 -137.5q0 -76 -36 -139.5t-98.5 -101 t-136.5 -37.5q-73 0 -135.5 37.5t-99.5 101t-37 139.5zM961 258q0 -92 61 -155.5t149 -63.5q89 0 149 64.5t60 154.5t-60 153.5t-149 63.5q-88 0 -149 -63.5t-61 -153.5z" />
<glyph unicode="&#x26;" horiz-adv-x="1054" d="M96 307q0 141 65.5 241.5t190.5 215.5q6 2 2 10q-78 119 -112.5 182.5t-46 106.5t-11.5 96q0 133 72 212t188 79q115 0 189 -79t74 -206q0 -86 -34 -156.5t-83 -126t-129 -128.5q-6 -2 -2 -11l145 -219l139 -207q6 -6 13 0q39 63 65 111l37 61q10 20 29 9l28 -19 q16 -10 7 -28q-76 -131 -125 -201q-2 -6 0 -12l143 -213l4 -11q0 -14 -18 -14h-39q-16 0 -25 14q-76 111 -106 160q-6 6 -13 0q-80 -102 -156.5 -146t-174.5 -44q-145 0 -230.5 85t-85.5 238zM176 305q0 -117 64.5 -183.5t179.5 -66.5q82 2 146.5 45t135.5 142q4 6 0 12 l-106 158l-188 280q-4 8 -11 2q-106 -98 -163.5 -187t-57.5 -202zM264 1157q0 -66 25.5 -128t116.5 -206q6 -8 12 -2q102 96 155.5 172t53.5 172q0 94 -51.5 152.5t-131.5 58.5q-79 0 -129.5 -59.5t-50.5 -159.5z" />
<glyph unicode="'" horiz-adv-x="194" d="M53 1407q0 20 21 20h45q20 0 20 -20l-10 -358q0 -20 -20 -21h-25q-21 1 -21 21z" />
<glyph unicode="(" horiz-adv-x="370" d="M-8 659q0 256 44 498t118 395q8 14 24 15h35q10 0 15 -7.5t1 -15.5q-63 -158 -104 -397.5t-41 -482.5q0 -244 40 -478.5t105 -388.5q2 -2 2 -8t-5 -10t-13 -4h-39q-16 0 -22 14q-72 152 -116 387.5t-44 482.5z" />
<glyph unicode=")" horiz-adv-x="370" d="M137 1552q0 6 5 10.5t14 4.5h41q16 -1 22 -15q72 -152 116 -387t44 -483q0 -256 -45 -497.5t-119 -395.5q-8 -14 -25 -14h-34q-10 0 -15.5 7t-1.5 15q66 158 107 396.5t41 486.5q0 242 -41 476.5t-107 387.5q-2 2 -2 8z" />
<glyph unicode="*" horiz-adv-x="737" d="M59 1004q0 12 11 16l229 141q4 2 4 6t-4 7l-229 141q-16 10 -7 28l9 17q10 20 28 8l228 -141q4 -2 7 0t3 6v276q0 20 20 21h21q20 0 20 -21v-276q0 -4 3.5 -6t7.5 0l227 141l10 4q10 0 19 -12l8 -17q4 -8 4 -12q0 -10 -10 -16l-230 -141q-2 -2 -2 -6.5t2 -6.5l230 -141 q16 -10 6 -29l-8 -16q-10 -20 -29 -8l-227 141q-4 2 -7.5 0t-3.5 -6v-277q0 -20 -20 -20h-21q-20 0 -20 20v277q0 4 -3 6t-7 0l-228 -141l-10 -4q-10 0 -18 12l-9 16q-4 8 -4 13z" />
<glyph unicode="+" d="M74 647v25q0 20 20 20h318q8 0 8 8v320q0 20 20 20h27q20 0 20 -20v-320q0 -8 9 -8h317q21 0 21 -20v-25q0 -20 -21 -20h-317q-8 0 -9 -9v-317q0 -20 -20 -20h-27q-20 0 -20 20v317q0 8 -8 9h-318q-20 0 -20 20z" />
<glyph unicode="," horiz-adv-x="331" d="M86 -123l74 420q4 18 22 18h33q10 0 15.5 -6t2.5 -16l-83 -420q-2 -18 -23 -18h-23q-10 0 -15 6t-3 16z" />
<glyph unicode="-" horiz-adv-x="624" d="M74 635v31q0 20 20 20h436q20 0 21 -20v-31q0 -20 -21 -21h-436q-20 1 -20 21z" />
<glyph unicode="." horiz-adv-x="356" d="M86 102q0 41 26 68t67 27t67.5 -27t26.5 -68t-26.5 -66.5t-67.5 -25.5t-67 27t-26 65z" />
<glyph unicode="/" horiz-adv-x="608" d="M59 23l332 1392q4 18 23 19h39q10 0 15 -6.5t1 -16.5l-332 -1393q-4 -18 -22 -18h-39q-10 0 -15.5 6t-1.5 17z" />
<glyph unicode="0" horiz-adv-x="901" d="M127 326v782q0 156 88 250t234 94q145 0 235 -94t90 -250v-782q0 -156 -90 -250t-235 -94q-146 0 -234 94t-88 250zM207 319q0 -121 66.5 -193.5t175.5 -72.5q112 0 178.5 73t66.5 193v795q0 121 -66.5 193.5t-178.5 72.5q-109 0 -175.5 -72.5t-66.5 -193.5v-795z" />
<glyph unicode="1" horiz-adv-x="497" d="M25 1286q0 12 12 19l225 122q13 7 27 7h45q20 0 20 -21v-1393q0 -20 -20 -20h-39q-20 0 -21 20v1303q0 4 -3 6t-7 0l-203 -92q-4 -2 -10 -2t-10 4t-6 10l-8 29q-2 2 -2 8z" />
<glyph unicode="2" horiz-adv-x="788" d="M92 1034v76q2 152 82 246t207 94q131 0 212 -95t81 -249q0 -184 -148 -447l-172 -303l-157 -274q-6 -10 4 -10h499q20 0 21 -21v-31q0 -20 -21 -20h-585q-20 0 -21 20v37q0 14 6 27l131 225q51 90 106.5 186.5t115.5 200.5q139 250 139 410q0 123 -58.5 197.5 t-154.5 74.5q-94 0 -149.5 -74.5t-53.5 -195.5v-74q0 -20 -20 -20h-43q-20 0 -21 20z" />
<glyph unicode="3" horiz-adv-x="811" d="M88 399q0 20 21 21h38q20 0 21 -21q2 -80 16 -151q20 -94 71.5 -143.5t129.5 -49.5q74 0 124 44t73 128q23 86 22 203q0 150 -33 242q-51 147 -186 147q-18 0 -39 -4q-4 -2 -10 -2q-10 0 -19 8l-18 19q-12 12 -4 28l283 484q2 4 -0.5 7t-6.5 3h-458q-20 0 -21 20v31 q0 20 21 21h544q20 0 21 -21v-37q0 -14 -6 -26l-269 -463q-2 -4 -1 -7t6 -3q82 0 142 -48.5t91 -134.5q41 -100 41 -270q0 -121 -23 -211q-63 -229 -274 -229q-113 0 -183.5 62.5t-95.5 180.5q-14 74 -18 172z" />
<glyph unicode="4" horiz-adv-x="786" d="M53 426v33q0 8 4 24l322 934q6 16 24 17h43q23 0 17 -23l-316 -922q-2 -4 0.5 -7t6.5 -3h403q8 0 8 8v357q0 20 21 20h39q20 0 20 -20v-357q0 -8 8 -8h60q20 0 20 -20v-33q0 -20 -20 -20h-60q-8 0 -8 -9v-377q0 -20 -20 -20h-39q-20 0 -21 20v377q0 8 -8 9h-483 q-20 0 -21 20z" />
<glyph unicode="5" horiz-adv-x="808" d="M129 639v774q0 20 21 21h509q20 0 21 -21v-31q0 -20 -21 -20h-442q-8 0 -8 -8l-2 -584q0 -6 3 -6t7 4q33 55 89 84t132 29q96 0 162 -55.5t94 -163.5q29 -97 29 -230q0 -104 -18 -188q-25 -127 -96.5 -193.5t-184.5 -66.5q-119 0 -191.5 67.5t-93.5 202.5l-8 61v4 q0 16 19 17h38q20 0 23 -21q4 -37 8 -57q37 -203 205 -203q154 0 201 191q18 80 18 186q0 119 -27 211q-47 164 -192 164q-170 0 -211 -170q-6 -18 -23 -19h-40q-20 0 -21 21z" />
<glyph unicode="6" horiz-adv-x="811" d="M129 430v676q0 156 82 250t215 94q121 0 198.5 -95t77.5 -249v-14q0 -20 -20 -21h-39q-20 0 -20 21v18q0 117 -56.5 191.5t-140.5 74.5q-96 0 -156.5 -73.5t-60.5 -192.5v-346q0 -6 3 -6t5 4q33 61 88 92t123 31q106 0 176 -62.5t98 -179.5q21 -82 21 -211 q0 -104 -12 -164q-20 -141 -93 -212.5t-192 -71.5q-113 0 -184.5 66.5t-96.5 197.5q-16 82 -16 182zM209 436q0 -84 14 -174q43 -207 203 -207q166 0 207 221q10 78 10 160q0 119 -20 201q-47 176 -197 176q-156 0 -199 -188q-18 -82 -18 -189z" />
<glyph unicode="7" horiz-adv-x="710" d="M57 1266v147q0 20 21 21h573q20 0 21 -21v-39q0 -4 -4 -24l-355 -1332q-4 -18 -22 -18h-45q-10 0 -15.5 6t-3.5 17l357 1331q2 2 -1 5t-8 3h-440q-8 0 -8 -8v-88q0 -20 -21 -21h-28q-20 0 -21 21z" />
<glyph unicode="8" horiz-adv-x="847" d="M127 395q0 133 39 230q41 96 119 135q10 6 0 10q-68 35 -109 107q-49 86 -49 219q0 135 47 215q37 68 100.5 104.5t147.5 36.5q170 0 248 -135q53 -88 53 -223q0 -131 -49 -211q-37 -70 -111 -109q-10 -6 0 -12q70 -37 109 -117q51 -102 51 -252q0 -102 -29 -198 q-35 -102 -104.5 -156.5t-167.5 -54.5q-96 0 -165 54t-103 157q-27 94 -27 200zM205 395q0 -100 24 -174q23 -80 73 -123t120 -43q74 0 125 45t74 129q20 78 20 166q0 129 -37 211q-53 127 -182 127q-131 0 -184 -139q-33 -82 -33 -199zM205 1090q0 -106 41 -183 q57 -104 176 -104q63 0 110.5 29.5t73.5 85.5q37 72 37 174q0 117 -45 188q-57 98 -176 98q-121 0 -178 -106q-39 -74 -39 -182z" />
<glyph unicode="9" horiz-adv-x="796" d="M72 1001q0 90 12 164q20 141 94 213t193 72q113 0 183.5 -66.5t94.5 -197.5q19 -76 19 -182v-676q0 -156 -82 -250t-217 -94q-121 0 -198 94t-77 250v14q0 20 21 20h39q20 0 20 -20v-18q0 -119 56.5 -193t138.5 -74q98 0 158.5 74t60.5 193v348q0 6 -3 6t-7 -4 q-31 -61 -86.5 -93t-124.5 -32q-106 0 -175 62.5t-98 179.5q-23 90 -22 210zM152 997q0 -111 22 -200q47 -176 197 -176q151 0 198 188q18 84 19 188q0 84 -15 174q-43 207 -202 207q-84 0 -136.5 -56t-70.5 -165q-12 -70 -12 -160z" />
<glyph unicode=":" horiz-adv-x="372" d="M92 104q0 41 26 68t67 27t67.5 -27t26.5 -68t-26.5 -66.5t-67.5 -25.5t-67 27t-26 65zM92 800q0 41 26 68t67 27t67.5 -27t26.5 -68t-26.5 -66.5t-67.5 -25.5t-67 27t-26 65z" />
<glyph unicode=";" horiz-adv-x="358" d="M94 838q0 39 25.5 67.5t60.5 28.5q33 0 58.5 -28.5t25.5 -67.5t-24.5 -68t-59.5 -29q-37 0 -61.5 28t-24.5 69zM98 -111l45 396q2 18 21 18h37q8 0 14 -6t4 -16l-57 -396q-2 -18 -21 -18h-22q-10 0 -16.5 7t-4.5 15z" />
<glyph unicode="&#x3c;" d="M74 530v45q0 18 14 25l721 367q4 2 10 2q14 0 15 -17v-39q0 -18 -15 -24l-661 -330q-4 -2 -4 -6t4 -6l661 -330q14 -6 15 -24v-39q0 -11 -7.5 -15t-17.5 0l-721 367q-14 6 -14 24z" />
<glyph unicode="=" d="M74 457v25q0 20 20 20h719q20 0 21 -20v-25q0 -20 -21 -20h-719q-20 0 -20 20zM74 897v25q0 20 20 20h719q20 0 21 -20v-25q0 -20 -21 -20h-719q-20 0 -20 20z" />
<glyph unicode="&#x3e;" d="M74 154v39q0 18 14 24l662 330q4 2 4 6t-4 6l-662 330q-14 6 -14 24v39q0 10 7 14.5t17 0.5l721 -367q14 -6 15 -25v-45q0 -18 -15 -24l-721 -367q-4 -2 -10 -2q-14 0 -14 17z" />
<glyph unicode="?" horiz-adv-x="692" d="M66 1040v74q0 152 78.5 245t203.5 93q123 0 198 -93t75 -249q0 -129 -41 -206t-115 -152q-55 -59 -80 -100.5t-25 -100.5v-141q0 -20 -20 -21h-43q-21 1 -21 21v143q0 84 31 136t94 120q47 51 74 87t46.5 90t19.5 126q0 121 -53.5 193.5t-139.5 72.5q-90 0 -146.5 -72.5 t-56.5 -191.5v-76q0 -20 -20 -20l-39 2q-20 0 -20 20zM227 102q0 41 27 67t65 26q41 0 68 -27t27 -66q0 -41 -27 -67.5t-68 -26.5q-40 0 -66 26.5t-26 67.5z" />
<glyph unicode="@" horiz-adv-x="1564" d="M119 397q0 37 8 115q27 209 132.5 370.5t264 252t342.5 90.5q172 0 303 -69t203 -195.5t72 -296.5q0 -33 -8 -111q-25 -188 -115 -294.5t-227 -106.5q-68 0 -117 27.5t-74 76.5q-4 10 -10 0q-27 -51 -76 -78.5t-104 -27.5q-84 0 -135.5 51t-51.5 135l2 26l21 160l20 158 q12 96 71.5 154.5t150.5 58.5q41 0 76.5 -18.5t58.5 -51.5q2 -4 6 -3t4 5l4 37q2 18 21 19h24q10 0 16.5 -7.5t4.5 -15.5l-58 -442q-2 -12 -2 -33q0 -78 42 -124t118 -46q100 0 170 87t90 249q8 74 8 106q0 156 -64.5 270.5t-181 176t-272.5 61.5q-164 0 -307 -82 t-238.5 -230.5t-117.5 -338.5q-6 -51 -7 -100q0 -162 64.5 -284t179.5 -186.5t260 -64.5q106 0 198.5 28.5t147.5 69.5q4 4 13 5q10 0 16 -9l12 -14q6 -6 6 -14t-10 -15q-63 -49 -167.5 -81.5t-227.5 -32.5q-164 0 -291 71.5t-197.5 203.5t-70.5 308zM594 338q0 -57 35 -93 t90 -36q61 0 104 43t54 113q8 53 20 155l14 115l7 49q6 66 -28 108t-93 42q-61 0 -106.5 -44.5t-55.5 -111.5q-8 -45 -21 -158q-4 -41 -8 -57q-8 -72 -10 -98q-2 -8 -2 -27z" />
<glyph unicode="A" horiz-adv-x="772" d="M25 23l311 1392q4 18 22 19h52q20 0 22 -19l313 -1392v-5q0 -18 -18 -18h-39q-18 0 -22 18l-60 279q0 4 -3 6t-7 2h-422q-4 0 -7 -2t-3 -6l-60 -279q-2 -18 -22 -18h-39q-10 0 -15 6t-3 17zM182 376q2 -3 6 -3h394q4 0 6 3t0 5l-199 915q-2 6 -4 6.5t-4 -6.5l-199 -915 q-2 -2 0 -5z" />
<glyph unicode="B" horiz-adv-x="899" d="M172 20v1393q0 20 21 21h270q166 0 258 -95.5t92 -271.5q0 -119 -46 -200t-134 -119q-10 -5 0 -11q88 -43 136 -133t50 -219q0 -182 -93 -283.5t-255 -101.5h-278q-20 0 -21 20zM252 82q0 -8 8 -8h207q127 0 199.5 83t72.5 232q0 150 -72.5 235t-199.5 85h-207 q-8 0 -8 -9v-618zM252 784q0 -8 8 -8h205q127 0 198.5 76t71.5 211q0 141 -71.5 220t-198.5 79h-205q-8 0 -8 -8v-570z" />
<glyph unicode="C" horiz-adv-x="894" d="M133 315v805q0 150 88 240t232 90q145 0 234 -90t89 -240v-41q0 -20 -20 -20l-41 -2q-20 0 -21 20v47q0 115 -66.5 184.5t-174.5 69.5q-109 0 -174.5 -69.5t-65.5 -184.5v-815q0 -115 66.5 -184.5t173.5 -69.5q109 0 175 70t66 184v45q0 20 21 21l41 -2q20 0 20 -21v-37 q0 -150 -89 -240.5t-234 -90.5q-144 0 -232 91t-88 240z" />
<glyph unicode="D" horiz-adv-x="944" d="M172 20v1393q0 20 21 21h288q145 0 230.5 -99.5t85.5 -273.5v-688q0 -174 -85 -273.5t-231 -99.5h-288q-21 0 -21 20zM252 80q0 -8 8 -8h223q106 2 169 81.5t63 219.5v686q0 141 -61.5 222t-170.5 81h-223q-8 0 -8 -8v-1274z" />
<glyph unicode="E" horiz-adv-x="870" d="M172 20v1393q0 20 21 21h561q20 0 20 -21v-31q0 -20 -20 -20h-494q-8 0 -8 -8v-592q0 -8 8 -8h324q20 0 20 -21v-31q0 -20 -20 -20h-324q-8 0 -8 -8v-594q0 -8 8 -8h494q20 0 20 -21v-31q0 -20 -20 -20h-561q-20 0 -21 20z" />
<glyph unicode="F" horiz-adv-x="811" d="M172 20v1393q0 20 21 21h559q20 0 20 -21v-31q0 -20 -20 -20h-492q-8 0 -8 -8v-592q0 -8 8 -8h322q20 0 20 -21v-31q0 -20 -20 -20h-322q-8 0 -8 -8v-654q0 -20 -21 -20h-38q-20 0 -21 20z" />
<glyph unicode="G" d="M133 305v823q0 145 88 233.5t232 88.5q145 0 233 -88t88 -234v-94q0 -20 -20 -20h-39q-20 0 -21 20v96q0 111 -66.5 179.5t-174.5 68.5q-106 0 -173 -68.5t-67 -179.5v-827q0 -111 66.5 -179.5t173.5 -68.5q109 0 175 69t66 179v311q0 8 -8 9h-205q-20 0 -20 20v31 q0 20 20 20h273q20 0 20 -20v-369q0 -145 -88 -233t-233 -88q-144 0 -232 88t-88 233z" />
<glyph unicode="H" horiz-adv-x="958" d="M172 20v1393q0 20 21 21h38q20 0 21 -21v-651q0 -8 8 -8h438q8 0 9 8v651q0 21 20 21h39q20 0 20 -21v-1393q0 -20 -20 -20h-39q-20 0 -20 20v654q0 8 -9 8h-438q-8 0 -8 -8v-654q0 -20 -21 -20h-38q-20 0 -21 20z" />
<glyph unicode="I" horiz-adv-x="425" d="M172 20v1393q0 20 21 21h38q20 0 21 -21v-1393q0 -20 -21 -20h-38q-21 0 -21 20z" />
<glyph unicode="J" horiz-adv-x="845" d="M53 313v183q0 20 21 20h39q20 0 20 -20v-187q0 -115 63.5 -184.5t165.5 -69.5q104 0 168 70t64 184v1104q0 20 20 21h39q20 0 21 -21v-1100q0 -150 -86 -239.5t-226 -89.5q-139 0 -224 90t-85 239z" />
<glyph unicode="K" horiz-adv-x="888" d="M172 20v1393q0 20 21 21h38q20 0 21 -21v-731q0 -6 4 -7t6 5l455 739q10 14 24 15h47q12 0 16.5 -7.5t-1.5 -17.5l-326 -539q-6 -6 -2 -12l365 -833l2 -9q0 -16 -19 -16h-49q-16 0 -22 16l-330 768q-2 8 -10 0l-156 -235q-4 -4 -4 -10v-519q0 -20 -21 -20h-38 q-21 0 -21 20z" />
<glyph unicode="L" horiz-adv-x="782" d="M172 20v1393q0 20 21 21h38q20 0 21 -21v-1333q0 -8 8 -8h485q20 0 21 -21v-31q0 -20 -21 -20h-552q-21 0 -21 20z" />
<glyph unicode="M" horiz-adv-x="1042" d="M172 20v1393q0 20 21 21h40q16 0 23 -17l260 -590q2 -4 6 -4t6 4l256 590q7 17 23 17h43q20 0 20 -21v-1393q0 -20 -20 -20h-39q-20 0 -20 20v1211q0 6 -4.5 6t-6.5 -4l-235 -545q-6 -16 -23 -16q-16 0 -22 16l-238 541q-2 4 -6 4t-4 -6v-1207q0 -20 -21 -20h-38 q-20 0 -21 20z" />
<glyph unicode="N" horiz-adv-x="991" d="M172 20v1393q0 20 21 21h47q16 0 22 -17l467 -1206q2 -6 6 -5t4 7v1200q1 21 21 21h39q20 0 20 -21v-1393q0 -20 -20 -20h-49q-16 0 -23 16l-465 1213q-2 6 -6 5t-4 -7v-1207q0 -20 -21 -20h-38q-20 0 -21 20z" />
<glyph unicode="O" horiz-adv-x="917" d="M133 319v793q0 152 90 245t234 93q145 0 236 -94t91 -244v-793q0 -150 -91 -242.5t-236 -92.5q-146 0 -235 93t-89 242zM213 315q0 -115 67.5 -187.5t176.5 -72.5q110 0 179 73t69 187v801q0 117 -69 189.5t-179 72.5q-109 0 -176.5 -72.5t-67.5 -189.5v-801z" />
<glyph unicode="P" horiz-adv-x="884" d="M172 20v1397q0 20 21 21h303q139 0 224 -105.5t85 -277.5q0 -168 -84 -271.5t-223 -103.5h-238q-8 0 -8 -8v-652q0 -20 -21 -20h-38q-20 0 -21 20zM252 758q0 -8 8 -8h227q109 0 173.5 84t64.5 221q0 141 -64.5 225t-173.5 84h-227q-8 0 -8 -8v-598z" />
<glyph unicode="Q" horiz-adv-x="890" d="M133 324v786q0 152 87 246t226 94q140 0 226 -94t86 -246v-786q0 -139 -71 -230.5t-191 -107.5q-8 0 -9 -9v-208q0 -20 -20 -21h-41q-20 0 -20 21v208q0 8 -9 9q-119 16 -191.5 108t-72.5 230zM213 317q0 -117 65.5 -189.5t167.5 -72.5t167 73t65 189v799 q0 117 -64.5 189.5t-167.5 72.5q-102 0 -167.5 -72.5t-65.5 -189.5v-799z" />
<glyph unicode="R" horiz-adv-x="882" d="M172 20v1393q0 20 21 21h303q139 0 224 -104.5t85 -272.5q0 -141 -62.5 -237.5t-169.5 -123.5q-8 -4 -6 -10l240 -663l2 -9q0 -14 -18 -14h-37q-19 0 -25 16l-237 664q-2 6 -9 6h-223q-8 0 -8 -8v-658q0 -20 -21 -20h-38q-20 0 -21 20zM252 762q0 -8 8 -8h227 q106 0 172 83t66 218q0 139 -65.5 223t-172.5 84h-227q-8 0 -8 -8v-592z" />
<glyph unicode="S" horiz-adv-x="827" d="M96 340v39q0 20 21 20h37q20 0 20 -20v-37q0 -129 65.5 -209t170.5 -80q102 0 170.5 77t68.5 202q0 82 -31.5 140t-81 101t-153.5 121t-160.5 131.5t-91.5 125t-35 169.5q0 154 84 242t219 88q143 0 230.5 -99.5t87.5 -260.5v-52q0 -20 -21 -20h-39q-20 0 -20 20v52 q0 131 -65.5 210.5t-172.5 79.5q-98 0 -161.5 -69.5t-63.5 -194.5q0 -74 26.5 -128t77 -101t150.5 -121q121 -90 179.5 -144.5t90 -119t31.5 -156.5q0 -164 -89 -263t-228 -99q-142 0 -229 98t-87 258z" />
<glyph unicode="T" horiz-adv-x="823" d="M78 1382v31q0 20 20 21h627q20 -1 20 -21v-31q0 -20 -20 -20h-274q-8 0 -9 -8v-1334q0 -20 -20 -20h-39q-20 0 -21 20v1334q0 8 -8 8h-256q-20 0 -20 20z" />
<glyph unicode="U" horiz-adv-x="972" d="M160 365v1048q0 20 20 21h39q20 0 21 -21v-1057q0 -135 67.5 -218t177.5 -83q111 0 179.5 83t68.5 218v1057q0 20 21 21h39q20 0 20 -21v-1048q0 -172 -91 -276.5t-237 -104.5q-147 0 -236 104.5t-89 276.5z" />
<glyph unicode="V" horiz-adv-x="854" d="M84 1411v4q0 18 18 19h43q20 0 23 -19l256 -1249q2 -6 4 -6t4 6l256 1249q4 18 23 19h41q23 0 18 -23l-297 -1393q-2 -18 -22 -18h-45q-19 0 -23 18z" />
<glyph unicode="W" horiz-adv-x="1214" d="M68 1411v4q0 18 18 19h41q20 0 23 -19l225 -1225q2 -4 4 -4t4 4l190 1225q4 18 21 19h39q18 0 20 -19l197 -1225q2 -4 4 -4t4 4l205 1225q4 18 22 19h43q10 0 15.5 -6.5t3.5 -16.5l-252 -1393q-2 -18 -23 -18h-41q-16 0 -20 18l-193 1221q-2 4 -4 4t-4 -4l-194 -1221 q-2 -18 -21 -18h-39q-18 0 -22 18z" />
<glyph unicode="X" horiz-adv-x="849" d="M88 1417q0 16 18 17h44q16 0 22 -17l248 -612q2 -4 6 -5t6 5l246 612q6 16 22 17h43q10 0 15.5 -7.5t1.5 -17.5l-293 -688q-2 -6 0 -12l293 -684l2 -9q0 -16 -19 -16h-43q-16 0 -22 16l-246 611q-2 4 -6 4t-6 -4l-248 -611q-6 -16 -22 -16h-44q-10 0 -15 7t-1 18l291 686 q4 6 0 12l-291 686z" />
<glyph unicode="Y" horiz-adv-x="821" d="M86 1417q0 16 18 17h41q18 0 25 -17l236 -645q2 -4 6 -4t6 4l233 645q6 16 25 17h41q10 0 15 -7.5t1 -17.5l-280 -729q-2 -2 -2 -10v-650q0 -20 -21 -20h-39q-20 0 -20 20v650q0 8 -2 10l-281 729z" />
<glyph unicode="Z" horiz-adv-x="792" d="M80 20v39q0 14 4 25l526 1268q2 4 0 7t-6 3h-504q-20 0 -20 20v31q0 20 20 21h580q20 0 20 -21v-39q0 -14 -4 -24l-526 -1268q-2 -4 0 -7t6 -3h504q20 0 20 -21v-31q0 -20 -20 -20h-580q-20 0 -20 20z" />
<glyph unicode="[" horiz-adv-x="579" d="M51 -203v1743q0 20 21 21h268q20 0 20 -21v-31q0 -20 -20 -20h-201q-8 0 -8 -8v-1624q0 -8 8 -9h203q20 0 20 -20v-31q0 -20 -20 -20h-270q-21 0 -21 20z" />
<glyph unicode="\" horiz-adv-x="608" d="M137 1419q0 14 19 15h39q18 0 22 -19l332 -1392l2 -9q0 -14 -19 -14h-38q-18 0 -23 18l-332 1393z" />
<glyph unicode="]" horiz-adv-x="579" d="M217 -172q0 20 21 20h204q8 0 9 9v1624q0 8 -9 8h-202q-20 0 -21 20v31q0 20 21 21h270q20 0 20 -21v-1743q0 -20 -20 -20h-272q-20 0 -21 20v31z" />
<glyph unicode="^" horiz-adv-x="786" d="M82 662l266 755q6 16 25 17h41q18 0 24 -17l267 -755l2 -9q0 -14 -19 -14h-29q-18 0 -24 16l-236 680q-2 4 -6 4t-6 -4l-233 -680q-6 -16 -25 -16h-31q-22 0 -16 23z" />
<glyph unicode="_" horiz-adv-x="729" d="M53 20v29q0 20 21 21h581q20 0 21 -21v-29q0 -20 -21 -20h-581q-21 0 -21 20z" />
<glyph unicode="`" horiz-adv-x="333" d="M64 1421q0 12 18 13h33q14 0 25 -15l127 -227q4 -8 4 -12q0 -12 -19 -13h-24q-14 0 -25 15l-135 227q-4 8 -4 12z" />
<glyph unicode="a" horiz-adv-x="813" d="M98 264q0 166 90.5 247t241.5 81h174q8 0 8 8v105q0 123 -53 195.5t-151 72.5q-78 0 -136.5 -48t-66.5 -126q0 -20 -21 -21l-43 2q-8 0 -14 6.5t-4 16.5q12 109 93 175t194 66q133 0 207.5 -92t74.5 -247v-685q0 -20 -20 -20h-39q-20 0 -21 20v84q0 6 -3 6.5t-7 -4.5 q-39 -61 -103.5 -91.5t-142.5 -30.5q-106 0 -182 62.5t-76 217.5zM180 270q0 -109 52.5 -162t138.5 -53q100 0 170.5 62.5t70.5 181.5v215q0 8 -8 8h-172q-115 0 -183.5 -63.5t-68.5 -188.5z" />
<glyph unicode="b" horiz-adv-x="843" d="M145 20v1393q0 20 21 21h39q20 0 20 -21v-475q0 -14 11 -4q35 53 90 81.5t120 28.5q125 0 202 -82.5t77 -218.5v-460q0 -131 -77 -215t-202 -84q-66 0 -121 28.5t-89 81.5q-4 4 -7.5 3t-3.5 -7v-70q0 -20 -20 -20h-39q-20 0 -21 20zM225 287q0 -102 58.5 -167t148.5 -65 q94 0 153.5 64.5t59.5 167.5v454q0 103 -59.5 167.5t-153.5 64.5q-90 0 -148.5 -64.5t-58.5 -167.5v-454z" />
<glyph unicode="c" horiz-adv-x="794" d="M119 285v458q0 133 81 217t210 84q86 0 152.5 -36.5t103 -97t36.5 -130.5v-8q0 -20 -20 -20l-39 -2q-20 0 -20 20v8q0 78 -60.5 136.5t-152.5 58.5t-151.5 -64.5t-59.5 -167.5v-454q0 -100 59 -166t152 -66q92 0 152.5 58.5t60.5 136.5v8q0 20 20 21h39q20 0 20 -21v-10 q0 -70 -36.5 -130.5t-103 -97t-152.5 -36.5q-129 0 -210 84t-81 217z" />
<glyph unicode="d" horiz-adv-x="843" d="M119 283v460q0 133 76.5 217t201.5 84q66 0 121 -28.5t90 -81.5q4 -4 7 -3t3 7v475q1 21 21 21h39q20 0 20 -21v-1393q0 -20 -20 -20h-39q-20 0 -21 20v70q0 6 -3 7t-7 -3q-35 -53 -90 -81.5t-121 -28.5q-125 0 -201.5 84t-76.5 215zM199 287q0 -102 59 -167t156 -65 q90 0 147 64.5t57 167.5v454q0 102 -57 167t-147 65q-96 0 -155.5 -64.5t-59.5 -167.5v-454z" />
<glyph unicode="e" horiz-adv-x="808" d="M119 283v460q0 133 81 217t210 84q131 0 211.5 -83.5t80.5 -217.5v-231q0 -20 -20 -20h-475q-8 0 -8 -9v-196q0 -102 59 -167t152 -65q78 0 133 45t73 121q6 18 23 19l37 -2q10 0 15 -6.5t3 -16.5q-18 -104 -95 -167.5t-189 -63.5q-129 0 -210 83t-81 216zM199 567 q0 -8 8 -8h407q8 0 9 8v174q0 102 -59.5 167t-153.5 65q-93 0 -152 -64.5t-59 -167.5v-174z" />
<glyph unicode="f" horiz-adv-x="546" d="M66 983v25q0 20 20 20h90q8 0 8 8v84q0 168 53.5 250t184.5 82h31q20 0 20 -20v-31q0 -20 -20 -21h-29q-92 0 -126 -62.5t-34 -197.5v-84q0 -8 8 -8h174q20 0 21 -20v-25q0 -20 -21 -20h-174q-8 0 -8 -9v-934q0 -20 -20 -20h-39q-20 0 -21 20v934q0 8 -8 9h-90 q-20 0 -20 20z" />
<glyph unicode="g" horiz-adv-x="821" d="M119 287v456q0 133 75.5 217t200.5 84q70 0 125 -29.5t88 -86.5q4 -4 7 -4t3 6v78q1 20 21 20h41q20 0 20 -20v-1002q0 -418 -368 -418q-31 0 -31 21v33q0 20 27 20q154 0 222 88t68 260v92q0 6 -3 6.5t-7 -4.5q-33 -57 -88 -86.5t-125 -29.5q-125 0 -200.5 84t-75.5 215 zM199 291q0 -102 60 -167t155 -65q90 0 147 64.5t57 167.5v450q0 102 -57 167t-147 65q-94 0 -154.5 -64.5t-60.5 -167.5v-450z" />
<glyph unicode="h" horiz-adv-x="847" d="M145 20v1393q0 20 21 21h39q20 0 20 -21v-495q0 -6 3 -6.5t8 3.5q70 127 221 127q123 0 190.5 -82.5t67.5 -230.5v-709q0 -20 -21 -20h-39q-20 0 -20 20v701q0 119 -53.5 184.5t-147.5 65.5q-96 0 -152.5 -71t-56.5 -193v-687q0 -20 -20 -20h-39q-20 0 -21 20z" />
<glyph unicode="i" horiz-adv-x="415" d="M115 1341q0 41 25.5 68t66.5 27t67.5 -27t26.5 -68q0 -39 -26.5 -65.5t-67.5 -26.5q-39 0 -65.5 27t-26.5 65zM168 20v988q0 20 20 20h39q20 0 21 -20v-988q0 -20 -21 -20h-39q-20 0 -20 20z" />
<glyph unicode="j" horiz-adv-x="393" d="M-35 -379q0 20 21 21q78 6 118.5 66.5t40.5 162.5v1137q0 20 21 20h39q20 0 20 -20v-1137q0 -143 -56 -220t-183 -81q-21 0 -21 20v31zM92 1341q0 41 26.5 68t67.5 27t67 -27t26 -68q0 -39 -26 -65.5t-67 -26.5t-67.5 27t-26.5 65z" />
<glyph unicode="k" horiz-adv-x="788" d="M145 20v1393q0 20 21 21h39q20 0 20 -21v-889q0 -4 4 -5t7 3l362 494q8 12 27 12h41q12 0 16 -7t-4 -17l-195 -267q-4 -6 -2 -10l238 -704l2 -9q0 -14 -19 -14h-40q-18 0 -25 16l-205 641q-2 12 -12 2l-191 -260q-4 -4 -4 -10v-369q0 -20 -20 -20h-39q-21 0 -21 20z" />
<glyph unicode="l" horiz-adv-x="346" d="M133 20v1393q0 20 21 21h39q20 0 20 -21v-1393q0 -20 -20 -20h-39q-21 0 -21 20z" />
<glyph unicode="m" horiz-adv-x="1302" d="M145 20v988q0 20 21 20h39q20 0 20 -20v-84q0 -6 3 -6t8 4q37 59 92 89.5t121 30.5q78 0 136 -43t87 -122q4 -12 10 2q31 80 94.5 121.5t143.5 41.5q112 0 180.5 -90t68.5 -241v-691q0 -20 -20 -20h-39q-20 0 -20 20v682q0 123 -53.5 196t-139.5 73q-92 0 -146.5 -71 t-54.5 -193v-687q0 -20 -20 -20h-37q-20 0 -21 20v682q0 123 -53 196t-137 73q-92 0 -147.5 -71t-55.5 -193v-687q0 -20 -20 -20h-39q-20 0 -21 20z" />
<glyph unicode="n" horiz-adv-x="847" d="M145 20v988q0 20 21 20h39q20 0 20 -20v-90q0 -6 3 -6.5t8 3.5q70 127 221 127q123 0 190.5 -82.5t67.5 -230.5v-709q0 -20 -21 -20h-39q-20 0 -20 20v701q0 119 -53.5 184.5t-147.5 65.5q-96 0 -152.5 -71t-56.5 -193v-687q0 -20 -20 -20h-39q-20 0 -21 20z" />
<glyph unicode="o" horiz-adv-x="823" d="M119 285v458q0 133 81 217t210 84q131 0 211.5 -83.5t80.5 -217.5v-458q0 -133 -80.5 -217t-211.5 -84q-129 0 -210 84t-81 217zM199 287q0 -100 59 -166t152 -66q94 0 153.5 64.5t59.5 167.5v454q0 102 -59.5 167t-153.5 65q-92 0 -151.5 -65.5t-59.5 -166.5v-454z" />
<glyph unicode="p" horiz-adv-x="858" d="M160 -385v1393q0 20 20 20h39q20 0 21 -20v-70q0 -6 3 -7t7 3q35 53 89 81.5t120 28.5q125 0 201.5 -83.5t76.5 -215.5v-460q0 -135 -76.5 -218t-201.5 -83q-66 0 -120 28.5t-89 81.5q-4 4 -7 3t-3 -7v-475q0 -20 -21 -21h-39q-20 0 -20 21zM240 287q0 -102 57 -167 t147 -65q94 0 154.5 64.5t60.5 167.5v454q0 103 -59 167.5t-156 64.5q-90 0 -147 -64.5t-57 -167.5v-454z" />
<glyph unicode="q" horiz-adv-x="858" d="M119 285v460q0 131 76.5 215t201.5 84q66 0 121 -28.5t90 -81.5q4 -4 7 -3t3 7v70q1 20 21 20h39q20 0 20 -20v-1393q0 -20 -20 -21h-39q-20 0 -21 21v475q0 6 -3 7t-7 -3q-35 -53 -90 -81.5t-121 -28.5q-125 0 -201.5 84t-76.5 217zM199 287q0 -102 60 -167t155 -65 q90 0 147 64.5t57 167.5v454q0 102 -57 167t-147 65q-96 0 -155.5 -64.5t-59.5 -167.5v-454z" />
<glyph unicode="r" horiz-adv-x="569" d="M145 20v988q0 20 21 20h39q20 0 20 -20v-134q0 -6 4 -6t7 6q31 76 82 119t122 43q51 0 88 -20q14 -8 9 -27l-13 -41q-6 -18 -26 -10q-25 10 -61 10h-13q-86 0 -142.5 -84t-56.5 -209v-635q0 -20 -20 -20h-39q-20 0 -21 20z" />
<glyph unicode="s" horiz-adv-x="731" d="M102 244v10q0 20 21 20h37q20 0 20 -20v-10q0 -78 55.5 -131.5t147.5 -53.5q90 0 143.5 54.5t53.5 142.5q0 63 -30 105t-74 68t-120 56q-78 33 -129 64t-86 84t-35 137q0 123 75 194.5t198 71.5q125 0 199.5 -73.5t74.5 -190.5v-6q0 -20 -20 -21h-35q-20 0 -20 21v8 q0 82 -55.5 138.5t-143.5 56.5t-141.5 -55.5t-53.5 -141.5q0 -59 28 -99t69 -64.5t112 -55.5q86 -35 138.5 -65.5t90 -87t37.5 -142.5q0 -121 -74.5 -193.5t-201.5 -72.5t-204 70.5t-77 181.5z" />
<glyph unicode="t" horiz-adv-x="524" d="M66 983v25q0 20 20 20h84q8 0 8 8v230q0 20 21 20h39q20 0 20 -20v-230q0 -8 8 -8h170q20 0 21 -20v-25q-1 -20 -21 -20h-170q-8 0 -8 -9v-688q0 -109 37 -151.5t117 -42.5h22q20 0 21 -21v-31q0 -20 -21 -20h-35q-109 0 -165 53t-56 199v702q0 8 -8 9h-84q-20 0 -20 20z " />
<glyph unicode="u" horiz-adv-x="845" d="M133 285v723q0 20 21 20h39q20 0 20 -20v-707q0 -119 52 -181.5t147 -62.5q96 0 152.5 71t56.5 194v686q0 20 20 20h39q20 0 20 -20v-988q0 -20 -20 -20h-39q-20 0 -20 20v82q0 6 -4.5 7.5t-6.5 -5.5q-62 -118 -211 -118h-2q-123 0 -193.5 75.5t-70.5 223.5z" />
<glyph unicode="v" horiz-adv-x="722" d="M57 1012q0 16 21 16h45q20 0 22 -18l213 -869q2 -6 4.5 -6t4.5 6l208 869q4 18 23 18h49q23 0 17 -22l-254 -988q-2 -18 -23 -18h-49q-19 0 -23 18l-256 988z" />
<glyph unicode="w" horiz-adv-x="1079" d="M57 1006v4q0 18 19 18h37q20 0 22 -18l176 -877q2 -6 4 -6t4 6l177 877q4 18 22 18h37q20 0 23 -18l180 -877q2 -6 4 -6t4 6l178 877q4 18 23 18h37q10 0 15 -6t3 -16l-217 -988q-2 -18 -23 -18h-41q-18 0 -22 18l-178 848q-2 6 -4 6t-5 -6l-174 -848q-2 -18 -22 -18h-41 q-19 0 -23 18z" />
<glyph unicode="x" horiz-adv-x="708" d="M49 1014q0 14 17 14h47q18 0 24 -14l213 -422q2 -4 6 -4t6 4l213 422q6 14 25 14h43q10 0 14.5 -7t-0.5 -17l-256 -484q-2 -6 0 -12l256 -483q2 -4 2 -11q0 -14 -16 -14h-43q-18 0 -25 14l-213 424q-2 4 -6 4t-6 -4l-213 -424q-6 -14 -24 -14h-47q-11 0 -15 7t0 18 l258 483q4 6 0 12l-258 484q-2 4 -2 10z" />
<glyph unicode="y" horiz-adv-x="700" d="M43 1012q0 16 20 16h43q20 0 23 -18l219 -889q2 -6 4 -6t4 6l217 889q4 18 23 18h41q10 0 15 -6t3 -16l-290 -1121q-35 -129 -67 -190.5t-74 -83t-118 -21.5h-10q-4 0 -8 6.5t-4 14.5v31q0 20 20 20q61 2 94 27.5t55.5 92t55.5 212.5q2 4 1 7t-1 5l-264 1000z" />
<glyph unicode="z" horiz-adv-x="727" d="M82 20v39q0 12 6 27l463 858q4 10 -4 10h-438q-20 0 -21 21v33q0 20 21 20h520q20 0 20 -20v-39q0 -10 -6 -27l-463 -858q-4 -10 4 -10h443q20 0 20 -21v-33q0 -20 -20 -20h-525q-20 0 -20 20z" />
<glyph unicode="{" horiz-adv-x="491" d="M51 659v33q0 18 19 21q49 12 72.5 56t23.5 128v440q0 119 43 171.5t139 52.5h74q20 0 20 -21v-31q0 -20 -20 -20h-60q-61 0 -88.5 -38t-27.5 -124v-426q0 -92 -21.5 -144t-68.5 -75q-10 -4 0 -10q47 -27 68.5 -79t21.5 -142v-441q0 -86 27.5 -124t88.5 -38h60 q20 0 20 -20v-31q0 -20 -20 -20h-74q-96 0 -139 52t-43 171v455q0 86 -23.5 130t-72.5 54q-18 4 -19 20z" />
<glyph unicode="|" horiz-adv-x="253" d="M88 -143v1679q0 20 21 20h38q20 0 21 -20v-1679q0 -20 -21 -21h-38q-21 1 -21 21z" />
<glyph unicode="}" horiz-adv-x="491" d="M51 -172q0 20 21 20h57q61 0 90 38t29 124v441q0 90 21.5 142t68.5 79q10 6 0 10q-47 23 -68.5 75t-21.5 144v426q0 86 -29 124t-90 38h-57q-20 0 -21 20v31q0 20 21 21h73q96 0 139.5 -52.5t43.5 -171.5v-440q0 -86 22.5 -130t73.5 -54q18 -2 18 -21v-33q0 -16 -18 -20 q-51 -10 -73.5 -54t-22.5 -130v-455q0 -119 -43 -171t-140 -52h-73q-20 0 -21 20v31z" />
<glyph unicode="~" horiz-adv-x="917" d="M82 571q31 61 82 95t123 34q49 0 87 -13t81 -40q57 -35 97 -52t95 -17q43 0 70.5 20t62.5 61q14 18 29 7l18 -13q16 -12 7 -28q-39 -57 -82 -89t-105 -32q-59 0 -99 16.5t-112 57.5q-39 23 -72.5 36t-72.5 13q-53 0 -90 -21.5t-66 -64.5q-4 -8 -12 -10.5t-17 1.5l-16 13 q-16 12 -8 26z" />
<glyph unicode="&#xa2;" horiz-adv-x="794" d="M119 469v459q0 121 67.5 201.5t180.5 97.5q8 0 8 8l-2 141q0 20 20 21h33q20 0 20 -21l-2 -141q0 -8 9 -8q111 -14 180 -89t69 -173v-15q0 -14 -20 -14l-39 -2q-20 0 -20 20v9q0 78 -60.5 136t-152.5 58t-151.5 -64.5t-59.5 -166.5v-455q0 -100 59 -165.5t152 -65.5 q92 0 152.5 58t60.5 136v8q0 20 20 21h39q20 0 20 -21v-10q0 -98 -69.5 -173t-179.5 -89q-8 0 -9 -8l2 -142q0 -20 -20 -20h-33q-20 0 -20 20l2 142q0 8 -8 8q-113 16 -180.5 97t-67.5 202z" />
<glyph unicode="&#xa3;" horiz-adv-x="1015" d="M172 672v26q0 20 21 21h122q8 0 9 8v342q0 178 85 279.5t230 101.5q211 0 276 -250v-4q0 -16 -16 -20l-35 -7h-6q-16 0 -18 17q-47 195 -209 194q-109 0 -169.5 -81.5t-60.5 -227.5v-344q0 -8 9 -8h303q20 0 20 -21v-26q0 -20 -20 -21h-303q-8 0 -9 -8v-289 q0 -86 -20.5 -157.5t-54.5 -116.5q-6 -10 4 -10h585q20 0 21 -21v-29q0 -20 -21 -20h-671q-20 0 -21 20v33q0 16 13 25q39 33 63.5 106.5t24.5 165.5v293q0 8 -9 8h-122q-20 0 -21 21z" />
<glyph unicode="&#xa5;" horiz-adv-x="1064" d="M176 428v16q0 20 21 21h280q8 0 8 8v162q0 8 -8 8h-280q-20 0 -21 21v18q0 20 21 20h268q4 0 6 3.5t0 7.5l-270 696l-2 8q0 16 18 17h41q18 0 25 -17l235 -645q2 -6 6 -6t6 6l236 645q6 16 25 17h40q10 0 15.5 -7.5t1.5 -17.5l-268 -696q-2 -4 0 -7.5t6 -3.5h280 q20 0 21 -20v-18q-1 -21 -21 -21h-293q-8 0 -8 -8v-162q0 -8 8 -8h293q20 0 21 -21v-16q0 -20 -21 -20h-293q-8 0 -8 -9v-379q0 -20 -20 -20h-39q-20 0 -21 20v379q0 8 -8 9h-280q-20 0 -21 20z" />
<glyph unicode="&#xa8;" horiz-adv-x="567" d="M53 1341q0 41 26 68t67 27t67.5 -27t26.5 -68t-26.5 -66.5t-67.5 -25.5t-67 27t-26 65zM327 1341q0 41 26 68t67 27t67.5 -27t26.5 -68t-26.5 -66.5t-67.5 -25.5t-67 27t-26 65z" />
<glyph unicode="&#xa9;" horiz-adv-x="1748" d="M133 713q0 205 97.5 373.5t267.5 266t376 97.5q207 0 377 -97.5t268.5 -266t98.5 -373.5q0 -201 -98.5 -368t-268.5 -264t-377 -97q-206 0 -376 97t-267.5 264t-97.5 368zM195 713q0 -182 89 -336t244.5 -244t345.5 -90q189 0 344.5 90t244.5 243.5t89 336.5 q0 186 -89 341.5t-244.5 246t-344.5 90.5q-190 0 -345.5 -90.5t-244.5 -246t-89 -341.5zM713 522v375q0 68 44 109t117 41q76 0 121 -41t45 -109v-16q0 -20 -20 -21h-19q-20 0 -20 21v20q0 41 -28.5 65.5t-78.5 24.5q-47 0 -75.5 -24.5t-28.5 -65.5v-381q0 -41 28.5 -66.5 t75.5 -25.5q49 0 78 25.5t29 66.5v21q0 20 20 20h19q8 0 14 -6t6 -16v-17q0 -68 -45 -108.5t-121 -40.5q-73 0 -117 41t-44 108z" />
<glyph unicode="&#xab;" horiz-adv-x="978" d="M176 575.5q0 8.5 4 14.5l244 330q8 12 27 12h32q12 0 16.5 -7t-3.5 -18l-244 -325q-2 -6 0 -13l244 -325q4 -5 4 -13q0 -4 -4 -8t-13 -4h-32q-18 0 -27 12l-244 330q-4 6 -4 14.5zM469 575.5q0 8.5 4 14.5l244 330q8 12 26 12h33q12 0 16.5 -7t-4.5 -18l-241 -325 q-2 -6 0 -13l241 -325q5 -5 5 -13q0 -4 -4.5 -8t-12.5 -4h-33q-18 0 -26 12l-244 330q-4 6 -4 14.5z" />
<glyph unicode="&#xad;" horiz-adv-x="624" d="M74 635v31q0 20 20 20h436q20 0 21 -20v-31q0 -20 -21 -21h-436q-20 1 -20 21z" />
<glyph unicode="&#xae;" horiz-adv-x="899" d="M53 1073q0 106 53.5 196.5t144.5 142.5t200 52q108 0 198 -52t143.5 -142t53.5 -197q0 -109 -53.5 -199t-143.5 -142t-198 -52q-109 0 -200 52t-144.5 142.5t-53.5 198.5zM109 1073q0 -92 46 -170t123.5 -124t172.5 -46q92 0 169.5 46t124 124t46.5 170t-46.5 170 t-124 123t-169.5 45q-94 0 -172 -45t-124 -123t-46 -170zM352 909v322q0 20 21 20h98q45 0 72.5 -29.5t27.5 -76.5q0 -33 -14 -56.5t-41 -33.5q-6 -2 -4 -11l57 -131l2 -8q0 -16 -18 -16h-12q-16 0 -23 16l-57 135q-2 6 -8 7h-45q-8 0 -9 -9v-129q0 -20 -20 -20h-6 q-20 0 -21 20zM399 1094q0 -8 9 -9h57q27 0 43 16.5t16 43.5q0 29 -16 46t-43 17h-57q-9 0 -9 -8v-106z" />
<glyph unicode="&#xb4;" horiz-adv-x="333" d="M66 1174.5q-4 7.5 2 17.5l127 227q10 14 25 15h32q12 0 16.5 -7.5t-1.5 -17.5l-138 -227q-10 -14 -24 -15h-23q-12 0 -16 7.5z" />
<glyph unicode="&#xb8;" horiz-adv-x="217" d="M6 -346l2 16q2 10 9.5 13.5t15.5 1.5q10 -2 28 -2q94 0 95 108q0 88 -86 184q-6 6 -7 15q0 10 15 10h18q14 0 21 -6l8 -8q94 -88 94 -197q0 -86 -43 -125t-106 -39q-25 0 -50 6q-16 3 -14 23z" />
<glyph unicode="&#xbb;" horiz-adv-x="978" d="M186 226q-4 7 4 18l242 325q4 6 0 13l-242 325q-4 4 -4 13q0 4 4.5 8t12.5 4h33q18 0 26 -12l244 -330q4 -6 4 -14.5t-4 -14.5l-244 -330q-8 -12 -26 -12h-33q-13 0 -17 7zM479 226q-4 7 4 18l242 325q4 6 0 13l-242 325q-4 4 -4 13q0 4 4.5 8t12.5 4h33q18 0 26 -12 l244 -330q4 -6 4 -14.5t-4 -14.5l-244 -330q-8 -12 -26 -12h-33q-13 0 -17 7z" />
<glyph unicode="&#x2c6;" horiz-adv-x="407" d="M66.5 1195q-3.5 7 3.5 17l133 207q10 14 24 15h56q16 0 24 -13l137 -209q4 -8 4 -12q0 -12 -16 -12h-43q-14 0 -25 14l-100 164q-2 4 -6 4t-6 -4l-103 -164q-10 -14 -24 -14h-43q-12 0 -15.5 7z" />
<glyph unicode="&#x2da;" horiz-adv-x="507" d="M56 1407q0 86 58 146.5t142 60.5t142.5 -60.5t58.5 -146.5t-58.5 -146.5t-142.5 -60.5t-142 60.5t-58 146.5zM113 1407q0 -61 42 -104t101 -43q60 0 101 41.5t41 105.5q0 63 -41 105t-101 42q-59 0 -101 -43t-42 -104z" />
<glyph unicode="&#x2dc;" horiz-adv-x="622" d="M63 1333q53 90 144 90q31 0 54 -12t58 -35q8 -6 27.5 -19.5t36 -20.5t32.5 -7q29 0 50.5 13.5t44.5 50.5q4 8 12 10t16 -2l13 -6q10 -6 10 -19q0 -14 -8 -24q-29 -43 -68 -63.5t-74 -20.5q-28 0 -53 12t-55 35q-10 6 -27.5 18.5t-33 18.5t-33.5 6q-31 0 -53.5 -11.5 t-45.5 -43.5q-12 -18 -28 -7l-13 9q-18 12 -6 28z" />
<glyph unicode="&#x2000;" horiz-adv-x="819" />
<glyph unicode="&#x2001;" horiz-adv-x="1638" />
<glyph unicode="&#x2002;" horiz-adv-x="819" />
<glyph unicode="&#x2003;" horiz-adv-x="1638" />
<glyph unicode="&#x2004;" horiz-adv-x="546" />
<glyph unicode="&#x2005;" horiz-adv-x="409" />
<glyph unicode="&#x2006;" horiz-adv-x="273" />
<glyph unicode="&#x2007;" horiz-adv-x="273" />
<glyph unicode="&#x2008;" horiz-adv-x="204" />
<glyph unicode="&#x2009;" horiz-adv-x="327" />
<glyph unicode="&#x200a;" horiz-adv-x="91" />
<glyph unicode="&#x2010;" horiz-adv-x="624" d="M74 635v31q0 20 20 20h436q20 0 21 -20v-31q0 -20 -21 -21h-436q-20 1 -20 21z" />
<glyph unicode="&#x2011;" horiz-adv-x="624" d="M74 635v31q0 20 20 20h436q20 0 21 -20v-31q0 -20 -21 -21h-436q-20 1 -20 21z" />
<glyph unicode="&#x2012;" horiz-adv-x="624" d="M74 635v31q0 20 20 20h436q20 0 21 -20v-31q0 -20 -21 -21h-436q-20 1 -20 21z" />
<glyph unicode="&#x2013;" horiz-adv-x="753" d="M74 561v33q0 20 20 20h565q20 0 21 -20v-33q0 -20 -21 -20h-565q-20 0 -20 20z" />
<glyph unicode="&#x2014;" horiz-adv-x="1212" d="M74 561v33q0 20 20 20h1024q20 0 21 -20v-33q0 -20 -21 -20h-1024q-20 0 -20 20z" />
<glyph unicode="&#x2018;" horiz-adv-x="192" d="M8 1057l111 360q6 16 24 17h25q10 0 15 -6.5t3 -16.5l-96 -358q-4 -18 -22 -19h-43q-23 0 -17 23z" />
<glyph unicode="&#x2019;" horiz-adv-x="192" d="M6 1057l96 358q4 18 23 19h43q22 0 16 -23l-112 -360q-6 -16 -25 -17h-22q-10 0 -15.5 6.5t-3.5 16.5z" />
<glyph unicode="&#x201a;" horiz-adv-x="1228" d="M86 -123l74 420q4 18 22 18h33q10 0 15.5 -6t2.5 -16l-83 -420q-2 -18 -23 -18h-23q-10 0 -15 6t-3 16z" />
<glyph unicode="&#x201c;" horiz-adv-x="417" d="M8 1057l127 360q6 16 25 17h22q10 0 15.5 -6.5t3.5 -16.5l-111 -360q-6 -16 -24 -17h-41q-23 0 -17 23zM219 1057l125 360q6 16 25 17h24q10 0 15.5 -6.5t3.5 -16.5l-109 -360q-6 -16 -24 -17h-43q-23 0 -17 23z" />
<glyph unicode="&#x201d;" horiz-adv-x="417" d="M6 1057l109 360q6 16 24 17h43q23 0 17 -23l-127 -360q-6 -16 -25 -17h-22q-10 0 -15.5 6.5t-3.5 16.5zM217 1057l111 360q6 16 24 17h41q23 0 17 -23l-127 -360q-6 -16 -25 -17h-22q-10 0 -15.5 6.5t-3.5 16.5z" />
<glyph unicode="&#x201e;" horiz-adv-x="382" d="M6 -117l109 360q6 16 24 17h43q23 0 17 -23l-127 -360q-6 -16 -25 -17h-22q-10 0 -15.5 6.5t-3.5 16.5zM217 -117l111 360q6 16 24 17h41q23 0 17 -23l-127 -360q-6 -16 -25 -17h-22q-10 0 -15.5 6.5t-3.5 16.5z" />
<glyph unicode="&#x2022;" horiz-adv-x="593" d="M74 539q0 92 65.5 156.5t157.5 64.5t157.5 -64.5t65.5 -156.5t-66.5 -158t-156.5 -66q-92 0 -157.5 65.5t-65.5 158.5z" />
<glyph unicode="&#x2026;" horiz-adv-x="1200" d="M86 102q0 41 26 68t67 27t67.5 -27t26.5 -68t-26.5 -66.5t-67.5 -25.5t-67 27t-26 65zM508 102q0 41 26 68t67 27t67.5 -27t26.5 -68t-26.5 -66.5t-67.5 -25.5t-67 27t-26 65zM930 102q0 41 26 68t67 27t67.5 -27t26.5 -68t-26.5 -66.5t-67.5 -25.5t-67 27t-26 65z" />
<glyph unicode="&#x202f;" horiz-adv-x="327" />
<glyph unicode="&#x2039;" horiz-adv-x="649" d="M139 575.5q0 8.5 4 14.5l244 330q8 12 27 12h32q12 0 16.5 -7t-3.5 -18l-242 -325q-2 -6 0 -13l242 -325q4 -5 4 -13q0 -4 -4 -8t-13 -4h-32q-18 0 -27 12l-244 330q-4 6 -4 14.5z" />
<glyph unicode="&#x203a;" horiz-adv-x="688" d="M186 226q-4 7 4 18l242 325q4 6 0 13l-242 325q-4 4 -4 13q0 4 4.5 8t12.5 4h33q18 0 26 -12l244 -330q4 -6 4 -14.5t-4 -14.5l-244 -330q-8 -12 -26 -12h-33q-13 0 -17 7z" />
<glyph unicode="&#x205f;" horiz-adv-x="409" />
<glyph unicode="&#x20ac;" horiz-adv-x="980" d="M133 588v16q0 20 21 21h114q8 0 8 8v160q0 8 -8 8h-114q-20 0 -21 20v19q0 20 21 20h114q8 0 8 8v252q0 150 80 240t211 90q125 0 204 -77t89 -210v-4q0 -14 -16 -18l-41 -6h-4q-18 0 -19 18q-6 102 -64.5 163.5t-148.5 61.5q-96 0 -153.5 -69.5t-57.5 -184.5v-256 q0 -8 9 -8h374q10 0 15.5 -7t1.5 -17l-11 -21q-6 -14 -22 -14h-358q-8 0 -9 -8v-160q0 -8 9 -8h311q10 0 14 -7.5t0 -17.5l-8 -18q-6 -14 -25 -15h-292q-8 0 -9 -8v-250q0 -115 58.5 -184.5t152.5 -69.5q90 0 147.5 60.5t65.5 163.5q0 10 5.5 16t15.5 4l41 -6q20 -4 18 -23 q-12 -131 -91 -208.5t-202 -77.5q-131 0 -211 91t-80 240v244q0 8 -8 8h-114q-20 0 -21 21z" />
<glyph unicode="&#x2122;" horiz-adv-x="1030" d="M39 1399v14q0 20 20 21h344q20 0 21 -21v-14q0 -20 -21 -21h-139q-8 0 -8 -8v-635q0 -20 -20 -20h-19q-20 0 -20 20v635q0 8 -9 8h-129q-20 1 -20 21zM543 735v678q0 20 20 21h25q18 0 24 -15l123 -260q2 -4 6 -4t7 4l126 260q7 15 25 15h23q20 0 20 -21v-678 q0 -20 -20 -20h-21q-20 0 -20 20v561q0 6 -3.5 6.5t-7.5 -4.5l-108 -229q-6 -14 -19 -14q-12 0 -18 14l-109 229q-4 4 -7 4.5t-3 -6.5v-561q0 -20 -20 -20h-23q-20 0 -20 20z" />
<glyph unicode="&#x25fc;" horiz-adv-x="1024" d="M0 0v1024h1024v-1024h-1024z" />
</font>
</defs>
</svg>
